  0
SECTION
  2
HEADER
  9
$ACADVER
  1
AC1027
  9
$ACADMAINTVER
 70
   125
  9
$DWGCODEPAGE
  3
ANSI_1252
  9
$LASTSAVEDBY
  1
User
  9
$REQUIREDVERSIONS
160
                 0
  9
$INSBASE
 10
0.0
 20
0.0
 30
0.0
  9
$EXTMIN
 10
-242.4999985583126
 20
-73.00000083446507
 30
0.0
  9
$EXTMAX
 10
23.0
 20
189.9999992847443
 30
0.0
  9
$LIMMIN
 10
0.0
 20
0.0
  9
$LIMMAX
 10
12.0
 20
9.0
  9
$ORTHOMODE
 70
     0
  9
$REGENMODE
 70
     1
  9
$FILLMODE
 70
     1
  9
$QTEXTMODE
 70
     0
  9
$MIRRTEXT
 70
     0
  9
$LTSCALE
 40
1.0
  9
$ATTMODE
 70
     1
  9
$TEXTSIZE
 40
0.2
  9
$TRACEWID
 40
0.05
  9
$TEXTSTYLE
  7
STANDARD
  9
$CLAYER
  8
0
  9
$CELTYPE
  6
Continuous
  9
$CECOLOR
 62
   256
  9
$CELTSCALE
 40
1.0
  9
$DISPSILH
 70
     0
  9
$DIMSCALE
 40
1.0
  9
$DIMASZ
 40
0.18
  9
$DIMEXO
 40
0.0625
  9
$DIMDLI
 40
0.38
  9
$DIMRND
 40
0.0
  9
$DIMDLE
 40
0.0
  9
$DIMEXE
 40
0.18
  9
$DIMTP
 40
0.0
  9
$DIMTM
 40
0.0
  9
$DIMTXT
 40
0.18
  9
$DIMCEN
 40
0.09
  9
$DIMTSZ
 40
0.0
  9
$DIMTOL
 70
     0
  9
$DIMLIM
 70
     0
  9
$DIMTIH
 70
     1
  9
$DIMTOH
 70
     1
  9
$DIMSE1
 70
     0
  9
$DIMSE2
 70
     0
  9
$DIMTAD
 70
     0
  9
$DIMZIN
 70
     0
  9
$DIMBLK
  1

  9
$DIMASO
 70
     1
  9
$DIMSHO
 70
     1
  9
$DIMPOST
  1

  9
$DIMAPOST
  1

  9
$DIMALT
 70
     0
  9
$DIMALTD
 70
     2
  9
$DIMALTF
 40
25.4
  9
$DIMLFAC
 40
1.0
  9
$DIMTOFL
 70
     0
  9
$DIMTVP
 40
0.0
  9
$DIMTIX
 70
     0
  9
$DIMSOXD
 70
     0
  9
$DIMSAH
 70
     0
  9
$DIMBLK1
  1

  9
$DIMBLK2
  1

  9
$DIMSTYLE
  2
Standard
  9
$DIMCLRD
 70
     0
  9
$DIMCLRE
 70
     0
  9
$DIMCLRT
 70
     0
  9
$DIMTFAC
 40
1.0
  9
$DIMGAP
 40
0.09
  9
$DIMJUST
 70
     0
  9
$DIMSD1
 70
     0
  9
$DIMSD2
 70
     0
  9
$DIMTOLJ
 70
     1
  9
$DIMTZIN
 70
     0
  9
$DIMALTZ
 70
     0
  9
$DIMALTTZ
 70
     0
  9
$DIMUPT
 70
     0
  9
$DIMDEC
 70
     4
  9
$DIMTDEC
 70
     4
  9
$DIMALTU
 70
     2
  9
$DIMALTTD
 70
     2
  9
$DIMTXSTY
  7
STANDARD
  9
$DIMAUNIT
 70
     0
  9
$DIMADEC
 70
     0
  9
$DIMALTRND
 40
0.0
  9
$DIMAZIN
 70
     0
  9
$DIMDSEP
 70
    46
  9
$DIMATFIT
 70
     3
  9
$DIMFRAC
 70
     0
  9
$DIMLDRBLK
  1

  9
$DIMLUNIT
 70
     2
  9
$DIMLWD
 70
    -2
  9
$DIMLWE
 70
    -2
  9
$DIMTMOVE
 70
     0
  9
$DIMFXL
 40
1.0
  9
$DIMFXLON
 70
     0
  9
$DIMJOGANG
 40
0.7853981633974483
  9
$DIMTFILL
 70
     0
  9
$DIMTFILLCLR
 70
     0
  9
$DIMARCSYM
 70
     0
  9
$DIMLTYPE
  6

  9
$DIMLTEX1
  6

  9
$DIMLTEX2
  6

  9
$DIMTXTDIRECTION
 70
     0
  9
$LUNITS
 70
     2
  9
$LUPREC
 70
     4
  9
$SKETCHINC
 40
0.1
  9
$FILLETRAD
 40
0.0
  9
$AUNITS
 70
     0
  9
$AUPREC
 70
     0
  9
$MENU
  1
.
  9
$ELEVATION
 40
0.0
  9
$PELEVATION
 40
0.0
  9
$THICKNESS
 40
0.0
  9
$LIMCHECK
 70
     0
  9
$CHAMFERA
 40
0.0
  9
$CHAMFERB
 40
0.0
  9
$CHAMFERC
 40
0.0
  9
$CHAMFERD
 40
0.0
  9
$SKPOLY
 70
     0
  9
$TDCREATE
 40
2459254.733344907
  9
$TDUCREATE
 40
2459254.400011574
  9
$TDUPDATE
 40
2459254.761921297
  9
$TDUUPDATE
 40
2459254.428587963
  9
$TDINDWG
 40
0.0285763889
  9
$TDUSRTIMER
 40
0.0285763889
  9
$USRTIMER
 70
     1
  9
$ANGBASE
 50
0.0
  9
$ANGDIR
 70
     0
  9
$PDMODE
 70
     0
  9
$PDSIZE
 40
0.0
  9
$PLINEWID
 40
0.0
  9
$SPLFRAME
 70
     0
  9
$SPLINETYPE
 70
     6
  9
$SPLINESEGS
 70
     8
  9
$HANDSEED
  5
1022A
  9
$SURFTAB1
 70
     6
  9
$SURFTAB2
 70
     6
  9
$SURFTYPE
 70
     6
  9
$SURFU
 70
     6
  9
$SURFV
 70
     6
  9
$UCSBASE
  2

  9
$UCSNAME
  2

  9
$UCSORG
 10
0.0
 20
0.0
 30
0.0
  9
$UCSXDIR
 10
1.0
 20
0.0
 30
0.0
  9
$UCSYDIR
 10
0.0
 20
1.0
 30
0.0
  9
$UCSORTHOREF
  2

  9
$UCSORTHOVIEW
 70
     0
  9
$UCSORGTOP
 10
0.0
 20
0.0
 30
0.0
  9
$UCSORGBOTTOM
 10
0.0
 20
0.0
 30
0.0
  9
$UCSORGLEFT
 10
0.0
 20
0.0
 30
0.0
  9
$UCSORGRIGHT
 10
0.0
 20
0.0
 30
0.0
  9
$UCSORGFRONT
 10
0.0
 20
0.0
 30
0.0
  9
$UCSORGBACK
 10
0.0
 20
0.0
 30
0.0
  9
$PUCSBASE
  2

  9
$PUCSNAME
  2

  9
$PUCSORG
 10
0.0
 20
0.0
 30
0.0
  9
$PUCSXDIR
 10
1.0
 20
0.0
 30
0.0
  9
$PUCSYDIR
 10
0.0
 20
1.0
 30
0.0
  9
$PUCSORTHOREF
  2

  9
$PUCSORTHOVIEW
 70
     0
  9
$PUCSORGTOP
 10
0.0
 20
0.0
 30
0.0
  9
$PUCSORGBOTTOM
 10
0.0
 20
0.0
 30
0.0
  9
$PUCSORGLEFT
 10
0.0
 20
0.0
 30
0.0
  9
$PUCSORGRIGHT
 10
0.0
 20
0.0
 30
0.0
  9
$PUCSORGFRONT
 10
0.0
 20
0.0
 30
0.0
  9
$PUCSORGBACK
 10
0.0
 20
0.0
 30
0.0
  9
$USERI1
 70
     0
  9
$USERI2
 70
     0
  9
$USERI3
 70
     0
  9
$USERI4
 70
     0
  9
$USERI5
 70
     0
  9
$USERR1
 40
0.0
  9
$USERR2
 40
0.0
  9
$USERR3
 40
0.0
  9
$USERR4
 40
0.0
  9
$USERR5
 40
0.0
  9
$WORLDVIEW
 70
     1
  9
$SHADEDGE
 70
     3
  9
$SHADEDIF
 70
    70
  9
$TILEMODE
 70
     1
  9
$MAXACTVP
 70
    64
  9
$PINSBASE
 10
0.0
 20
0.0
 30
0.0
  9
$PLIMCHECK
 70
     0
  9
$PEXTMIN
 10
1.000000000000000E+20
 20
1.000000000000000E+20
 30
1.000000000000000E+20
  9
$PEXTMAX
 10
-1.000000000000000E+20
 20
-1.000000000000000E+20
 30
-1.000000000000000E+20
  9
$PLIMMIN
 10
0.0
 20
0.0
  9
$PLIMMAX
 10
12.0
 20
9.0
  9
$UNITMODE
 70
     0
  9
$VISRETAIN
 70
     1
  9
$PLINEGEN
 70
     0
  9
$PSLTSCALE
 70
     1
  9
$TREEDEPTH
 70
  3020
  9
$CMLSTYLE
  2
Standard
  9
$CMLJUST
 70
     0
  9
$CMLSCALE
 40
1.0
  9
$PROXYGRAPHICS
 70
     1
  9
$MEASUREMENT
 70
     0
  9
$CELWEIGHT
370
    -1
  9
$ENDCAPS
280
     0
  9
$JOINSTYLE
280
     0
  9
$LWDISPLAY
290
     0
  9
$INSUNITS
 70
     4
  9
$HYPERLINKBASE
  1

  9
$STYLESHEET
  1

  9
$XEDIT
290
     1
  9
$CEPSNTYPE
380
     0
  9
$PSTYLEMODE
290
     1
  9
$FINGERPRINTGUID
  2
{080A1D31-A6FD-CB49-AF51-FDD38D9A2937}
  9
$VERSIONGUID
  2
{26DBCB1E-8D12-B646-B64F-4B4E45FE9BAE}
  9
$EXTNAMES
290
     1
  9
$PSVPSCALE
 40
0.0
  9
$OLESTARTUP
290
     0
  9
$SORTENTS
280
   127
  9
$INDEXCTL
280
     0
  9
$HIDETEXT
280
     0
  9
$XCLIPFRAME
280
     2
  9
$HALOGAP
280
     0
  9
$OBSCOLOR
 70
   257
  9
$OBSLTYPE
280
     0
  9
$INTERSECTIONDISPLAY
280
     0
  9
$INTERSECTIONCOLOR
 70
   257
  9
$DIMASSOC
280
     1
  9
$PROJECTNAME
  1

  9
$CAMERADISPLAY
290
     0
  9
$LENSLENGTH
 40
50.0
  9
$CAMERAHEIGHT
 40
0.0
  9
$STEPSPERSEC
 40
2.0
  9
$STEPSIZE
 40
6.0
  9
$3DDWFPREC
 40
2.0
  9
$PSOLWIDTH
 40
0.25
  9
$PSOLHEIGHT
 40
4.0
  9
$LOFTANG1
 40
1.570796326794896
  9
$LOFTANG2
 40
1.570796326794896
  9
$LOFTMAG1
 40
0.0
  9
$LOFTMAG2
 40
0.0
  9
$LOFTPARAM
 70
     7
  9
$LOFTNORMALS
280
     1
  9
$LATITUDE
 40
37.795
  9
$LONGITUDE
 40
-122.394
  9
$NORTHDIRECTION
 40
0.0
  9
$TIMEZONE
 70
 -8000
  9
$LIGHTGLYPHDISPLAY
280
     1
  9
$TILEMODELIGHTSYNCH
280
     1
  9
$CMATERIAL
347
10005
  9
$SOLIDHIST
280
     0
  9
$SHOWHIST
280
     1
  9
$DWFFRAME
280
     2
  9
$DGNFRAME
280
     0
  9
$REALWORLDSCALE
290
     1
  9
$INTERFERECOLOR
 62
     1
  9
$INTERFEREOBJVS
345
10027
  9
$INTERFEREVPVS
346
10024
  9
$CSHADOW
280
     0
  9
$SHADOWPLANELOCATION
 40
0.0
  0
ENDSEC
  0
SECTION
  2
CLASSES
  0
CLASS
  1
ACDBDICTIONARYWDFLT
  2
AcDbDictionaryWithDefault
  3
ObjectDBX Classes
 90
        0
 91
        1
280
     0
281
     0
  0
CLASS
  1
MATERIAL
  2
AcDbMaterial
  3
ObjectDBX Classes
 90
     1153
 91
        3
280
     0
281
     0
  0
CLASS
  1
VISUALSTYLE
  2
AcDbVisualStyle
  3
ObjectDBX Classes
 90
     4095
 91
       24
280
     0
281
     0
  0
CLASS
  1
TABLESTYLE
  2
AcDbTableStyle
  3
ObjectDBX Classes
 90
     4095
 91
        1
280
     0
281
     0
  0
CLASS
  1
SCALE
  2
AcDbScale
  3
ObjectDBX Classes
 90
     1153
 91
       17
280
     0
281
     0
  0
CLASS
  1
MLEADERSTYLE
  2
AcDbMLeaderStyle
  3
ACDB_MLEADERSTYLE_CLASS
 90
     4095
 91
        1
280
     0
281
     0
  0
CLASS
  1
ACDBSECTIONVIEWSTYLE
  2
AcDbSectionViewStyle
  3
ObjectDBX Classes
 90
     1025
 91
        1
280
     0
281
     0
  0
CLASS
  1
ACDBDETAILVIEWSTYLE
  2
AcDbDetailViewStyle
  3
ObjectDBX Classes
 90
     1025
 91
        1
280
     0
281
     0
  0
CLASS
  1
SORTENTSTABLE
  2
AcDbSortentsTable
  3
ObjectDBX Classes
 90
        0
 91
        1
280
     0
281
     0
  0
CLASS
  1
DICTIONARYVAR
  2
AcDbDictionaryVar
  3
ObjectDBX Classes
 90
        0
 91
       18
280
     0
281
     0
  0
CLASS
  1
CELLSTYLEMAP
  2
AcDbCellStyleMap
  3
ObjectDBX Classes
 90
     1152
 91
        1
280
     0
281
     0
  0
ENDSEC
  0
SECTION
  2
TABLES
  0
TABLE
  2
VPORT
  5
8
330
0
100
AcDbSymbolTable
 70
     1
1001
ACAD
1000
DbSaveVer
1071
      224
  0
VPORT
  5
10059
330
8
100
AcDbSymbolTableRecord
100
AcDbViewportTableRecord
  2
*Active
 70
     0
 10
0.0
 20
0.0
 11
1.0
 21
1.0
 12
-119.9254981138595
 22
16.74856897167336
 13
0.0
 23
0.0
 14
1.0
 24
1.0
 15
0.0
 25
0.0
 16
0.0
 26
0.0
 36
1.0
 17
0.0
 27
0.0
 37
0.0
 40
403.9594800060575
 41
2.305925030229746
 42
50.0
 43
0.0
 44
0.0
 50
0.0
 51
0.0
 71
     0
 72
  1000
 73
     1
 74
     3
 75
     1
 76
     1
 77
     0
 78
     0
281
     0
 65
     1
110
0.0
120
0.0
130
0.0
111
1.0
121
0.0
131
0.0
112
0.0
122
1.0
132
0.0
 79
     0
146
0.0
348
10023
 60
     3
 61
     5
292
     1
282
     1
141
0.0
142
0.0
 63
   250
421
  3355443
1001
ACAD_NAV_VCDISPLAY
1070
     1
  0
ENDTAB
  0
TABLE
  2
LTYPE
  5
5
330
0
100
AcDbSymbolTable
 70
     2
  0
LTYPE
  5
14
330
5
100
AcDbSymbolTableRecord
100
AcDbLinetypeTableRecord
  2
BYBLOCK
 70
     0
  3

 72
    65
 73
     0
 40
0.0
  0
LTYPE
  5
15
330
5
100
AcDbSymbolTableRecord
100
AcDbLinetypeTableRecord
  2
BYLAYER
 70
     0
  3

 72
    65
 73
     0
 40
0.0
  0
LTYPE
  5
10001
330
5
100
AcDbSymbolTableRecord
100
AcDbLinetypeTableRecord
  2
Continuous
 70
     0
  3
Solid line
 72
    65
 73
     0
 40
0.0
  0
ENDTAB
  0
TABLE
  2
LAYER
  5
2
330
0
100
AcDbSymbolTable
 70
     1
  0
LAYER
  5
50
102
{ACAD_XDICTIONARY
360
10217
102
}
330
2
100
AcDbSymbolTableRecord
100
AcDbLayerTableRecord
  2
0
 70
     0
 62
     7
  6
Continuous
370
    -3
390
10003
347
10015
348
0
  0
ENDTAB
  0
TABLE
  2
STYLE
  5
3
330
0
100
AcDbSymbolTable
 70
     1
  0
STYLE
  5
11
330
3
100
AcDbSymbolTableRecord
100
AcDbTextStyleTableRecord
  2
STANDARD
 70
     0
 40
0.0
 41
1.0
 50
0.0
 71
     0
 42
0.2
  3

  4

  0
ENDTAB
  0
TABLE
  2
VIEW
  5
6
330
0
100
AcDbSymbolTable
 70
     0
  0
ENDTAB
  0
TABLE
  2
UCS
  5
7
330
0
100
AcDbSymbolTable
 70
     0
  0
ENDTAB
  0
TABLE
  2
APPID
  5
9
330
0
100
AcDbSymbolTable
 70
     3
  0
APPID
  5
12
330
9
100
AcDbSymbolTableRecord
100
AcDbRegAppTableRecord
  2
ACAD
 70
     0
  0
APPID
  5
10058
330
9
100
AcDbSymbolTableRecord
100
AcDbRegAppTableRecord
  2
ACAD_NAV_VCDISPLAY
 70
     0
  0
APPID
  5
101F5
330
9
100
AcDbSymbolTableRecord
100
AcDbRegAppTableRecord
  2
ACAD_EXEMPT_FROM_CAD_STANDARDS
 70
     0
  0
ENDTAB
  0
TABLE
  2
DIMSTYLE
  5
A
330
0
100
AcDbSymbolTable
 70
     2
100
AcDbDimStyleTable
 71
     1
340
10053
  0
DIMSTYLE
105
10053
330
A
100
AcDbSymbolTableRecord
100
AcDbDimStyleTableRecord
  2
Standard
 70
     0
340
11
  0
ENDTAB
  0
TABLE
  2
BLOCK_RECORD
  5
1
330
0
100
AcDbSymbolTable
 70
     1
  0
BLOCK_RECORD
  5
1F
102
{ACAD_XDICTIONARY
360
1005B
102
}
330
1
100
AcDbSymbolTableRecord
100
AcDbBlockTableRecord
  2
*MODEL_SPACE
340
10055
 70
     0
280
     1
281
     0
  0
BLOCK_RECORD
  5
1B
330
1
100
AcDbSymbolTableRecord
100
AcDbBlockTableRecord
  2
*PAPER_SPACE
340
10056
 70
     0
280
     1
281
     0
  0
ENDTAB
  0
ENDSEC
  0
SECTION
  2
BLOCKS
  0
BLOCK
  5
20
330
1F
100
AcDbEntity
  8
0
100
AcDbBlockBegin
  2
*MODEL_SPACE
 70
     0
 10
0.0
 20
0.0
 30
0.0
  3
*MODEL_SPACE
  1

  0
ENDBLK
  5
21
330
1F
100
AcDbEntity
  8
0
100
AcDbBlockEnd
  0
BLOCK
  5
1C
330
1B
100
AcDbEntity
 67
     1
  8
0
100
AcDbBlockBegin
  2
*PAPER_SPACE
 70
     0
 10
0.0
 20
0.0
 30
0.0
  3
*PAPER_SPACE
  1

  0
ENDBLK
  5
1D
330
1B
100
AcDbEntity
 67
     1
  8
0
100
AcDbBlockEnd
  0
ENDSEC
  0
SECTION
  2
ENTITIES
  0
LINE
  5
141
330
1F
100
AcDbEntity
  8
0
100
AcDbLine
 10
-155.0
 20
25.0
 30
0.0
 11
-105.0
 21
25.0
 31
0.0
  0
LINE
  5
143
330
1F
100
AcDbEntity
  8
0
100
AcDbLine
 10
-154.9477721623713
 20
56.7392034579177
 30
0.0
 11
-154.9477721623713
 21
85.57890203267005
 31
0.0
  0
LINE
  5
146
330
1F
100
AcDbEntity
  8
0
100
AcDbLine
 10
-105.1675567591975
 20
166.9999992847443
 30
0.0
 11
-155.0
 21
166.9999992847443
 31
0.0
  0
LINE
  5
149
330
1F
100
AcDbEntity
  8
0
100
AcDbLine
 10
-129.4883889557304
 20
152.1377704960343
 30
0.0
 11
-129.4883889557304
 21
160.0
 31
0.0
  0
LINE
  5
150
330
1F
100
AcDbEntity
  8
0
100
AcDbLine
 10
-129.4883889557304
 20
160.0
 30
0.0
 11
-129.4883889557304
 21
177.8132334490152
 31
0.0
  0
LINE
  5
151
330
1F
100
AcDbEntity
  8
0
100
AcDbLine
 10
-129.4883889557304
 20
177.8132334490152
 30
0.0
 11
-129.4883889557304
 21
180.0
 31
0.0
  0
LINE
  5
152
330
1F
100
AcDbEntity
  8
0
100
AcDbLine
 10
-178.2947564953322
 20
-10.0
 30
0.0
 11
-178.2947564953322
 21
-40.0
 31
0.0
  0
LINE
  5
153
330
1F
100
AcDbEntity
  8
0
100
AcDbLine
 10
-178.2947564953322
 20
-40.0
 30
0.0
 11
-200.0
 21
-40.0
 31
0.0
  0
LINE
  5
157
330
1F
100
AcDbEntity
  8
0
100
AcDbLine
 10
-180.0
 20
55.0
 30
0.0
 11
-180.0
 21
85.0
 31
0.0
  0
CIRCLE
  5
159
330
1F
100
AcDbEntity
  8
0
100
AcDbCircle
 10
-191.2167359853034
 20
120.0101326931161
 30
0.0
 40
11.11865125090838
  0
CIRCLE
  5
160
330
1F
100
AcDbEntity
  8
0
100
AcDbCircle
 10
-215.6516124874764
 20
119.9789550111207
 30
0.0
 40
13.31624514183603
  0
LINE
  5
1005D
330
1F
100
AcDbEntity
  8
0
100
AcDbLine
 10
-165.0000001043081
 20
-48.00000071525574
 30
0.0
 11
-165.0000001043081
 21
-44.50000066310167
 31
0.0
  0
LINE
  5
1005E
330
1F
100
AcDbEntity
  8
0
100
AcDbLine
 10
-165.0000001043081
 20
-44.50000066310167
 30
0.0
 11
-170.0000001043081
 21
-44.50000066310167
 31
0.0
  0
LINE
  5
1005F
330
1F
100
AcDbEntity
  8
0
100
AcDbLine
 10
-170.0000001043081
 20
-44.50000066310167
 30
0.0
 11
-170.0000001043081
 21
-39.50000066310167
 31
0.0
  0
LINE
  5
10060
330
1F
100
AcDbEntity
  8
0
100
AcDbLine
 10
-170.0000001043081
 20
-39.50000066310167
 30
0.0
 11
-165.0000001043081
 21
-39.50000066310167
 31
0.0
  0
LINE
  5
10061
330
1F
100
AcDbEntity
  8
0
100
AcDbLine
 10
-165.0000001043081
 20
-39.50000066310167
 30
0.0
 11
-165.0000001043081
 21
-33.00000041723251
 31
0.0
  0
LINE
  5
10062
330
1F
100
AcDbEntity
  8
0
100
AcDbLine
 10
-165.0000001043081
 20
-33.00000041723251
 30
0.0
 11
-170.0000001043081
 21
-33.00000041723251
 31
0.0
  0
LINE
  5
10063
330
1F
100
AcDbEntity
  8
0
100
AcDbLine
 10
-170.0000001043081
 20
-33.00000041723251
 30
0.0
 11
-170.0000001043081
 21
-28.00000041723251
 31
0.0
  0
LINE
  5
10064
330
1F
100
AcDbEntity
  8
0
100
AcDbLine
 10
-170.0000001043081
 20
-28.00000041723251
 30
0.0
 11
-165.0000001043081
 21
-28.00000041723251
 31
0.0
  0
LINE
  5
10065
330
1F
100
AcDbEntity
  8
0
100
AcDbLine
 10
-165.0000001043081
 20
-28.00000041723251
 30
0.0
 11
-165.0000001043081
 21
-2.000000715255731
 31
0.0
  0
LINE
  5
10066
330
1F
100
AcDbEntity
  8
0
100
AcDbLine
 10
-165.0000001043081
 20
-2.000000715255731
 30
0.0
 11
-100.0000001043081
 21
-2.000000715255731
 31
0.0
  0
LINE
  5
10067
330
1F
100
AcDbEntity
  8
0
100
AcDbLine
 10
-100.0000001043081
 20
-2.000000715255731
 30
0.0
 11
-100.0000001043081
 21
-48.00000071525574
 31
0.0
  0
LINE
  5
10068
330
1F
100
AcDbEntity
  8
0
100
AcDbLine
 10
-100.0000001043081
 20
-48.00000071525574
 30
0.0
 11
-165.0000001043081
 21
-48.00000071525574
 31
0.0
  0
LINE
  5
10069
330
1F
100
AcDbEntity
  8
0
100
AcDbLine
 10
0.0
 20
-30.00000044703484
 30
0.0
 11
0.0
 21
-40.00000059604645
 31
0.0
  0
LINE
  5
1006A
330
1F
100
AcDbEntity
  8
0
100
AcDbLine
 10
0.0
 20
-40.00000059604645
 30
0.0
 11
3.0
 21
-40.00000059604645
 31
0.0
  0
LINE
  5
1006B
330
1F
100
AcDbEntity
  8
0
100
AcDbLine
 10
3.0
 20
-40.00000059604645
 30
0.0
 11
3.0
 21
-50.0
 31
0.0
  0
LINE
  5
1006C
330
1F
100
AcDbEntity
  8
0
100
AcDbLine
 10
3.0
 20
-50.0
 30
0.0
 11
-10.00000014901161
 21
-50.0
 31
0.0
  0
LINE
  5
1006D
330
1F
100
AcDbEntity
  8
0
100
AcDbLine
 10
-10.00000014901161
 20
-50.0
 30
0.0
 11
-10.00000014901161
 21
-53.0
 31
0.0
  0
LINE
  5
1006E
330
1F
100
AcDbEntity
  8
0
100
AcDbLine
 10
-10.00000014901161
 20
-53.0
 30
0.0
 11
-20.00000029802323
 21
-53.0
 31
0.0
  0
LINE
  5
1006F
330
1F
100
AcDbEntity
  8
0
100
AcDbLine
 10
-20.00000029802323
 20
-53.0
 30
0.0
 11
-20.00000029802323
 21
-50.0
 31
0.0
  0
LINE
  5
10070
330
1F
100
AcDbEntity
  8
0
100
AcDbLine
 10
-20.00000029802323
 20
-50.0
 30
0.0
 11
-30.00000044703484
 21
-50.0
 31
0.0
  0
LINE
  5
10071
330
1F
100
AcDbEntity
  8
0
100
AcDbLine
 10
-30.00000044703484
 20
-50.0
 30
0.0
 11
-30.00000044703484
 21
-53.0
 31
0.0
  0
LINE
  5
10072
330
1F
100
AcDbEntity
  8
0
100
AcDbLine
 10
-30.00000044703484
 20
-53.0
 30
0.0
 11
-45.00000067055225
 21
-53.0
 31
0.0
  0
LINE
  5
10073
330
1F
100
AcDbEntity
  8
0
100
AcDbLine
 10
-45.00000067055225
 20
-53.0
 30
0.0
 11
-45.00000067055225
 21
-50.0
 31
0.0
  0
LINE
  5
10074
330
1F
100
AcDbEntity
  8
0
100
AcDbLine
 10
-45.00000067055225
 20
-50.0
 30
0.0
 11
-55.00000081956386
 21
-50.0
 31
0.0
  0
LINE
  5
10075
330
1F
100
AcDbEntity
  8
0
100
AcDbLine
 10
-55.00000081956386
 20
-50.0
 30
0.0
 11
-55.00000081956386
 21
-53.0
 31
0.0
  0
LINE
  5
10076
330
1F
100
AcDbEntity
  8
0
100
AcDbLine
 10
-55.00000081956386
 20
-53.0
 30
0.0
 11
-65.00000096857547
 21
-53.0
 31
0.0
  0
LINE
  5
10077
330
1F
100
AcDbEntity
  8
0
100
AcDbLine
 10
-65.00000096857547
 20
-53.0
 30
0.0
 11
-65.00000096857547
 21
-50.0
 31
0.0
  0
LINE
  5
10078
330
1F
100
AcDbEntity
  8
0
100
AcDbLine
 10
-65.00000096857547
 20
-50.0
 30
0.0
 11
-78.0
 21
-50.00000074505805
 31
0.0
  0
LINE
  5
10079
330
1F
100
AcDbEntity
  8
0
100
AcDbLine
 10
-78.0
 20
-50.00000074505805
 30
0.0
 11
-78.0
 21
-40.00000059604645
 31
0.0
  0
LINE
  5
1007A
330
1F
100
AcDbEntity
  8
0
100
AcDbLine
 10
-78.0
 20
-40.00000059604645
 30
0.0
 11
-75.00000000000001
 21
-40.00000059604645
 31
0.0
  0
LINE
  5
1007B
330
1F
100
AcDbEntity
  8
0
100
AcDbLine
 10
-75.00000000000001
 20
-40.00000059604645
 30
0.0
 11
-75.00000000000001
 21
-30.00000044703484
 31
0.0
  0
LINE
  5
1007C
330
1F
100
AcDbEntity
  8
0
100
AcDbLine
 10
-75.00000000000001
 20
-30.00000044703484
 30
0.0
 11
-78.0
 21
-30.00000044703484
 31
0.0
  0
LINE
  5
1007D
330
1F
100
AcDbEntity
  8
0
100
AcDbLine
 10
-78.0
 20
-30.00000044703484
 30
0.0
 11
-78.0
 21
-20.00000029802323
 31
0.0
  0
LINE
  5
1007E
330
1F
100
AcDbEntity
  8
0
100
AcDbLine
 10
-78.0
 20
-20.00000029802323
 30
0.0
 11
-75.00000000000001
 21
-20.00000029802323
 31
0.0
  0
LINE
  5
1007F
330
1F
100
AcDbEntity
  8
0
100
AcDbLine
 10
-75.00000000000001
 20
-20.00000029802323
 30
0.0
 11
-75.00000000000001
 21
-10.00000014901161
 31
0.0
  0
LINE
  5
10080
330
1F
100
AcDbEntity
  8
0
100
AcDbLine
 10
-75.00000000000001
 20
-10.00000014901161
 30
0.0
 11
-78.0
 21
-10.00000014901161
 31
0.0
  0
LINE
  5
10081
330
1F
100
AcDbEntity
  8
0
100
AcDbLine
 10
-78.0
 20
-10.00000014901161
 30
0.0
 11
-78.0
 21
0.0000000000000089
 31
0.0
  0
LINE
  5
10082
330
1F
100
AcDbEntity
  8
0
100
AcDbLine
 10
-78.0
 20
0.0000000000000089
 30
0.0
 11
-65.00000096857547
 21
0.0000000000000089
 31
0.0
  0
LINE
  5
10083
330
1F
100
AcDbEntity
  8
0
100
AcDbLine
 10
-65.00000096857547
 20
0.0000000000000089
 30
0.0
 11
-65.00000096857547
 21
3.000000000000007
 31
0.0
  0
LINE
  5
10084
330
1F
100
AcDbEntity
  8
0
100
AcDbLine
 10
-65.00000096857547
 20
3.000000000000007
 30
0.0
 11
-55.00000081956386
 21
3.000000000000007
 31
0.0
  0
LINE
  5
10085
330
1F
100
AcDbEntity
  8
0
100
AcDbLine
 10
-55.00000081956386
 20
3.000000000000007
 30
0.0
 11
-55.00000081956386
 21
0.0000000000000089
 31
0.0
  0
LINE
  5
10086
330
1F
100
AcDbEntity
  8
0
100
AcDbLine
 10
-55.00000081956386
 20
0.0000000000000089
 30
0.0
 11
-45.00000067055225
 21
0.0000000000000089
 31
0.0
  0
LINE
  5
10087
330
1F
100
AcDbEntity
  8
0
100
AcDbLine
 10
-45.00000067055225
 20
0.0000000000000089
 30
0.0
 11
-45.00000067055225
 21
3.000000000000007
 31
0.0
  0
LINE
  5
10088
330
1F
100
AcDbEntity
  8
0
100
AcDbLine
 10
-45.00000067055225
 20
3.000000000000007
 30
0.0
 11
-30.00000044703484
 21
3.000000000000007
 31
0.0
  0
LINE
  5
10089
330
1F
100
AcDbEntity
  8
0
100
AcDbLine
 10
-30.00000044703484
 20
3.000000000000007
 30
0.0
 11
-30.00000044703484
 21
0.0000000000000089
 31
0.0
  0
LINE
  5
1008A
330
1F
100
AcDbEntity
  8
0
100
AcDbLine
 10
-30.00000044703484
 20
0.0000000000000089
 30
0.0
 11
-20.00000029802323
 21
0.0000000000000089
 31
0.0
  0
LINE
  5
1008B
330
1F
100
AcDbEntity
  8
0
100
AcDbLine
 10
-20.00000029802323
 20
0.0000000000000089
 30
0.0
 11
-20.00000029802323
 21
3.000000000000007
 31
0.0
  0
LINE
  5
1008C
330
1F
100
AcDbEntity
  8
0
100
AcDbLine
 10
-20.00000029802323
 20
3.000000000000007
 30
0.0
 11
-10.00000014901161
 21
3.000000000000007
 31
0.0
  0
LINE
  5
1008D
330
1F
100
AcDbEntity
  8
0
100
AcDbLine
 10
-10.00000014901161
 20
3.000000000000007
 30
0.0
 11
-10.00000014901161
 21
0.0000000000000089
 31
0.0
  0
LINE
  5
1008E
330
1F
100
AcDbEntity
  8
0
100
AcDbLine
 10
-10.00000014901161
 20
0.0000000000000089
 30
0.0
 11
3.0
 21
0.0
 31
0.0
  0
LINE
  5
1008F
330
1F
100
AcDbEntity
  8
0
100
AcDbLine
 10
3.0
 20
0.0
 30
0.0
 11
3.0
 21
-10.00000014901161
 31
0.0
  0
LINE
  5
10090
330
1F
100
AcDbEntity
  8
0
100
AcDbLine
 10
3.0
 20
-10.00000014901161
 30
0.0
 11
0.0
 21
-10.00000014901161
 31
0.0
  0
LINE
  5
10091
330
1F
100
AcDbEntity
  8
0
100
AcDbLine
 10
0.0
 20
-10.00000014901161
 30
0.0
 11
0.0
 21
-20.00000029802323
 31
0.0
  0
LINE
  5
10092
330
1F
100
AcDbEntity
  8
0
100
AcDbLine
 10
0.0
 20
-20.00000029802323
 30
0.0
 11
3.0
 21
-20.00000029802323
 31
0.0
  0
LINE
  5
10093
330
1F
100
AcDbEntity
  8
0
100
AcDbLine
 10
3.0
 20
-20.00000029802323
 30
0.0
 11
3.0
 21
-30.00000044703484
 31
0.0
  0
LINE
  5
10094
330
1F
100
AcDbEntity
  8
0
100
AcDbLine
 10
3.0
 20
-30.00000044703484
 30
0.0
 11
0.0
 21
-30.00000044703484
 31
0.0
  0
LINE
  5
10095
330
1F
100
AcDbEntity
  8
0
100
AcDbLine
 10
-80.00000000000005
 20
-53.0
 30
0.0
 11
-95.00000000000005
 21
-53.0
 31
0.0
  0
LINE
  5
10096
330
1F
100
AcDbEntity
  8
0
100
AcDbLine
 10
-95.00000000000005
 20
-53.0
 30
0.0
 11
-95.00000000000005
 21
-40.00000059604645
 31
0.0
  0
LINE
  5
10097
330
1F
100
AcDbEntity
  8
0
100
AcDbLine
 10
-95.00000000000005
 20
-40.00000059604645
 30
0.0
 11
-98.00000000000004
 21
-40.00000059604645
 31
0.0
  0
LINE
  5
10098
330
1F
100
AcDbEntity
  8
0
100
AcDbLine
 10
-98.00000000000004
 20
-40.00000059604645
 30
0.0
 11
-98.00000000000004
 21
-30.00000044703484
 31
0.0
  0
LINE
  5
10099
330
1F
100
AcDbEntity
  8
0
100
AcDbLine
 10
-98.00000000000004
 20
-30.00000044703484
 30
0.0
 11
-95.00000000000005
 21
-30.00000044703484
 31
0.0
  0
LINE
  5
1009A
330
1F
100
AcDbEntity
  8
0
100
AcDbLine
 10
-95.00000000000005
 20
-30.00000044703484
 30
0.0
 11
-95.00000000000005
 21
-20.00000029802323
 31
0.0
  0
LINE
  5
1009B
330
1F
100
AcDbEntity
  8
0
100
AcDbLine
 10
-95.00000000000005
 20
-20.00000029802323
 30
0.0
 11
-98.00000000000004
 21
-20.00000029802323
 31
0.0
  0
LINE
  5
1009C
330
1F
100
AcDbEntity
  8
0
100
AcDbLine
 10
-98.00000000000004
 20
-20.00000029802323
 30
0.0
 11
-98.00000000000004
 21
-10.00000014901161
 31
0.0
  0
LINE
  5
1009D
330
1F
100
AcDbEntity
  8
0
100
AcDbLine
 10
-98.00000000000004
 20
-10.00000014901161
 30
0.0
 11
-95.00000000000005
 21
-10.00000014901161
 31
0.0
  0
LINE
  5
1009E
330
1F
100
AcDbEntity
  8
0
100
AcDbLine
 10
-95.00000000000005
 20
-10.00000014901161
 30
0.0
 11
-95.00000000000005
 21
3.000000044703484
 31
0.0
  0
LINE
  5
1009F
330
1F
100
AcDbEntity
  8
0
100
AcDbLine
 10
-95.00000000000005
 20
3.000000044703484
 30
0.0
 11
-80.00000000000005
 21
2.999999254941947
 31
0.0
  0
LINE
  5
100A0
330
1F
100
AcDbEntity
  8
0
100
AcDbLine
 10
-80.00000000000005
 20
2.999999254941947
 30
0.0
 11
-80.00000000000005
 21
0.0000000000000089
 31
0.0
  0
LINE
  5
100A1
330
1F
100
AcDbEntity
  8
0
100
AcDbLine
 10
-80.00000000000005
 20
0.0000000000000089
 30
0.0
 11
-83.00000000000002
 21
0.0000000000000089
 31
0.0
  0
LINE
  5
100A2
330
1F
100
AcDbEntity
  8
0
100
AcDbLine
 10
-83.00000000000002
 20
0.0000000000000089
 30
0.0
 11
-83.00000000000002
 21
-10.00000014901161
 31
0.0
  0
LINE
  5
100A3
330
1F
100
AcDbEntity
  8
0
100
AcDbLine
 10
-83.00000000000002
 20
-10.00000014901161
 30
0.0
 11
-80.00000000000005
 21
-10.00000014901161
 31
0.0
  0
LINE
  5
100A4
330
1F
100
AcDbEntity
  8
0
100
AcDbLine
 10
-80.00000000000005
 20
-10.00000014901161
 30
0.0
 11
-79.99999995529655
 21
-20.00000029802323
 31
0.0
  0
LINE
  5
100A5
330
1F
100
AcDbEntity
  8
0
100
AcDbLine
 10
-79.99999995529655
 20
-20.00000029802323
 30
0.0
 11
-83.00000000000002
 21
-20.00000029802323
 31
0.0
  0
LINE
  5
100A6
330
1F
100
AcDbEntity
  8
0
100
AcDbLine
 10
-83.00000000000002
 20
-20.00000029802323
 30
0.0
 11
-83.00000000000002
 21
-30.00000044703484
 31
0.0
  0
LINE
  5
100A7
330
1F
100
AcDbEntity
  8
0
100
AcDbLine
 10
-83.00000000000002
 20
-30.00000044703484
 30
0.0
 11
-79.99999995529655
 21
-30.00000044703484
 31
0.0
  0
LINE
  5
100A8
330
1F
100
AcDbEntity
  8
0
100
AcDbLine
 10
-79.99999995529655
 20
-30.00000044703484
 30
0.0
 11
-79.99999995529655
 21
-40.00000059604645
 31
0.0
  0
LINE
  5
100A9
330
1F
100
AcDbEntity
  8
0
100
AcDbLine
 10
-79.99999995529655
 20
-40.00000059604645
 30
0.0
 11
-83.00000000000002
 21
-40.00000059604645
 31
0.0
  0
LINE
  5
100AA
330
1F
100
AcDbEntity
  8
0
100
AcDbLine
 10
-83.00000000000002
 20
-40.00000059604645
 30
0.0
 11
-83.00000000000002
 21
-50.00000074505805
 31
0.0
  0
LINE
  5
100AB
330
1F
100
AcDbEntity
  8
0
100
AcDbLine
 10
-83.00000000000002
 20
-50.00000074505805
 30
0.0
 11
-80.00000000000005
 21
-50.00000074505805
 31
0.0
  0
LINE
  5
100AC
330
1F
100
AcDbEntity
  8
0
100
AcDbLine
 10
-80.00000000000005
 20
-50.00000074505805
 30
0.0
 11
-80.00000000000005
 21
-53.0
 31
0.0
  0
LINE
  5
100AD
330
1F
100
AcDbEntity
  8
0
100
AcDbLine
 10
-20.00000029802323
 20
-58.00000083446506
 30
0.0
 11
-10.00000014901161
 21
-58.00000083446506
 31
0.0
  0
LINE
  5
100AE
330
1F
100
AcDbEntity
  8
0
100
AcDbLine
 10
-10.00000014901161
 20
-58.00000083446506
 30
0.0
 11
-10.00000014901161
 21
-55.00000083446504
 31
0.0
  0
LINE
  5
100AF
330
1F
100
AcDbEntity
  8
0
100
AcDbLine
 10
-10.00000014901161
 20
-55.00000083446504
 30
0.0
 11
0.0
 21
-55.00000083446504
 31
0.0
  0
LINE
  5
100B0
330
1F
100
AcDbEntity
  8
0
100
AcDbLine
 10
0.0
 20
-55.00000083446504
 30
0.0
 11
0.0
 21
-70.00000083446507
 31
0.0
  0
LINE
  5
100B1
330
1F
100
AcDbEntity
  8
0
100
AcDbLine
 10
0.0
 20
-70.00000083446507
 30
0.0
 11
3.0
 21
-70.00000078976157
 31
0.0
  0
LINE
  5
100B2
330
1F
100
AcDbEntity
  8
0
100
AcDbLine
 10
3.0
 20
-70.00000078976157
 30
0.0
 11
3.0
 21
-73.00000083446507
 31
0.0
  0
LINE
  5
100B3
330
1F
100
AcDbEntity
  8
0
100
AcDbLine
 10
3.0
 20
-73.00000083446507
 30
0.0
 11
-10.00000014901161
 21
-73.00000083446507
 31
0.0
  0
LINE
  5
100B4
330
1F
100
AcDbEntity
  8
0
100
AcDbLine
 10
-10.00000014901161
 20
-73.00000083446507
 30
0.0
 11
-10.00000014901161
 21
-70.00000083446507
 31
0.0
  0
LINE
  5
100B5
330
1F
100
AcDbEntity
  8
0
100
AcDbLine
 10
-10.00000014901161
 20
-70.00000083446507
 30
0.0
 11
-20.00000029802323
 21
-70.00000083446507
 31
0.0
  0
LINE
  5
100B6
330
1F
100
AcDbEntity
  8
0
100
AcDbLine
 10
-20.00000029802323
 20
-70.00000083446507
 30
0.0
 11
-20.00000029802323
 21
-73.00000083446507
 31
0.0
  0
LINE
  5
100B7
330
1F
100
AcDbEntity
  8
0
100
AcDbLine
 10
-20.00000029802323
 20
-73.00000083446507
 30
0.0
 11
-30.00000044703484
 21
-73.00000083446507
 31
0.0
  0
LINE
  5
100B8
330
1F
100
AcDbEntity
  8
0
100
AcDbLine
 10
-30.00000044703484
 20
-73.00000083446507
 30
0.0
 11
-30.00000044703484
 21
-70.00000083446507
 31
0.0
  0
LINE
  5
100B9
330
1F
100
AcDbEntity
  8
0
100
AcDbLine
 10
-30.00000044703484
 20
-70.00000083446507
 30
0.0
 11
-45.00000067055225
 21
-70.00000083446507
 31
0.0
  0
LINE
  5
100BA
330
1F
100
AcDbEntity
  8
0
100
AcDbLine
 10
-45.00000067055225
 20
-70.00000083446507
 30
0.0
 11
-45.00000067055225
 21
-73.00000083446507
 31
0.0
  0
LINE
  5
100BB
330
1F
100
AcDbEntity
  8
0
100
AcDbLine
 10
-45.00000067055225
 20
-73.00000083446507
 30
0.0
 11
-55.00000081956386
 21
-73.00000083446507
 31
0.0
  0
LINE
  5
100BC
330
1F
100
AcDbEntity
  8
0
100
AcDbLine
 10
-55.00000081956386
 20
-73.00000083446507
 30
0.0
 11
-55.00000081956386
 21
-70.00000083446507
 31
0.0
  0
LINE
  5
100BD
330
1F
100
AcDbEntity
  8
0
100
AcDbLine
 10
-55.00000081956386
 20
-70.00000083446507
 30
0.0
 11
-65.00000096857547
 21
-70.00000083446507
 31
0.0
  0
LINE
  5
100BE
330
1F
100
AcDbEntity
  8
0
100
AcDbLine
 10
-65.00000096857547
 20
-70.00000083446507
 30
0.0
 11
-65.00000096857547
 21
-73.00000083446507
 31
0.0
  0
LINE
  5
100BF
330
1F
100
AcDbEntity
  8
0
100
AcDbLine
 10
-65.00000096857547
 20
-73.00000083446507
 30
0.0
 11
-78.0
 21
-73.00000083446507
 31
0.0
  0
LINE
  5
100C0
330
1F
100
AcDbEntity
  8
0
100
AcDbLine
 10
-78.0
 20
-73.00000083446507
 30
0.0
 11
-78.0
 21
-70.00000083446507
 31
0.0
  0
LINE
  5
100C1
330
1F
100
AcDbEntity
  8
0
100
AcDbLine
 10
-78.0
 20
-70.00000083446507
 30
0.0
 11
-75.00000111758708
 21
-70.00000083446507
 31
0.0
  0
LINE
  5
100C2
330
1F
100
AcDbEntity
  8
0
100
AcDbLine
 10
-75.00000111758708
 20
-70.00000083446507
 30
0.0
 11
-74.99999999999999
 21
-55.00000083446504
 31
0.0
  0
LINE
  5
100C3
330
1F
100
AcDbEntity
  8
0
100
AcDbLine
 10
-74.99999999999999
 20
-55.00000083446504
 30
0.0
 11
-65.00000096857547
 21
-55.00000083446504
 31
0.0
  0
LINE
  5
100C4
330
1F
100
AcDbEntity
  8
0
100
AcDbLine
 10
-65.00000096857547
 20
-55.00000083446504
 30
0.0
 11
-65.00000096857547
 21
-58.00000083446506
 31
0.0
  0
LINE
  5
100C5
330
1F
100
AcDbEntity
  8
0
100
AcDbLine
 10
-65.00000096857547
 20
-58.00000083446506
 30
0.0
 11
-55.00000081956386
 21
-58.00000083446506
 31
0.0
  0
LINE
  5
100C6
330
1F
100
AcDbEntity
  8
0
100
AcDbLine
 10
-55.00000081956386
 20
-58.00000083446506
 30
0.0
 11
-55.00000081956386
 21
-55.00000078976157
 31
0.0
  0
LINE
  5
100C7
330
1F
100
AcDbEntity
  8
0
100
AcDbLine
 10
-55.00000081956386
 20
-55.00000078976157
 30
0.0
 11
-45.00000067055225
 21
-55.00000078976157
 31
0.0
  0
LINE
  5
100C8
330
1F
100
AcDbEntity
  8
0
100
AcDbLine
 10
-45.00000067055225
 20
-55.00000078976157
 30
0.0
 11
-45.00000067055225
 21
-58.00000083446506
 31
0.0
  0
LINE
  5
100C9
330
1F
100
AcDbEntity
  8
0
100
AcDbLine
 10
-45.00000067055225
 20
-58.00000083446506
 30
0.0
 11
-30.00000044703484
 21
-58.00000083446506
 31
0.0
  0
LINE
  5
100CA
330
1F
100
AcDbEntity
  8
0
100
AcDbLine
 10
-30.00000044703484
 20
-58.00000083446506
 30
0.0
 11
-30.00000044703484
 21
-55.00000078976157
 31
0.0
  0
LINE
  5
100CB
330
1F
100
AcDbEntity
  8
0
100
AcDbLine
 10
-30.00000044703484
 20
-55.00000078976157
 30
0.0
 11
-20.00000029802323
 21
-55.00000078976157
 31
0.0
  0
LINE
  5
100CC
330
1F
100
AcDbEntity
  8
0
100
AcDbLine
 10
-20.00000029802323
 20
-55.00000078976157
 30
0.0
 11
-20.00000029802323
 21
-58.00000083446506
 31
0.0
  0
LINE
  5
100CD
330
1F
100
AcDbEntity
  8
0
100
AcDbLine
 10
10.0
 20
-20.0
 30
0.0
 11
14.0
 21
-20.0
 31
0.0
  0
LINE
  5
100CE
330
1F
100
AcDbEntity
  8
0
100
AcDbLine
 10
14.0
 20
-20.0
 30
0.0
 11
14.0
 21
-11.0
 31
0.0
  0
LINE
  5
100CF
330
1F
100
AcDbEntity
  8
0
100
AcDbLine
 10
14.0
 20
-11.0
 30
0.0
 11
10.0
 21
-11.0
 31
0.0
  0
LINE
  5
100D0
330
1F
100
AcDbEntity
  8
0
100
AcDbLine
 10
10.0
 20
-11.0
 30
0.0
 11
10.0
 21
-20.0
 31
0.0
  0
LINE
  5
100D1
330
1F
100
AcDbEntity
  8
0
100
AcDbLine
 10
20.0
 20
-53.0
 30
0.0
 11
5.000000000000001
 21
-53.0
 31
0.0
  0
LINE
  5
100D2
330
1F
100
AcDbEntity
  8
0
100
AcDbLine
 10
5.000000000000001
 20
-53.0
 30
0.0
 11
5.000000000000001
 21
-50.00000074505805
 31
0.0
  0
LINE
  5
100D3
330
1F
100
AcDbEntity
  8
0
100
AcDbLine
 10
5.000000000000001
 20
-50.00000074505805
 30
0.0
 11
8.000000000000003
 21
-50.00000074505805
 31
0.0
  0
LINE
  5
100D4
330
1F
100
AcDbEntity
  8
0
100
AcDbLine
 10
8.000000000000003
 20
-50.00000074505805
 30
0.0
 11
8.000000000000003
 21
-40.00000059604645
 31
0.0
  0
LINE
  5
100D5
330
1F
100
AcDbEntity
  8
0
100
AcDbLine
 10
8.000000000000003
 20
-40.00000059604645
 30
0.0
 11
4.999999955296519
 21
-40.00000059604645
 31
0.0
  0
LINE
  5
100D6
330
1F
100
AcDbEntity
  8
0
100
AcDbLine
 10
4.999999955296519
 20
-40.00000059604645
 30
0.0
 11
4.999999955296519
 21
-30.00000044703484
 31
0.0
  0
LINE
  5
100D7
330
1F
100
AcDbEntity
  8
0
100
AcDbLine
 10
4.999999955296519
 20
-30.00000044703484
 30
0.0
 11
8.000000000000003
 21
-30.00000044703484
 31
0.0
  0
LINE
  5
100D8
330
1F
100
AcDbEntity
  8
0
100
AcDbLine
 10
8.000000000000003
 20
-30.00000044703484
 30
0.0
 11
8.000000000000003
 21
-20.00000029802323
 31
0.0
  0
LINE
  5
100D9
330
1F
100
AcDbEntity
  8
0
100
AcDbLine
 10
8.000000000000003
 20
-20.00000029802323
 30
0.0
 11
4.999999955296519
 21
-20.00000029802323
 31
0.0
  0
LINE
  5
100DA
330
1F
100
AcDbEntity
  8
0
100
AcDbLine
 10
4.999999955296519
 20
-20.00000029802323
 30
0.0
 11
5.000000000000001
 21
-10.00000014901161
 31
0.0
  0
LINE
  5
100DB
330
1F
100
AcDbEntity
  8
0
100
AcDbLine
 10
5.000000000000001
 20
-10.00000014901161
 30
0.0
 11
8.000000000000003
 21
-10.00000014901161
 31
0.0
  0
LINE
  5
100DC
330
1F
100
AcDbEntity
  8
0
100
AcDbLine
 10
8.000000000000003
 20
-10.00000014901161
 30
0.0
 11
8.000000000000003
 21
0.0000000000000089
 31
0.0
  0
LINE
  5
100DD
330
1F
100
AcDbEntity
  8
0
100
AcDbLine
 10
8.000000000000003
 20
0.0000000000000089
 30
0.0
 11
5.000000000000001
 21
0.0000000000000089
 31
0.0
  0
LINE
  5
100DE
330
1F
100
AcDbEntity
  8
0
100
AcDbLine
 10
5.000000000000001
 20
0.0000000000000089
 30
0.0
 11
5.000000000000001
 21
2.999999254941947
 31
0.0
  0
LINE
  5
100DF
330
1F
100
AcDbEntity
  8
0
100
AcDbLine
 10
5.000000000000001
 20
2.999999254941947
 30
0.0
 11
20.0
 21
3.000000044703484
 31
0.0
  0
LINE
  5
100E0
330
1F
100
AcDbEntity
  8
0
100
AcDbLine
 10
20.0
 20
3.000000044703484
 30
0.0
 11
20.0
 21
-10.00000014901161
 31
0.0
  0
LINE
  5
100E1
330
1F
100
AcDbEntity
  8
0
100
AcDbLine
 10
20.0
 20
-10.00000014901161
 30
0.0
 11
23.0
 21
-10.00000014901161
 31
0.0
  0
LINE
  5
100E2
330
1F
100
AcDbEntity
  8
0
100
AcDbLine
 10
23.0
 20
-10.00000014901161
 30
0.0
 11
23.0
 21
-20.00000029802323
 31
0.0
  0
LINE
  5
100E3
330
1F
100
AcDbEntity
  8
0
100
AcDbLine
 10
23.0
 20
-20.00000029802323
 30
0.0
 11
19.99999995529652
 21
-20.00000029802323
 31
0.0
  0
LINE
  5
100E4
330
1F
100
AcDbEntity
  8
0
100
AcDbLine
 10
19.99999995529652
 20
-20.00000029802323
 30
0.0
 11
19.99999995529652
 21
-30.00000044703484
 31
0.0
  0
LINE
  5
100E5
330
1F
100
AcDbEntity
  8
0
100
AcDbLine
 10
19.99999995529652
 20
-30.00000044703484
 30
0.0
 11
23.0
 21
-30.00000044703484
 31
0.0
  0
LINE
  5
100E6
330
1F
100
AcDbEntity
  8
0
100
AcDbLine
 10
23.0
 20
-30.00000044703484
 30
0.0
 11
23.0
 21
-40.00000059604645
 31
0.0
  0
LINE
  5
100E7
330
1F
100
AcDbEntity
  8
0
100
AcDbLine
 10
23.0
 20
-40.00000059604645
 30
0.0
 11
19.99999995529652
 21
-40.00000059604645
 31
0.0
  0
LINE
  5
100E8
330
1F
100
AcDbEntity
  8
0
100
AcDbLine
 10
19.99999995529652
 20
-40.00000059604645
 30
0.0
 11
20.0
 21
-53.0
 31
0.0
  0
LINE
  5
100E9
330
1F
100
AcDbEntity
  8
0
100
AcDbLine
 10
14.0
 20
-10.0
 30
0.0
 11
14.0
 21
-2.0
 31
0.0
  0
LINE
  5
100EA
330
1F
100
AcDbEntity
  8
0
100
AcDbLine
 10
14.0
 20
-2.0
 30
0.0
 11
10.0
 21
-2.0
 31
0.0
  0
LINE
  5
100EB
330
1F
100
AcDbEntity
  8
0
100
AcDbLine
 10
10.0
 20
-2.0
 30
0.0
 11
10.0
 21
-10.0
 31
0.0
  0
LINE
  5
100EC
330
1F
100
AcDbEntity
  8
0
100
AcDbLine
 10
10.0
 20
-10.0
 30
0.0
 11
14.0
 21
-10.0
 31
0.0
  0
LINE
  5
100ED
330
1F
100
AcDbEntity
  8
0
100
AcDbLine
 10
-55.00000081956386
 20
8.000000000000008
 30
0.0
 11
-65.00000096857547
 21
8.000000000000008
 31
0.0
  0
LINE
  5
100EE
330
1F
100
AcDbEntity
  8
0
100
AcDbLine
 10
-65.00000096857547
 20
8.000000000000008
 30
0.0
 11
-65.00000096857547
 21
5.000000000000008
 31
0.0
  0
LINE
  5
100EF
330
1F
100
AcDbEntity
  8
0
100
AcDbLine
 10
-65.00000096857547
 20
5.000000000000008
 30
0.0
 11
-74.99999999999999
 21
5.000000000000008
 31
0.0
  0
LINE
  5
100F0
330
1F
100
AcDbEntity
  8
0
100
AcDbLine
 10
-74.99999999999999
 20
5.000000000000008
 30
0.0
 11
-75.00000111758708
 21
20.00000000000001
 31
0.0
  0
LINE
  5
100F1
330
1F
100
AcDbEntity
  8
0
100
AcDbLine
 10
-75.00000111758708
 20
20.00000000000001
 30
0.0
 11
-78.0
 21
20.00000000000001
 31
0.0
  0
LINE
  5
100F2
330
1F
100
AcDbEntity
  8
0
100
AcDbLine
 10
-78.0
 20
20.00000000000001
 30
0.0
 11
-78.0
 21
23.00000000000001
 31
0.0
  0
LINE
  5
100F3
330
1F
100
AcDbEntity
  8
0
100
AcDbLine
 10
-78.0
 20
23.00000000000001
 30
0.0
 11
-65.00000096857547
 21
23.00000000000001
 31
0.0
  0
LINE
  5
100F4
330
1F
100
AcDbEntity
  8
0
100
AcDbLine
 10
-65.00000096857547
 20
23.00000000000001
 30
0.0
 11
-65.00000096857547
 21
20.00000000000001
 31
0.0
  0
LINE
  5
100F5
330
1F
100
AcDbEntity
  8
0
100
AcDbLine
 10
-65.00000096857547
 20
20.00000000000001
 30
0.0
 11
-55.00000081956386
 21
20.00000000000001
 31
0.0
  0
LINE
  5
100F6
330
1F
100
AcDbEntity
  8
0
100
AcDbLine
 10
-55.00000081956386
 20
20.00000000000001
 30
0.0
 11
-55.00000081956386
 21
23.00000000000001
 31
0.0
  0
LINE
  5
100F7
330
1F
100
AcDbEntity
  8
0
100
AcDbLine
 10
-55.00000081956386
 20
23.00000000000001
 30
0.0
 11
-45.00000067055225
 21
23.00000000000001
 31
0.0
  0
LINE
  5
100F8
330
1F
100
AcDbEntity
  8
0
100
AcDbLine
 10
-45.00000067055225
 20
23.00000000000001
 30
0.0
 11
-45.00000067055225
 21
20.00000000000001
 31
0.0
  0
LINE
  5
100F9
330
1F
100
AcDbEntity
  8
0
100
AcDbLine
 10
-45.00000067055225
 20
20.00000000000001
 30
0.0
 11
-30.00000044703484
 21
20.00000000000001
 31
0.0
  0
LINE
  5
100FA
330
1F
100
AcDbEntity
  8
0
100
AcDbLine
 10
-30.00000044703484
 20
20.00000000000001
 30
0.0
 11
-30.00000044703484
 21
23.00000000000001
 31
0.0
  0
LINE
  5
100FB
330
1F
100
AcDbEntity
  8
0
100
AcDbLine
 10
-30.00000044703484
 20
23.00000000000001
 30
0.0
 11
-20.00000029802323
 21
23.00000000000001
 31
0.0
  0
LINE
  5
100FC
330
1F
100
AcDbEntity
  8
0
100
AcDbLine
 10
-20.00000029802323
 20
23.00000000000001
 30
0.0
 11
-20.00000029802323
 21
20.00000000000001
 31
0.0
  0
LINE
  5
100FD
330
1F
100
AcDbEntity
  8
0
100
AcDbLine
 10
-20.00000029802323
 20
20.00000000000001
 30
0.0
 11
-10.00000014901161
 21
20.00000000000001
 31
0.0
  0
LINE
  5
100FE
330
1F
100
AcDbEntity
  8
0
100
AcDbLine
 10
-10.00000014901161
 20
20.00000000000001
 30
0.0
 11
-10.00000014901161
 21
23.00000000000001
 31
0.0
  0
LINE
  5
100FF
330
1F
100
AcDbEntity
  8
0
100
AcDbLine
 10
-10.00000014901161
 20
23.00000000000001
 30
0.0
 11
3.0
 21
23.00000000000001
 31
0.0
  0
LINE
  5
10100
330
1F
100
AcDbEntity
  8
0
100
AcDbLine
 10
3.0
 20
23.00000000000001
 30
0.0
 11
3.0
 21
20.00000000000001
 31
0.0
  0
LINE
  5
10101
330
1F
100
AcDbEntity
  8
0
100
AcDbLine
 10
3.0
 20
20.00000000000001
 30
0.0
 11
0.0
 21
20.00000000000001
 31
0.0
  0
LINE
  5
10102
330
1F
100
AcDbEntity
  8
0
100
AcDbLine
 10
0.0
 20
20.00000000000001
 30
0.0
 11
0.0
 21
5.000000000000008
 31
0.0
  0
LINE
  5
10103
330
1F
100
AcDbEntity
  8
0
100
AcDbLine
 10
0.0
 20
5.000000000000008
 30
0.0
 11
-10.00000014901161
 21
5.000000000000008
 31
0.0
  0
LINE
  5
10104
330
1F
100
AcDbEntity
  8
0
100
AcDbLine
 10
-10.00000014901161
 20
5.000000000000008
 30
0.0
 11
-10.00000014901161
 21
8.000000000000008
 31
0.0
  0
LINE
  5
10105
330
1F
100
AcDbEntity
  8
0
100
AcDbLine
 10
-10.00000014901161
 20
8.000000000000008
 30
0.0
 11
-20.00000029802323
 21
8.000000000000008
 31
0.0
  0
LINE
  5
10106
330
1F
100
AcDbEntity
  8
0
100
AcDbLine
 10
-20.00000029802323
 20
8.000000000000008
 30
0.0
 11
-20.00000029802323
 21
4.999999955296524
 31
0.0
  0
LINE
  5
10107
330
1F
100
AcDbEntity
  8
0
100
AcDbLine
 10
-20.00000029802323
 20
4.999999955296524
 30
0.0
 11
-30.00000044703484
 21
4.999999955296524
 31
0.0
  0
LINE
  5
10108
330
1F
100
AcDbEntity
  8
0
100
AcDbLine
 10
-30.00000044703484
 20
4.999999955296524
 30
0.0
 11
-30.00000044703484
 21
8.000000000000008
 31
0.0
  0
LINE
  5
10109
330
1F
100
AcDbEntity
  8
0
100
AcDbLine
 10
-30.00000044703484
 20
8.000000000000008
 30
0.0
 11
-45.00000067055225
 21
8.000000000000008
 31
0.0
  0
LINE
  5
1010A
330
1F
100
AcDbEntity
  8
0
100
AcDbLine
 10
-45.00000067055225
 20
8.000000000000008
 30
0.0
 11
-45.00000067055225
 21
4.999999955296524
 31
0.0
  0
LINE
  5
1010B
330
1F
100
AcDbEntity
  8
0
100
AcDbLine
 10
-45.00000067055225
 20
4.999999955296524
 30
0.0
 11
-55.00000081956386
 21
4.999999955296524
 31
0.0
  0
LINE
  5
1010C
330
1F
100
AcDbEntity
  8
0
100
AcDbLine
 10
-55.00000081956386
 20
4.999999955296524
 30
0.0
 11
-55.00000081956386
 21
8.000000000000008
 31
0.0
  0
LINE
  5
1010D
330
1F
100
AcDbEntity
  8
0
100
AcDbLine
 10
-67.49999855831266
 20
72.90000011399389
 30
0.0
 11
-67.49999855831266
 21
67.90000011399389
 31
0.0
  0
LINE
  5
1010E
330
1F
100
AcDbEntity
  8
0
100
AcDbLine
 10
-67.49999855831266
 20
67.90000011399389
 30
0.0
 11
-64.49999855831265
 21
67.90000011399389
 31
0.0
  0
LINE
  5
1010F
330
1F
100
AcDbEntity
  8
0
100
AcDbLine
 10
-64.49999855831265
 20
67.90000011399389
 30
0.0
 11
-64.49999855831265
 21
72.90000011399389
 31
0.0
  0
LINE
  5
10110
330
1F
100
AcDbEntity
  8
0
100
AcDbLine
 10
-64.49999855831265
 20
72.90000011399389
 30
0.0
 11
-67.49999855831266
 21
72.90000011399389
 31
0.0
  0
LINE
  5
10111
330
1F
100
AcDbEntity
  8
0
100
AcDbLine
 10
-67.49999855831266
 20
61.30000037327409
 30
0.0
 11
-67.49999855831266
 21
56.30000037327409
 31
0.0
  0
LINE
  5
10112
330
1F
100
AcDbEntity
  8
0
100
AcDbLine
 10
-67.49999855831266
 20
56.30000037327409
 30
0.0
 11
-64.49999855831265
 21
56.30000037327409
 31
0.0
  0
LINE
  5
10113
330
1F
100
AcDbEntity
  8
0
100
AcDbLine
 10
-64.49999855831265
 20
56.30000037327409
 30
0.0
 11
-64.49999855831265
 21
61.30000037327409
 31
0.0
  0
LINE
  5
10114
330
1F
100
AcDbEntity
  8
0
100
AcDbLine
 10
-64.49999855831265
 20
61.30000037327409
 30
0.0
 11
-67.49999855831266
 21
61.30000037327409
 31
0.0
  0
LINE
  5
10115
330
1F
100
AcDbEntity
  8
0
100
AcDbLine
 10
-61.0999987013638
 20
70.40000016987324
 30
0.0
 11
-61.0999987013638
 21
65.40000016987324
 31
0.0
  0
LINE
  5
10116
330
1F
100
AcDbEntity
  8
0
100
AcDbLine
 10
-61.0999987013638
 20
65.40000016987324
 30
0.0
 11
-58.0999987013638
 21
65.40000016987324
 31
0.0
  0
LINE
  5
10117
330
1F
100
AcDbEntity
  8
0
100
AcDbLine
 10
-58.0999987013638
 20
65.40000016987324
 30
0.0
 11
-58.0999987013638
 21
70.40000016987324
 31
0.0
  0
LINE
  5
10118
330
1F
100
AcDbEntity
  8
0
100
AcDbLine
 10
-58.0999987013638
 20
70.40000016987324
 30
0.0
 11
-61.0999987013638
 21
70.40000016987324
 31
0.0
  0
LINE
  5
10119
330
1F
100
AcDbEntity
  8
0
100
AcDbLine
 10
-61.0999987013638
 20
58.90000053867698
 30
0.0
 11
-61.0999987013638
 21
53.90000053867698
 31
0.0
  0
LINE
  5
1011A
330
1F
100
AcDbEntity
  8
0
100
AcDbLine
 10
-61.0999987013638
 20
53.90000053867698
 30
0.0
 11
-58.0999987013638
 21
53.90000053867698
 31
0.0
  0
LINE
  5
1011B
330
1F
100
AcDbEntity
  8
0
100
AcDbLine
 10
-58.0999987013638
 20
53.90000053867698
 30
0.0
 11
-58.0999987013638
 21
58.90000053867698
 31
0.0
  0
LINE
  5
1011C
330
1F
100
AcDbEntity
  8
0
100
AcDbLine
 10
-58.0999987013638
 20
58.90000053867698
 30
0.0
 11
-61.0999987013638
 21
58.90000053867698
 31
0.0
  0
LINE
  5
1011D
330
1F
100
AcDbEntity
  8
0
100
AcDbLine
 10
-48.2999989874661
 20
53.80000065267086
 30
0.0
 11
-48.2999989874661
 21
48.80000065267086
 31
0.0
  0
LINE
  5
1011E
330
1F
100
AcDbEntity
  8
0
100
AcDbLine
 10
-48.2999989874661
 20
48.80000065267086
 30
0.0
 11
-45.29999898746609
 21
48.80000065267086
 31
0.0
  0
LINE
  5
1011F
330
1F
100
AcDbEntity
  8
0
100
AcDbLine
 10
-45.29999898746609
 20
48.80000065267086
 30
0.0
 11
-45.29999898746609
 21
53.80000065267086
 31
0.0
  0
LINE
  5
10120
330
1F
100
AcDbEntity
  8
0
100
AcDbLine
 10
-45.29999898746609
 20
53.80000065267086
 30
0.0
 11
-48.2999989874661
 21
53.80000065267086
 31
0.0
  0
LINE
  5
10121
330
1F
100
AcDbEntity
  8
0
100
AcDbLine
 10
-35.59999927133322
 20
48.70000076666475
 30
0.0
 11
-35.59999927133322
 21
43.70000076666474
 31
0.0
  0
LINE
  5
10122
330
1F
100
AcDbEntity
  8
0
100
AcDbLine
 10
-35.59999927133322
 20
43.70000076666474
 30
0.0
 11
-32.59999927133321
 21
43.70000076666474
 31
0.0
  0
LINE
  5
10123
330
1F
100
AcDbEntity
  8
0
100
AcDbLine
 10
-32.59999927133321
 20
43.70000076666474
 30
0.0
 11
-32.59999927133321
 21
48.70000076666475
 31
0.0
  0
LINE
  5
10124
330
1F
100
AcDbEntity
  8
0
100
AcDbLine
 10
-32.59999927133321
 20
48.70000076666475
 30
0.0
 11
-35.59999927133322
 21
48.70000076666475
 31
0.0
  0
LINE
  5
10125
330
1F
100
AcDbEntity
  8
0
100
AcDbLine
 10
-41.99999912828206
 20
51.30000070855022
 30
0.0
 11
-41.99999912828206
 21
46.30000070855021
 31
0.0
  0
LINE
  5
10126
330
1F
100
AcDbEntity
  8
0
100
AcDbLine
 10
-41.99999912828206
 20
46.30000070855021
 30
0.0
 11
-38.99999912828207
 21
46.30000070855021
 31
0.0
  0
LINE
  5
10127
330
1F
100
AcDbEntity
  8
0
100
AcDbLine
 10
-38.99999912828207
 20
46.30000070855021
 30
0.0
 11
-38.99999912828207
 21
51.30000070855022
 31
0.0
  0
LINE
  5
10128
330
1F
100
AcDbEntity
  8
0
100
AcDbLine
 10
-38.99999912828207
 20
51.30000070855022
 30
0.0
 11
-41.99999912828206
 21
51.30000070855022
 31
0.0
  0
LINE
  5
10129
330
1F
100
AcDbEntity
  8
0
100
AcDbLine
 10
-54.69999884441495
 20
56.40000059455633
 30
0.0
 11
-54.69999884441495
 21
51.40000059455633
 31
0.0
  0
LINE
  5
1012A
330
1F
100
AcDbEntity
  8
0
100
AcDbLine
 10
-54.69999884441495
 20
51.40000059455633
 30
0.0
 11
-51.69999884441494
 21
51.40000059455633
 31
0.0
  0
LINE
  5
1012B
330
1F
100
AcDbEntity
  8
0
100
AcDbLine
 10
-51.69999884441494
 20
51.40000059455633
 30
0.0
 11
-51.69999884441494
 21
56.40000059455633
 31
0.0
  0
LINE
  5
1012C
330
1F
100
AcDbEntity
  8
0
100
AcDbLine
 10
-51.69999884441494
 20
56.40000059455633
 30
0.0
 11
-54.69999884441495
 21
56.40000059455633
 31
0.0
  0
LINE
  5
1012D
330
1F
100
AcDbEntity
  8
0
100
AcDbLine
 10
-48.2999989874661
 20
65.2000002861023
 30
0.0
 11
-48.2999989874661
 21
60.2000002861023
 31
0.0
  0
LINE
  5
1012E
330
1F
100
AcDbEntity
  8
0
100
AcDbLine
 10
-48.2999989874661
 20
60.2000002861023
 30
0.0
 11
-45.29999898746609
 21
60.2000002861023
 31
0.0
  0
LINE
  5
1012F
330
1F
100
AcDbEntity
  8
0
100
AcDbLine
 10
-45.29999898746609
 20
60.2000002861023
 30
0.0
 11
-45.29999898746609
 21
65.2000002861023
 31
0.0
  0
LINE
  5
10130
330
1F
100
AcDbEntity
  8
0
100
AcDbLine
 10
-45.29999898746609
 20
65.2000002861023
 30
0.0
 11
-48.2999989874661
 21
65.2000002861023
 31
0.0
  0
LINE
  5
10131
330
1F
100
AcDbEntity
  8
0
100
AcDbLine
 10
-35.59999927133322
 20
60.10000040009618
 30
0.0
 11
-35.59999927133322
 21
55.10000040009618
 31
0.0
  0
LINE
  5
10132
330
1F
100
AcDbEntity
  8
0
100
AcDbLine
 10
-35.59999927133322
 20
55.10000040009618
 30
0.0
 11
-32.59999927133321
 21
55.10000040009618
 31
0.0
  0
LINE
  5
10133
330
1F
100
AcDbEntity
  8
0
100
AcDbLine
 10
-32.59999927133321
 20
55.10000040009618
 30
0.0
 11
-32.59999927133321
 21
60.10000040009618
 31
0.0
  0
LINE
  5
10134
330
1F
100
AcDbEntity
  8
0
100
AcDbLine
 10
-32.59999927133321
 20
60.10000040009618
 30
0.0
 11
-35.59999927133322
 21
60.10000040009618
 31
0.0
  0
LINE
  5
10135
330
1F
100
AcDbEntity
  8
0
100
AcDbLine
 10
-41.99999912828206
 20
62.70000034198165
 30
0.0
 11
-41.99999912828206
 21
57.70000034198165
 31
0.0
  0
LINE
  5
10136
330
1F
100
AcDbEntity
  8
0
100
AcDbLine
 10
-41.99999912828206
 20
57.70000034198165
 30
0.0
 11
-38.99999912828207
 21
57.70000034198165
 31
0.0
  0
LINE
  5
10137
330
1F
100
AcDbEntity
  8
0
100
AcDbLine
 10
-38.99999912828207
 20
57.70000034198165
 30
0.0
 11
-38.99999912828207
 21
62.70000034198165
 31
0.0
  0
LINE
  5
10138
330
1F
100
AcDbEntity
  8
0
100
AcDbLine
 10
-38.99999912828207
 20
62.70000034198165
 30
0.0
 11
-41.99999912828206
 21
62.70000034198165
 31
0.0
  0
LINE
  5
10139
330
1F
100
AcDbEntity
  8
0
100
AcDbLine
 10
-54.69999884441495
 20
67.80000022798778
 30
0.0
 11
-54.69999884441495
 21
62.80000022798777
 31
0.0
  0
LINE
  5
1013A
330
1F
100
AcDbEntity
  8
0
100
AcDbLine
 10
-54.69999884441495
 20
62.80000022798777
 30
0.0
 11
-51.69999884441494
 21
62.80000022798777
 31
0.0
  0
LINE
  5
1013B
330
1F
100
AcDbEntity
  8
0
100
AcDbLine
 10
-51.69999884441494
 20
62.80000022798777
 30
0.0
 11
-51.69999884441494
 21
67.80000022798778
 31
0.0
  0
LINE
  5
1013C
330
1F
100
AcDbEntity
  8
0
100
AcDbLine
 10
-51.69999884441494
 20
67.80000022798778
 30
0.0
 11
-54.69999884441495
 21
67.80000022798778
 31
0.0
  0
LINE
  5
1013D
330
1F
100
AcDbEntity
  8
0
100
AcDbLine
 10
-22.79999955743551
 20
43.60000088065863
 30
0.0
 11
-22.79999955743551
 21
38.60000088065863
 31
0.0
  0
LINE
  5
1013E
330
1F
100
AcDbEntity
  8
0
100
AcDbLine
 10
-22.79999955743551
 20
38.60000088065863
 30
0.0
 11
-19.79999955743551
 21
38.60000088065863
 31
0.0
  0
LINE
  5
1013F
330
1F
100
AcDbEntity
  8
0
100
AcDbLine
 10
-19.79999955743551
 20
38.60000088065863
 30
0.0
 11
-19.79999955743551
 21
43.60000088065863
 31
0.0
  0
LINE
  5
10140
330
1F
100
AcDbEntity
  8
0
100
AcDbLine
 10
-19.79999955743551
 20
43.60000088065863
 30
0.0
 11
-22.79999955743551
 21
43.60000088065863
 31
0.0
  0
LINE
  5
10141
330
1F
100
AcDbEntity
  8
0
100
AcDbLine
 10
-29.19999941438437
 20
46.10000082477927
 30
0.0
 11
-29.19999941438437
 21
41.10000082477927
 31
0.0
  0
LINE
  5
10142
330
1F
100
AcDbEntity
  8
0
100
AcDbLine
 10
-29.19999941438437
 20
41.10000082477927
 30
0.0
 11
-26.19999941438436
 21
41.10000082477927
 31
0.0
  0
LINE
  5
10143
330
1F
100
AcDbEntity
  8
0
100
AcDbLine
 10
-26.19999941438436
 20
41.10000082477927
 30
0.0
 11
-26.19999941438436
 21
46.10000082477927
 31
0.0
  0
LINE
  5
10144
330
1F
100
AcDbEntity
  8
0
100
AcDbLine
 10
-26.19999941438436
 20
46.10000082477927
 30
0.0
 11
-29.19999941438437
 21
46.10000082477927
 31
0.0
  0
LINE
  5
10145
330
1F
100
AcDbEntity
  8
0
100
AcDbLine
 10
-22.79999955743551
 20
54.99999965727329
 30
0.0
 11
-22.79999955743551
 21
50.00000051409006
 31
0.0
  0
LINE
  5
10146
330
1F
100
AcDbEntity
  8
0
100
AcDbLine
 10
-22.79999955743551
 20
50.00000051409006
 30
0.0
 11
-19.79999955743551
 21
50.00000051409006
 31
0.0
  0
LINE
  5
10147
330
1F
100
AcDbEntity
  8
0
100
AcDbLine
 10
-19.79999955743551
 20
50.00000051409006
 30
0.0
 11
-19.79999955743551
 21
54.99999965727329
 31
0.0
  0
LINE
  5
10148
330
1F
100
AcDbEntity
  8
0
100
AcDbLine
 10
-19.79999955743551
 20
54.99999965727329
 30
0.0
 11
-22.79999955743551
 21
54.99999965727329
 31
0.0
  0
LINE
  5
10149
330
1F
100
AcDbEntity
  8
0
100
AcDbLine
 10
-29.19999941438437
 20
57.50000045821071
 30
0.0
 11
-29.19999941438437
 21
52.50000045821071
 31
0.0
  0
LINE
  5
1014A
330
1F
100
AcDbEntity
  8
0
100
AcDbLine
 10
-29.19999941438437
 20
52.50000045821071
 30
0.0
 11
-26.19999941438436
 21
52.50000045821071
 31
0.0
  0
LINE
  5
1014B
330
1F
100
AcDbEntity
  8
0
100
AcDbLine
 10
-26.19999941438436
 20
52.50000045821071
 30
0.0
 11
-26.19999941438436
 21
57.50000045821071
 31
0.0
  0
LINE
  5
1014C
330
1F
100
AcDbEntity
  8
0
100
AcDbLine
 10
-26.19999941438436
 20
57.50000045821071
 30
0.0
 11
-29.19999941438437
 21
57.50000045821071
 31
0.0
  0
LINE
  5
1014D
330
1F
100
AcDbEntity
  8
0
100
AcDbLine
 10
-10.00000014901161
 20
38.49999933689833
 30
0.0
 11
-10.00000014901161
 21
33.49999933689833
 31
0.0
  0
LINE
  5
1014E
330
1F
100
AcDbEntity
  8
0
100
AcDbLine
 10
-10.00000014901161
 20
33.49999933689833
 30
0.0
 11
-7.000000104308128
 21
33.49999933689833
 31
0.0
  0
LINE
  5
1014F
330
1F
100
AcDbEntity
  8
0
100
AcDbLine
 10
-7.000000104308128
 20
33.49999933689833
 30
0.0
 11
-7.000000104308128
 21
38.49999933689833
 31
0.0
  0
LINE
  5
10150
330
1F
100
AcDbEntity
  8
0
100
AcDbLine
 10
-7.000000104308128
 20
38.49999933689833
 30
0.0
 11
-10.00000014901161
 21
38.49999933689833
 31
0.0
  0
LINE
  5
10151
330
1F
100
AcDbEntity
  8
0
100
AcDbLine
 10
-16.39999970048666
 20
41.00000093877315
 30
0.0
 11
-16.39999970048666
 21
36.00000093877316
 31
0.0
  0
LINE
  5
10152
330
1F
100
AcDbEntity
  8
0
100
AcDbLine
 10
-16.39999970048666
 20
36.00000093877316
 30
0.0
 11
-13.39999970048666
 21
36.00000093877316
 31
0.0
  0
LINE
  5
10153
330
1F
100
AcDbEntity
  8
0
100
AcDbLine
 10
-13.39999970048666
 20
36.00000093877316
 30
0.0
 11
-13.39999970048666
 21
41.00000093877315
 31
0.0
  0
LINE
  5
10154
330
1F
100
AcDbEntity
  8
0
100
AcDbLine
 10
-13.39999970048666
 20
41.00000093877315
 30
0.0
 11
-16.39999970048666
 21
41.00000093877315
 31
0.0
  0
LINE
  5
10155
330
1F
100
AcDbEntity
  8
0
100
AcDbLine
 10
-10.00000014901161
 20
49.99999958276749
 30
0.0
 11
-10.00000014901161
 21
44.99999958276749
 31
0.0
  0
LINE
  5
10156
330
1F
100
AcDbEntity
  8
0
100
AcDbLine
 10
-10.00000014901161
 20
44.99999958276749
 30
0.0
 11
-7.000000104308128
 21
44.99999958276749
 31
0.0
  0
LINE
  5
10157
330
1F
100
AcDbEntity
  8
0
100
AcDbLine
 10
-7.000000104308128
 20
44.99999958276749
 30
0.0
 11
-7.000000104308128
 21
49.99999958276749
 31
0.0
  0
LINE
  5
10158
330
1F
100
AcDbEntity
  8
0
100
AcDbLine
 10
-7.000000104308128
 20
49.99999958276749
 30
0.0
 11
-10.00000014901161
 21
49.99999958276749
 31
0.0
  0
LINE
  5
10159
330
1F
100
AcDbEntity
  8
0
100
AcDbLine
 10
-16.39999970048666
 20
52.50000056996942
 30
0.0
 11
-16.39999970048666
 21
47.50000056996942
 31
0.0
  0
LINE
  5
1015A
330
1F
100
AcDbEntity
  8
0
100
AcDbLine
 10
-16.39999970048666
 20
47.50000056996942
 30
0.0
 11
-13.39999970048666
 21
47.50000056996942
 31
0.0
  0
LINE
  5
1015B
330
1F
100
AcDbEntity
  8
0
100
AcDbLine
 10
-13.39999970048666
 20
47.50000056996942
 30
0.0
 11
-13.39999970048666
 21
52.50000056996942
 31
0.0
  0
LINE
  5
1015C
330
1F
100
AcDbEntity
  8
0
100
AcDbLine
 10
-13.39999970048666
 20
52.50000056996942
 30
0.0
 11
-16.39999970048666
 21
52.50000056996942
 31
0.0
  0
LINE
  5
1015D
330
1F
100
AcDbEntity
  8
0
100
AcDbLine
 10
0.0
 20
47.99999955296517
 30
0.0
 11
0.0
 21
37.99999940395355
 31
0.0
  0
LINE
  5
1015E
330
1F
100
AcDbEntity
  8
0
100
AcDbLine
 10
0.0
 20
37.99999940395355
 30
0.0
 11
3.0
 21
37.99999940395355
 31
0.0
  0
LINE
  5
1015F
330
1F
100
AcDbEntity
  8
0
100
AcDbLine
 10
3.0
 20
37.99999940395355
 30
0.0
 11
3.0
 21
28.0
 31
0.0
  0
LINE
  5
10160
330
1F
100
AcDbEntity
  8
0
100
AcDbLine
 10
3.0
 20
28.0
 30
0.0
 11
-10.00000014901161
 21
28.0
 31
0.0
  0
LINE
  5
10161
330
1F
100
AcDbEntity
  8
0
100
AcDbLine
 10
-10.00000014901161
 20
28.0
 30
0.0
 11
-10.00000014901161
 21
25.0
 31
0.0
  0
LINE
  5
10162
330
1F
100
AcDbEntity
  8
0
100
AcDbLine
 10
-10.00000014901161
 20
25.0
 30
0.0
 11
-20.00000029802323
 21
25.0
 31
0.0
  0
LINE
  5
10163
330
1F
100
AcDbEntity
  8
0
100
AcDbLine
 10
-20.00000029802323
 20
25.0
 30
0.0
 11
-20.00000029802323
 21
28.0
 31
0.0
  0
LINE
  5
10164
330
1F
100
AcDbEntity
  8
0
100
AcDbLine
 10
-20.00000029802323
 20
28.0
 30
0.0
 11
-30.00000044703484
 21
28.0
 31
0.0
  0
LINE
  5
10165
330
1F
100
AcDbEntity
  8
0
100
AcDbLine
 10
-30.00000044703484
 20
28.0
 30
0.0
 11
-30.00000044703484
 21
25.0
 31
0.0
  0
LINE
  5
10166
330
1F
100
AcDbEntity
  8
0
100
AcDbLine
 10
-30.00000044703484
 20
25.0
 30
0.0
 11
-45.00000067055225
 21
25.0
 31
0.0
  0
LINE
  5
10167
330
1F
100
AcDbEntity
  8
0
100
AcDbLine
 10
-45.00000067055225
 20
25.0
 30
0.0
 11
-45.00000067055225
 21
28.0
 31
0.0
  0
LINE
  5
10168
330
1F
100
AcDbEntity
  8
0
100
AcDbLine
 10
-45.00000067055225
 20
28.0
 30
0.0
 11
-55.00000081956386
 21
28.0
 31
0.0
  0
LINE
  5
10169
330
1F
100
AcDbEntity
  8
0
100
AcDbLine
 10
-55.00000081956386
 20
28.0
 30
0.0
 11
-55.00000081956386
 21
25.0
 31
0.0
  0
LINE
  5
1016A
330
1F
100
AcDbEntity
  8
0
100
AcDbLine
 10
-55.00000081956386
 20
25.0
 30
0.0
 11
-65.00000096857547
 21
25.0
 31
0.0
  0
LINE
  5
1016B
330
1F
100
AcDbEntity
  8
0
100
AcDbLine
 10
-65.00000096857547
 20
25.0
 30
0.0
 11
-65.00000096857547
 21
28.0
 31
0.0
  0
LINE
  5
1016C
330
1F
100
AcDbEntity
  8
0
100
AcDbLine
 10
-65.00000096857547
 20
28.0
 30
0.0
 11
-78.0
 21
27.99999925494194
 31
0.0
  0
LINE
  5
1016D
330
1F
100
AcDbEntity
  8
0
100
AcDbLine
 10
-78.0
 20
27.99999925494194
 30
0.0
 11
-78.0
 21
37.99999940395355
 31
0.0
  0
LINE
  5
1016E
330
1F
100
AcDbEntity
  8
0
100
AcDbLine
 10
-78.0
 20
37.99999940395355
 30
0.0
 11
-75.00000000000001
 21
37.99999940395355
 31
0.0
  0
LINE
  5
1016F
330
1F
100
AcDbEntity
  8
0
100
AcDbLine
 10
-75.00000000000001
 20
37.99999940395355
 30
0.0
 11
-75.00000000000001
 21
47.99999955296517
 31
0.0
  0
LINE
  5
10170
330
1F
100
AcDbEntity
  8
0
100
AcDbLine
 10
-75.00000000000001
 20
47.99999955296517
 30
0.0
 11
-78.0
 21
47.99999955296517
 31
0.0
  0
LINE
  5
10171
330
1F
100
AcDbEntity
  8
0
100
AcDbLine
 10
-78.0
 20
47.99999955296517
 30
0.0
 11
-78.0
 21
57.99999970197678
 31
0.0
  0
LINE
  5
10172
330
1F
100
AcDbEntity
  8
0
100
AcDbLine
 10
-78.0
 20
57.99999970197678
 30
0.0
 11
-75.00000000000001
 21
57.99999970197678
 31
0.0
  0
LINE
  5
10173
330
1F
100
AcDbEntity
  8
0
100
AcDbLine
 10
-75.00000000000001
 20
57.99999970197678
 30
0.0
 11
-75.00000000000001
 21
67.99999985098839
 31
0.0
  0
LINE
  5
10174
330
1F
100
AcDbEntity
  8
0
100
AcDbLine
 10
-75.00000000000001
 20
67.99999985098839
 30
0.0
 11
-78.0
 21
67.99999985098839
 31
0.0
  0
LINE
  5
10175
330
1F
100
AcDbEntity
  8
0
100
AcDbLine
 10
-78.0
 20
67.99999985098839
 30
0.0
 11
-78.0
 21
78.0
 31
0.0
  0
LINE
  5
10176
330
1F
100
AcDbEntity
  8
0
100
AcDbLine
 10
-78.0
 20
78.0
 30
0.0
 11
-65.00000096857547
 21
78.0
 31
0.0
  0
LINE
  5
10177
330
1F
100
AcDbEntity
  8
0
100
AcDbLine
 10
-65.00000096857547
 20
78.0
 30
0.0
 11
-65.00000096857547
 21
81.00000000000001
 31
0.0
  0
LINE
  5
10178
330
1F
100
AcDbEntity
  8
0
100
AcDbLine
 10
-65.00000096857547
 20
81.00000000000001
 30
0.0
 11
-55.00000081956386
 21
81.00000000000001
 31
0.0
  0
LINE
  5
10179
330
1F
100
AcDbEntity
  8
0
100
AcDbLine
 10
-55.00000081956386
 20
81.00000000000001
 30
0.0
 11
-55.00000081956386
 21
78.0
 31
0.0
  0
LINE
  5
1017A
330
1F
100
AcDbEntity
  8
0
100
AcDbLine
 10
-55.00000081956386
 20
78.0
 30
0.0
 11
-45.00000067055225
 21
78.0
 31
0.0
  0
LINE
  5
1017B
330
1F
100
AcDbEntity
  8
0
100
AcDbLine
 10
-45.00000067055225
 20
78.0
 30
0.0
 11
-45.00000067055225
 21
81.00000000000001
 31
0.0
  0
LINE
  5
1017C
330
1F
100
AcDbEntity
  8
0
100
AcDbLine
 10
-45.00000067055225
 20
81.00000000000001
 30
0.0
 11
-30.00000044703484
 21
81.00000000000001
 31
0.0
  0
LINE
  5
1017D
330
1F
100
AcDbEntity
  8
0
100
AcDbLine
 10
-30.00000044703484
 20
81.00000000000001
 30
0.0
 11
-30.00000044703484
 21
78.0
 31
0.0
  0
LINE
  5
1017E
330
1F
100
AcDbEntity
  8
0
100
AcDbLine
 10
-30.00000044703484
 20
78.0
 30
0.0
 11
-20.00000029802323
 21
78.0
 31
0.0
  0
LINE
  5
1017F
330
1F
100
AcDbEntity
  8
0
100
AcDbLine
 10
-20.00000029802323
 20
78.0
 30
0.0
 11
-20.00000029802323
 21
81.00000000000001
 31
0.0
  0
LINE
  5
10180
330
1F
100
AcDbEntity
  8
0
100
AcDbLine
 10
-20.00000029802323
 20
81.00000000000001
 30
0.0
 11
-10.00000014901161
 21
81.00000000000001
 31
0.0
  0
LINE
  5
10181
330
1F
100
AcDbEntity
  8
0
100
AcDbLine
 10
-10.00000014901161
 20
81.00000000000001
 30
0.0
 11
-10.00000014901161
 21
78.0
 31
0.0
  0
LINE
  5
10182
330
1F
100
AcDbEntity
  8
0
100
AcDbLine
 10
-10.00000014901161
 20
78.0
 30
0.0
 11
3.0
 21
78.0
 31
0.0
  0
LINE
  5
10183
330
1F
100
AcDbEntity
  8
0
100
AcDbLine
 10
3.0
 20
78.0
 30
0.0
 11
3.0
 21
67.99999985098839
 31
0.0
  0
LINE
  5
10184
330
1F
100
AcDbEntity
  8
0
100
AcDbLine
 10
3.0
 20
67.99999985098839
 30
0.0
 11
0.0
 21
67.99999985098839
 31
0.0
  0
LINE
  5
10185
330
1F
100
AcDbEntity
  8
0
100
AcDbLine
 10
0.0
 20
67.99999985098839
 30
0.0
 11
0.0
 21
57.99999970197678
 31
0.0
  0
LINE
  5
10186
330
1F
100
AcDbEntity
  8
0
100
AcDbLine
 10
0.0
 20
57.99999970197678
 30
0.0
 11
3.0
 21
57.99999970197678
 31
0.0
  0
LINE
  5
10187
330
1F
100
AcDbEntity
  8
0
100
AcDbLine
 10
3.0
 20
57.99999970197678
 30
0.0
 11
3.0
 21
47.99999955296517
 31
0.0
  0
LINE
  5
10188
330
1F
100
AcDbEntity
  8
0
100
AcDbLine
 10
3.0
 20
47.99999955296517
 30
0.0
 11
0.0
 21
47.99999955296517
 31
0.0
  0
LINE
  5
10189
330
1F
100
AcDbEntity
  8
0
100
AcDbLine
 10
-164.9999997004866
 20
-0.0000007152557302
 30
0.0
 11
-164.9999997004866
 21
6.000000938773161
 31
0.0
  0
LINE
  5
1018A
330
1F
100
AcDbEntity
  8
0
100
AcDbLine
 10
-164.9999997004866
 20
6.000000938773161
 30
0.0
 11
-169.9999997004866
 21
6.000000938773161
 31
0.0
  0
LINE
  5
1018B
330
1F
100
AcDbEntity
  8
0
100
AcDbLine
 10
-169.9999997004866
 20
6.000000938773161
 30
0.0
 11
-169.9999997004866
 21
11.00000093877316
 31
0.0
  0
LINE
  5
1018C
330
1F
100
AcDbEntity
  8
0
100
AcDbLine
 10
-169.9999997004866
 20
11.00000093877316
 30
0.0
 11
-164.9999997004866
 21
11.00000093877316
 31
0.0
  0
LINE
  5
1018D
330
1F
100
AcDbEntity
  8
0
100
AcDbLine
 10
-164.9999997004866
 20
11.00000093877316
 30
0.0
 11
-164.9999997004866
 21
17.50000056996942
 31
0.0
  0
LINE
  5
1018E
330
1F
100
AcDbEntity
  8
0
100
AcDbLine
 10
-164.9999997004866
 20
17.50000056996942
 30
0.0
 11
-169.9999997004866
 21
17.50000056996942
 31
0.0
  0
LINE
  5
1018F
330
1F
100
AcDbEntity
  8
0
100
AcDbLine
 10
-169.9999997004866
 20
17.50000056996942
 30
0.0
 11
-169.9999997004866
 21
22.50000056996943
 31
0.0
  0
LINE
  5
10190
330
1F
100
AcDbEntity
  8
0
100
AcDbLine
 10
-169.9999997004866
 20
22.50000056996943
 30
0.0
 11
-164.9999997004866
 21
22.50000056996943
 31
0.0
  0
LINE
  5
10191
330
1F
100
AcDbEntity
  8
0
100
AcDbLine
 10
-164.9999997004866
 20
22.50000056996943
 30
0.0
 11
-164.9999997004866
 21
45.99999928474428
 31
0.0
  0
LINE
  5
10192
330
1F
100
AcDbEntity
  8
0
100
AcDbLine
 10
-164.9999997004866
 20
45.99999928474428
 30
0.0
 11
-99.99999970048664
 21
45.99999928474428
 31
0.0
  0
LINE
  5
10193
330
1F
100
AcDbEntity
  8
0
100
AcDbLine
 10
-99.99999970048664
 20
45.99999928474428
 30
0.0
 11
-99.99999970048664
 21
-0.0000007152557302
 31
0.0
  0
LINE
  5
10194
330
1F
100
AcDbEntity
  8
0
100
AcDbLine
 10
-99.99999970048664
 20
-0.0000007152557302
 30
0.0
 11
-164.9999997004866
 21
-0.0000007152557302
 31
0.0
  0
LINE
  5
10195
330
1F
100
AcDbEntity
  8
0
100
AcDbLine
 10
-237.0000005811453
 20
-48.00000071525574
 30
0.0
 11
-237.0000005811453
 21
-31.69999929144978
 31
0.0
  0
LINE
  5
10196
330
1F
100
AcDbEntity
  8
0
100
AcDbLine
 10
-237.0000005811453
 20
-31.69999929144978
 30
0.0
 11
-242.0000005811453
 21
-31.69999929144978
 31
0.0
  0
LINE
  5
10197
330
1F
100
AcDbEntity
  8
0
100
AcDbLine
 10
-242.0000005811453
 20
-31.69999929144978
 30
0.0
 11
-242.0000005811453
 21
-26.69999929144978
 31
0.0
  0
LINE
  5
10198
330
1F
100
AcDbEntity
  8
0
100
AcDbLine
 10
-242.0000005811453
 20
-26.69999929144978
 30
0.0
 11
-237.0000005811453
 21
-26.69999929144978
 31
0.0
  0
LINE
  5
10199
330
1F
100
AcDbEntity
  8
0
100
AcDbLine
 10
-237.0000005811453
 20
-26.69999929144978
 30
0.0
 11
-237.0000005811453
 21
-20.29999965801835
 31
0.0
  0
LINE
  5
1019A
330
1F
100
AcDbEntity
  8
0
100
AcDbLine
 10
-237.0000005811453
 20
-20.29999965801835
 30
0.0
 11
-242.0000005811453
 21
-20.29999965801835
 31
0.0
  0
LINE
  5
1019B
330
1F
100
AcDbEntity
  8
0
100
AcDbLine
 10
-242.0000005811453
 20
-20.29999965801835
 30
0.0
 11
-242.0000005811453
 21
-15.29999965801835
 31
0.0
  0
LINE
  5
1019C
330
1F
100
AcDbEntity
  8
0
100
AcDbLine
 10
-242.0000005811453
 20
-15.29999965801835
 30
0.0
 11
-237.0000005811453
 21
-15.29999965801835
 31
0.0
  0
LINE
  5
1019D
330
1F
100
AcDbEntity
  8
0
100
AcDbLine
 10
-237.0000005811453
 20
-15.29999965801835
 30
0.0
 11
-237.0000005811453
 21
-2.000000029802322
 31
0.0
  0
LINE
  5
1019E
330
1F
100
AcDbEntity
  8
0
100
AcDbLine
 10
-237.0000005811453
 20
-2.000000029802322
 30
0.0
 11
-172.0000005811453
 21
-2.000000029802322
 31
0.0
  0
LINE
  5
1019F
330
1F
100
AcDbEntity
  8
0
100
AcDbLine
 10
-172.0000005811453
 20
-2.000000029802322
 30
0.0
 11
-172.0000005811453
 21
-48.00000071525574
 31
0.0
  0
LINE
  5
101A0
330
1F
100
AcDbEntity
  8
0
100
AcDbLine
 10
-172.0000005811453
 20
-48.00000071525574
 30
0.0
 11
-237.0000005811453
 21
-48.00000071525574
 31
0.0
  0
LINE
  5
101A1
330
1F
100
AcDbEntity
  8
0
100
AcDbLine
 10
-237.2999989874661
 20
-0.0000007152557391
 30
0.0
 11
-237.2999989874661
 21
18.80000065267086
 31
0.0
  0
LINE
  5
101A2
330
1F
100
AcDbEntity
  8
0
100
AcDbLine
 10
-237.2999989874661
 20
18.80000065267086
 30
0.0
 11
-242.2999989874661
 21
18.80000065267086
 31
0.0
  0
LINE
  5
101A3
330
1F
100
AcDbEntity
  8
0
100
AcDbLine
 10
-242.2999989874661
 20
18.80000065267086
 30
0.0
 11
-242.2999989874661
 21
23.80000065267086
 31
0.0
  0
LINE
  5
101A4
330
1F
100
AcDbEntity
  8
0
100
AcDbLine
 10
-242.2999989874661
 20
23.80000065267086
 30
0.0
 11
-237.2999989874661
 21
23.80000065267086
 31
0.0
  0
LINE
  5
101A5
330
1F
100
AcDbEntity
  8
0
100
AcDbLine
 10
-237.2999989874661
 20
23.80000065267086
 30
0.0
 11
-237.2999989874661
 21
30.20000028610229
 31
0.0
  0
LINE
  5
101A6
330
1F
100
AcDbEntity
  8
0
100
AcDbLine
 10
-237.2999989874661
 20
30.20000028610229
 30
0.0
 11
-242.2999989874661
 21
30.20000028610229
 31
0.0
  0
LINE
  5
101A7
330
1F
100
AcDbEntity
  8
0
100
AcDbLine
 10
-242.2999989874661
 20
30.20000028610229
 30
0.0
 11
-242.2999989874661
 21
35.20000028610229
 31
0.0
  0
LINE
  5
101A8
330
1F
100
AcDbEntity
  8
0
100
AcDbLine
 10
-242.2999989874661
 20
35.20000028610229
 30
0.0
 11
-237.2999989874661
 21
35.20000028610229
 31
0.0
  0
LINE
  5
101A9
330
1F
100
AcDbEntity
  8
0
100
AcDbLine
 10
-237.2999989874661
 20
35.20000028610229
 30
0.0
 11
-237.2999989874661
 21
45.99999928474425
 31
0.0
  0
LINE
  5
101AA
330
1F
100
AcDbEntity
  8
0
100
AcDbLine
 10
-237.2999989874661
 20
45.99999928474425
 30
0.0
 11
-172.2999989874661
 21
45.99999928474425
 31
0.0
  0
LINE
  5
101AB
330
1F
100
AcDbEntity
  8
0
100
AcDbLine
 10
-172.2999989874661
 20
45.99999928474425
 30
0.0
 11
-172.2999989874661
 21
-0.0000007152557391
 31
0.0
  0
LINE
  5
101AC
330
1F
100
AcDbEntity
  8
0
100
AcDbLine
 10
-172.2999989874661
 20
-0.0000007152557391
 30
0.0
 11
-237.2999989874661
 21
-0.0000007152557391
 31
0.0
  0
LINE
  5
101AD
330
1F
100
AcDbEntity
  8
0
100
AcDbLine
 10
-237.1999988444149
 20
85.80000022798778
 30
0.0
 11
-237.1999988444149
 21
93.99999928474427
 31
0.0
  0
LINE
  5
101AE
330
1F
100
AcDbEntity
  8
0
100
AcDbLine
 10
-237.1999988444149
 20
93.99999928474427
 30
0.0
 11
-172.199998844415
 21
93.99999928474427
 31
0.0
  0
LINE
  5
101AF
330
1F
100
AcDbEntity
  8
0
100
AcDbLine
 10
-172.199998844415
 20
93.99999928474427
 30
0.0
 11
-172.199998844415
 21
47.99999928474428
 31
0.0
  0
LINE
  5
101B0
330
1F
100
AcDbEntity
  8
0
100
AcDbLine
 10
-172.199998844415
 20
47.99999928474428
 30
0.0
 11
-237.1999988444149
 21
47.99999928474428
 31
0.0
  0
LINE
  5
101B1
330
1F
100
AcDbEntity
  8
0
100
AcDbLine
 10
-237.1999988444149
 20
47.99999928474428
 30
0.0
 11
-237.1999988444149
 21
69.40000059455634
 31
0.0
  0
LINE
  5
101B2
330
1F
100
AcDbEntity
  8
0
100
AcDbLine
 10
-237.1999988444149
 20
69.40000059455634
 30
0.0
 11
-242.1999988444149
 21
69.40000059455634
 31
0.0
  0
LINE
  5
101B3
330
1F
100
AcDbEntity
  8
0
100
AcDbLine
 10
-242.1999988444149
 20
69.40000059455634
 30
0.0
 11
-242.1999988444149
 21
74.40000059455634
 31
0.0
  0
LINE
  5
101B4
330
1F
100
AcDbEntity
  8
0
100
AcDbLine
 10
-242.1999988444149
 20
74.40000059455634
 30
0.0
 11
-237.1999988444149
 21
74.40000059455634
 31
0.0
  0
LINE
  5
101B5
330
1F
100
AcDbEntity
  8
0
100
AcDbLine
 10
-237.1999988444149
 20
74.40000059455634
 30
0.0
 11
-237.1999988444149
 21
80.80000022798778
 31
0.0
  0
LINE
  5
101B6
330
1F
100
AcDbEntity
  8
0
100
AcDbLine
 10
-237.1999988444149
 20
80.80000022798778
 30
0.0
 11
-242.1999988444149
 21
80.80000022798778
 31
0.0
  0
LINE
  5
101B7
330
1F
100
AcDbEntity
  8
0
100
AcDbLine
 10
-242.1999988444149
 20
80.80000022798778
 30
0.0
 11
-242.1999988444149
 21
85.80000022798778
 31
0.0
  0
LINE
  5
101B8
330
1F
100
AcDbEntity
  8
0
100
AcDbLine
 10
-242.1999988444149
 20
85.80000022798778
 30
0.0
 11
-237.1999988444149
 21
85.80000022798778
 31
0.0
  0
LINE
  5
101B9
330
1F
100
AcDbEntity
  8
0
100
AcDbLine
 10
-164.9999995574355
 20
47.99999928474428
 30
0.0
 11
-164.9999995574355
 21
56.60000088065864
 31
0.0
  0
LINE
  5
101BA
330
1F
100
AcDbEntity
  8
0
100
AcDbLine
 10
-164.9999995574355
 20
56.60000088065864
 30
0.0
 11
-169.9999995574355
 21
56.60000088065864
 31
0.0
  0
LINE
  5
101BB
330
1F
100
AcDbEntity
  8
0
100
AcDbLine
 10
-169.9999995574355
 20
56.60000088065864
 30
0.0
 11
-169.9999995574355
 21
61.60000088065864
 31
0.0
  0
LINE
  5
101BC
330
1F
100
AcDbEntity
  8
0
100
AcDbLine
 10
-169.9999995574355
 20
61.60000088065864
 30
0.0
 11
-164.9999995574355
 21
61.60000088065864
 31
0.0
  0
LINE
  5
101BD
330
1F
100
AcDbEntity
  8
0
100
AcDbLine
 10
-164.9999995574355
 20
61.60000088065864
 30
0.0
 11
-164.9999995574355
 21
68.00000051409007
 31
0.0
  0
LINE
  5
101BE
330
1F
100
AcDbEntity
  8
0
100
AcDbLine
 10
-164.9999995574355
 20
68.00000051409007
 30
0.0
 11
-169.9999995574355
 21
68.00000051409007
 31
0.0
  0
LINE
  5
101BF
330
1F
100
AcDbEntity
  8
0
100
AcDbLine
 10
-169.9999995574355
 20
68.00000051409007
 30
0.0
 11
-169.9999995574355
 21
72.99999965727329
 31
0.0
  0
LINE
  5
101C0
330
1F
100
AcDbEntity
  8
0
100
AcDbLine
 10
-169.9999995574355
 20
72.99999965727329
 30
0.0
 11
-164.9999995574355
 21
72.99999965727329
 31
0.0
  0
LINE
  5
101C1
330
1F
100
AcDbEntity
  8
0
100
AcDbLine
 10
-164.9999995574355
 20
72.99999965727329
 30
0.0
 11
-164.9999995574355
 21
93.99999928474427
 31
0.0
  0
LINE
  5
101C2
330
1F
100
AcDbEntity
  8
0
100
AcDbLine
 10
-164.9999995574355
 20
93.99999928474427
 30
0.0
 11
-99.99999955743549
 21
93.99999928474427
 31
0.0
  0
LINE
  5
101C3
330
1F
100
AcDbEntity
  8
0
100
AcDbLine
 10
-99.99999955743549
 20
93.99999928474427
 30
0.0
 11
-99.99999955743549
 21
47.99999928474428
 31
0.0
  0
LINE
  5
101C4
330
1F
100
AcDbEntity
  8
0
100
AcDbLine
 10
-99.99999955743549
 20
47.99999928474428
 30
0.0
 11
-164.9999995574355
 21
47.99999928474428
 31
0.0
  0
LINE
  5
101C5
330
1F
100
AcDbEntity
  8
0
100
AcDbLine
 10
-164.9999994143844
 20
95.99999928474426
 30
0.0
 11
-164.9999994143844
 21
107.1000008247793
 31
0.0
  0
LINE
  5
101C6
330
1F
100
AcDbEntity
  8
0
100
AcDbLine
 10
-164.9999994143844
 20
107.1000008247793
 30
0.0
 11
-169.9999994143843
 21
107.1000008247793
 31
0.0
  0
LINE
  5
101C7
330
1F
100
AcDbEntity
  8
0
100
AcDbLine
 10
-169.9999994143843
 20
107.1000008247793
 30
0.0
 11
-169.9999994143843
 21
112.1000008247793
 31
0.0
  0
LINE
  5
101C8
330
1F
100
AcDbEntity
  8
0
100
AcDbLine
 10
-169.9999994143843
 20
112.1000008247793
 30
0.0
 11
-164.9999994143844
 21
112.1000008247793
 31
0.0
  0
LINE
  5
101C9
330
1F
100
AcDbEntity
  8
0
100
AcDbLine
 10
-164.9999994143844
 20
112.1000008247793
 30
0.0
 11
-164.9999994143844
 21
118.5000004582107
 31
0.0
  0
LINE
  5
101CA
330
1F
100
AcDbEntity
  8
0
100
AcDbLine
 10
-164.9999994143844
 20
118.5000004582107
 30
0.0
 11
-169.9999994143843
 21
118.5000004582107
 31
0.0
  0
LINE
  5
101CB
330
1F
100
AcDbEntity
  8
0
100
AcDbLine
 10
-169.9999994143843
 20
118.5000004582107
 30
0.0
 11
-169.9999994143843
 21
123.5000004582107
 31
0.0
  0
LINE
  5
101CC
330
1F
100
AcDbEntity
  8
0
100
AcDbLine
 10
-169.9999994143843
 20
123.5000004582107
 30
0.0
 11
-164.9999994143844
 21
123.5000004582107
 31
0.0
  0
LINE
  5
101CD
330
1F
100
AcDbEntity
  8
0
100
AcDbLine
 10
-164.9999994143844
 20
123.5000004582107
 30
0.0
 11
-164.9999994143844
 21
141.9999992847442
 31
0.0
  0
LINE
  5
101CE
330
1F
100
AcDbEntity
  8
0
100
AcDbLine
 10
-164.9999994143844
 20
141.9999992847442
 30
0.0
 11
-99.99999941438437
 21
141.9999992847442
 31
0.0
  0
LINE
  5
101CF
330
1F
100
AcDbEntity
  8
0
100
AcDbLine
 10
-99.99999941438437
 20
141.9999992847442
 30
0.0
 11
-99.99999941438437
 21
95.99999928474426
 31
0.0
  0
LINE
  5
101D0
330
1F
100
AcDbEntity
  8
0
100
AcDbLine
 10
-99.99999941438437
 20
95.99999928474426
 30
0.0
 11
-164.9999994143844
 21
95.99999928474426
 31
0.0
  0
LINE
  5
101D1
330
1F
100
AcDbEntity
  8
0
100
AcDbLine
 10
-237.0999987013638
 20
136.4000001698732
 30
0.0
 11
-237.0999987013638
 21
141.9999992847443
 31
0.0
  0
LINE
  5
101D2
330
1F
100
AcDbEntity
  8
0
100
AcDbLine
 10
-237.0999987013638
 20
141.9999992847443
 30
0.0
 11
-172.0999987013638
 21
141.9999992847443
 31
0.0
  0
LINE
  5
101D3
330
1F
100
AcDbEntity
  8
0
100
AcDbLine
 10
-172.0999987013638
 20
141.9999992847443
 30
0.0
 11
-172.0999987013638
 21
95.99999928474426
 31
0.0
  0
LINE
  5
101D4
330
1F
100
AcDbEntity
  8
0
100
AcDbLine
 10
-172.0999987013638
 20
95.99999928474426
 30
0.0
 11
-237.0999987013638
 21
95.99999928474426
 31
0.0
  0
LINE
  5
101D5
330
1F
100
AcDbEntity
  8
0
100
AcDbLine
 10
-237.0999987013638
 20
95.99999928474426
 30
0.0
 11
-237.0999987013638
 21
119.900000538677
 31
0.0
  0
LINE
  5
101D6
330
1F
100
AcDbEntity
  8
0
100
AcDbLine
 10
-237.0999987013638
 20
119.900000538677
 30
0.0
 11
-242.0999987013638
 21
119.900000538677
 31
0.0
  0
LINE
  5
101D7
330
1F
100
AcDbEntity
  8
0
100
AcDbLine
 10
-242.0999987013638
 20
119.900000538677
 30
0.0
 11
-242.0999987013638
 21
124.900000538677
 31
0.0
  0
LINE
  5
101D8
330
1F
100
AcDbEntity
  8
0
100
AcDbLine
 10
-242.0999987013638
 20
124.900000538677
 30
0.0
 11
-237.0999987013638
 21
124.900000538677
 31
0.0
  0
LINE
  5
101D9
330
1F
100
AcDbEntity
  8
0
100
AcDbLine
 10
-237.0999987013638
 20
124.900000538677
 30
0.0
 11
-237.0999987013638
 21
131.4000001698732
 31
0.0
  0
LINE
  5
101DA
330
1F
100
AcDbEntity
  8
0
100
AcDbLine
 10
-237.0999987013638
 20
131.4000001698732
 30
0.0
 11
-242.0999987013638
 21
131.4000001698732
 31
0.0
  0
LINE
  5
101DB
330
1F
100
AcDbEntity
  8
0
100
AcDbLine
 10
-242.0999987013638
 20
131.4000001698732
 30
0.0
 11
-242.0999987013638
 21
136.4000001698732
 31
0.0
  0
LINE
  5
101DC
330
1F
100
AcDbEntity
  8
0
100
AcDbLine
 10
-242.0999987013638
 20
136.4000001698732
 30
0.0
 11
-237.0999987013638
 21
136.4000001698732
 31
0.0
  0
LINE
  5
101DD
330
1F
100
AcDbEntity
  8
0
100
AcDbLine
 10
-237.4999985583126
 20
143.9999992847442
 30
0.0
 11
-237.4999985583126
 21
170.3000003732741
 31
0.0
  0
LINE
  5
101DE
330
1F
100
AcDbEntity
  8
0
100
AcDbLine
 10
-237.4999985583126
 20
170.3000003732741
 30
0.0
 11
-242.4999985583126
 21
170.3000003732741
 31
0.0
  0
LINE
  5
101DF
330
1F
100
AcDbEntity
  8
0
100
AcDbLine
 10
-242.4999985583126
 20
170.3000003732741
 30
0.0
 11
-242.4999985583126
 21
175.3000003732741
 31
0.0
  0
LINE
  5
101E0
330
1F
100
AcDbEntity
  8
0
100
AcDbLine
 10
-242.4999985583126
 20
175.3000003732741
 30
0.0
 11
-237.4999985583126
 21
175.3000003732741
 31
0.0
  0
LINE
  5
101E1
330
1F
100
AcDbEntity
  8
0
100
AcDbLine
 10
-237.4999985583126
 20
175.3000003732741
 30
0.0
 11
-237.4999985583126
 21
181.9000001139939
 31
0.0
  0
LINE
  5
101E2
330
1F
100
AcDbEntity
  8
0
100
AcDbLine
 10
-237.4999985583126
 20
181.9000001139939
 30
0.0
 11
-242.4999985583126
 21
181.9000001139939
 31
0.0
  0
LINE
  5
101E3
330
1F
100
AcDbEntity
  8
0
100
AcDbLine
 10
-242.4999985583126
 20
181.9000001139939
 30
0.0
 11
-242.4999985583126
 21
186.9000001139939
 31
0.0
  0
LINE
  5
101E4
330
1F
100
AcDbEntity
  8
0
100
AcDbLine
 10
-242.4999985583126
 20
186.9000001139939
 30
0.0
 11
-237.4999985583126
 21
186.9000001139939
 31
0.0
  0
LINE
  5
101E5
330
1F
100
AcDbEntity
  8
0
100
AcDbLine
 10
-237.4999985583126
 20
186.9000001139939
 30
0.0
 11
-237.4999985583126
 21
189.9999992847442
 31
0.0
  0
LINE
  5
101E6
330
1F
100
AcDbEntity
  8
0
100
AcDbLine
 10
-237.4999985583126
 20
189.9999992847442
 30
0.0
 11
-172.4999985583126
 21
189.9999992847442
 31
0.0
  0
LINE
  5
101E7
330
1F
100
AcDbEntity
  8
0
100
AcDbLine
 10
-172.4999985583126
 20
189.9999992847442
 30
0.0
 11
-172.4999985583126
 21
143.9999992847442
 31
0.0
  0
LINE
  5
101E8
330
1F
100
AcDbEntity
  8
0
100
AcDbLine
 10
-172.4999985583126
 20
143.9999992847442
 30
0.0
 11
-237.4999985583126
 21
143.9999992847442
 31
0.0
  0
LINE
  5
101E9
330
1F
100
AcDbEntity
  8
0
100
AcDbLine
 10
-164.9999992713332
 20
143.9999992847443
 30
0.0
 11
-164.9999992713332
 21
157.7000007666647
 31
0.0
  0
LINE
  5
101EA
330
1F
100
AcDbEntity
  8
0
100
AcDbLine
 10
-164.9999992713332
 20
157.7000007666647
 30
0.0
 11
-169.9999992713332
 21
157.7000007666647
 31
0.0
  0
LINE
  5
101EB
330
1F
100
AcDbEntity
  8
0
100
AcDbLine
 10
-169.9999992713332
 20
157.7000007666647
 30
0.0
 11
-169.9999992713332
 21
162.7000007666647
 31
0.0
  0
LINE
  5
101EC
330
1F
100
AcDbEntity
  8
0
100
AcDbLine
 10
-169.9999992713332
 20
162.7000007666647
 30
0.0
 11
-164.9999992713332
 21
162.7000007666647
 31
0.0
  0
LINE
  5
101ED
330
1F
100
AcDbEntity
  8
0
100
AcDbLine
 10
-164.9999992713332
 20
162.7000007666647
 30
0.0
 11
-164.9999992713332
 21
169.1000004000962
 31
0.0
  0
LINE
  5
101EE
330
1F
100
AcDbEntity
  8
0
100
AcDbLine
 10
-164.9999992713332
 20
169.1000004000962
 30
0.0
 11
-169.9999992713332
 21
169.1000004000962
 31
0.0
  0
LINE
  5
101EF
330
1F
100
AcDbEntity
  8
0
100
AcDbLine
 10
-169.9999992713332
 20
169.1000004000962
 30
0.0
 11
-169.9999992713332
 21
174.1000004000962
 31
0.0
  0
LINE
  5
101F0
330
1F
100
AcDbEntity
  8
0
100
AcDbLine
 10
-169.9999992713332
 20
174.1000004000962
 30
0.0
 11
-164.9999992713332
 21
174.1000004000962
 31
0.0
  0
LINE
  5
101F1
330
1F
100
AcDbEntity
  8
0
100
AcDbLine
 10
-164.9999992713332
 20
174.1000004000962
 30
0.0
 11
-164.9999992713332
 21
189.9999992847443
 31
0.0
  0
LINE
  5
101F2
330
1F
100
AcDbEntity
  8
0
100
AcDbLine
 10
-164.9999992713332
 20
189.9999992847443
 30
0.0
 11
-99.99999927133323
 21
189.9999992847443
 31
0.0
  0
LINE
  5
101F3
330
1F
100
AcDbEntity
  8
0
100
AcDbLine
 10
-99.99999927133323
 20
189.9999992847443
 30
0.0
 11
-99.99999927133323
 21
143.9999992847443
 31
0.0
  0
LINE
  5
101F4
330
1F
100
AcDbEntity
  8
0
100
AcDbLine
 10
-99.99999927133323
 20
143.9999992847443
 30
0.0
 11
-164.9999992713332
 21
143.9999992847443
 31
0.0
  0
CIRCLE
  5
101FC
330
1F
100
AcDbEntity
  8
0
  6
Continuous
100
AcDbCircle
 10
-191.0
 20
167.0
 30
0.0
 40
12.0
  0
LINE
  5
10207
330
1F
100
AcDbEntity
  8
0
  6
Continuous
100
AcDbLine
 10
-226.0
 20
161.0
 30
0.0
 11
-196.9051162531783
 21
177.4465114768735
 31
0.0
  0
CIRCLE
  5
1020C
330
1F
100
AcDbEntity
  8
0
  6
Continuous
100
AcDbCircle
 10
-213.6233983842716
 20
21.60262742411858
 30
0.0
 40
12.0
  0
LINE
  5
1020D
330
1F
100
AcDbEntity
  8
0
  6
Continuous
100
AcDbLine
 10
-178.1609726482033
 20
23.4509674669272
 30
0.0
 11
-208.9859027661702
 21
10.53494318611777
 31
0.0
  0
LINE
  5
1020E
330
1F
100
AcDbEntity
  8
0
  6
Continuous
100
AcDbLine
 10
-180.0
 20
85.0
 30
0.0
 11
-228.1115846645839
 21
69.40000059455634
 31
0.0
  0
ARC
  5
1020F
330
1F
100
AcDbEntity
  8
0
  6
Continuous
100
AcDbCircle
 10
-209.5
 20
-26.76368794803681
 30
0.0
 40
16.29263504584039
100
AcDbArc
 50
305.6678574354076
 51
234.3321425645926
  0
ARC
  5
10210
330
1F
100
AcDbEntity
  8
0
  6
Continuous
100
AcDbCircle
 10
-104.5837783795987
 20
138.7140440867278
 30
0.0
 40
28.29197869822264
100
AcDbArc
 50
88.81767155167754
 51
151.6750806541656
  0
ARC
  5
10211
330
1F
100
AcDbEntity
  8
0
  6
Continuous
100
AcDbCircle
 10
-147.0
 20
119.0
 30
0.0
 40
12.04159457879229
100
AcDbArc
 50
355.2363583092738
 51
228.3664606634298
  0
ARC
  5
10213
330
1F
100
AcDbEntity
  8
0
  6
Continuous
100
AcDbCircle
 10
-123.0
 20
119.0
 30
0.0
 40
12.04159457879229
100
AcDbArc
 50
311.6335393365693
 51
184.763641690726
  0
LWPOLYLINE
  5
10214
330
1F
100
AcDbEntity
  8
0
  6
Continuous
100
AcDbPolyline
 90
        4
 70
     0
 43
0.0
 10
-154.9477721623713
 20
56.7392034579177
 10
-140.0
 20
70.0
 42
-0.0298570722439357
 10
-126.0
 20
81.0
 42
-1.723950733036732
 10
-124.0
 20
58.0
 42
5.613228219203082
  0
ARC
  5
10215
330
1F
100
AcDbEntity
  8
0
  6
Continuous
100
AcDbCircle
 10
-104.0
 20
10.5
 30
0.0
 40
14.53444185374863
100
AcDbArc
 50
93.94518622903754
 51
153.434948822922
  0
ELLIPSE
  5
10216
330
1F
100
AcDbEntity
  8
0
  6
Continuous
100
AcDbEllipse
 10
-131.0
 20
-25.00000071525573
 30
0.0
 11
21.0
 21
0.0
 31
0.0
210
0.0
220
0.0
230
1.0
 40
0.7142856938498368
 41
0.0
 42
6.283185307179586
  0
ENDSEC
  0
SECTION
  2
OBJECTS
  0
DICTIONARY
  5
C
330
0
100
AcDbDictionary
281
     1
  3
ACAD_CIP_PREVIOUS_PRODUCT_INFO
350
1005A
  3
ACAD_COLOR
350
10036
  3
ACAD_DETAILVIEWSTYLE
350
10051
  3
ACAD_GROUP
350
D
  3
ACAD_LAYOUT
350
10037
  3
ACAD_MATERIAL
350
10004
  3
ACAD_MLEADERSTYLE
350
1004D
  3
ACAD_MLINESTYLE
350
17
  3
ACAD_PLOTSETTINGS
350
10054
  3
ACAD_PLOTSTYLENAME
350
10002
  3
ACAD_SCALELIST
350
1003B
  3
ACAD_SECTIONVIEWSTYLE
350
1004F
  3
ACAD_TABLESTYLE
350
10038
  3
ACAD_VISUALSTYLE
350
1001D
  3
ACDB_RECOMPOSE_DATA
350
10225
  3
AcDbVariableDictionary
350
10219
  0
DICTIONARY
  5
10217
330
50
100
AcDbDictionary
280
     1
281
     1
  3
ADSK_XREC_LAYER_RECONCILED
360
10218
  0
DICTIONARY
  5
1005B
330
1F
100
AcDbDictionary
280
     1
281
     1
  3
ACAD_SORTENTS
360
1005C
  0
XRECORD
  5
1005A
102
{ACAD_REACTORS
330
C
102
}
330
C
100
AcDbXrecord
280
     1
300
ACD
300
2021
300

  0
DICTIONARY
  5
10036
102
{ACAD_REACTORS
330
C
102
}
330
C
100
AcDbDictionary
281
     1
  0
DICTIONARY
  5
10051
102
{ACAD_REACTORS
330
C
102
}
330
C
100
AcDbDictionary
281
     1
  3
Imperial24
350
10052
  0
DICTIONARY
  5
D
330
C
100
AcDbDictionary
281
     1
  0
DICTIONARY
  5
10037
102
{ACAD_REACTORS
330
C
102
}
330
C
100
AcDbDictionary
281
     1
  3
Layout1
350
10056
  3
Model
350
10055
  0
DICTIONARY
  5
10004
102
{ACAD_REACTORS
330
C
102
}
330
C
100
AcDbDictionary
281
     1
  3
ByBlock
350
1000D
  3
ByLayer
350
10005
  3
Global
350
10015
  0
DICTIONARY
  5
1004D
102
{ACAD_REACTORS
330
C
102
}
330
C
100
AcDbDictionary
281
     1
  3
Standard
350
1004E
  0
DICTIONARY
  5
17
330
C
100
AcDbDictionary
281
     1
  3
Standard
350
1003A
  0
DICTIONARY
  5
10054
102
{ACAD_REACTORS
330
C
102
}
330
C
100
AcDbDictionary
281
     1
  0
ACDBDICTIONARYWDFLT
  5
10002
102
{ACAD_REACTORS
330
C
102
}
330
C
100
AcDbDictionary
281
     1
  3
Normal
350
10003
100
AcDbDictionaryWithDefault
340
10003
  0
DICTIONARY
  5
1003B
102
{ACAD_REACTORS
330
C
102
}
330
C
100
AcDbDictionary
281
     1
  3
A0
350
1003C
  3
A1
350
1003D
  3
A2
350
1003E
  3
A3
350
1003F
  3
A4
350
10040
  3
A5
350
10041
  3
A6
350
10042
  3
A7
350
10043
  3
A8
350
10044
  3
A9
350
10045
  3
B0
350
10046
  3
B1
350
10047
  3
B2
350
10048
  3
B3
350
10049
  3
B4
350
1004A
  3
B5
350
1004B
  3
B6
350
1004C
  0
DICTIONARY
  5
1004F
102
{ACAD_REACTORS
330
C
102
}
330
C
100
AcDbDictionary
281
     1
  3
Imperial24
350
10050
  0
DICTIONARY
  5
10038
102
{ACAD_REACTORS
330
C
102
}
330
C
100
AcDbDictionary
281
     1
  3
Standard
350
10039
  0
DICTIONARY
  5
1001D
102
{ACAD_REACTORS
330
C
102
}
330
C
100
AcDbDictionary
281
     1
  3
2dWireframe
350
10023
  3
Basic
350
10022
  3
Brighten
350
10029
  3
ColorChange
350
1002D
  3
Conceptual
350
10026
  3
Dim
350
10028
  3
EdgeColorOff
350
10035
  3
Facepattern
350
1002C
  3
Flat
350
1001E
  3
FlatWithEdges
350
1001F
  3
Gouraud
350
10020
  3
GouraudWithEdges
350
10021
  3
Hidden
350
10025
  3
JitterOff
350
10033
  3
Linepattern
350
1002B
  3
OverhangOff
350
10034
  3
Realistic
350
10027
  3
Shaded
350
10032
  3
Shaded with edges
350
10031
  3
Shades of Gray
350
1002E
  3
Sketchy
350
1002F
  3
Thicken
350
1002A
  3
Wireframe
350
10024
  3
X-Ray
350
10030
  0
XRECORD
  5
10225
102
{ACAD_REACTORS
330
C
102
}
330
C
100
AcDbXrecord
280
     1
 90
        1
330
10039
  0
DICTIONARY
  5
10219
102
{ACAD_REACTORS
330
C
102
}
330
C
100
AcDbDictionary
281
     1
  3
CANNOSCALE
350
1021F
  3
CMLEADERSTYLE
350
1021B
  3
CTABLESTYLE
350
1021A
  3
CVIEWDETAILSTYLE
350
1021C
  3
CVIEWSECTIONSTYLE
350
1021D
  3
LAYEREVAL
350
10221
  3
LAYERNOTIFY
350
10222
  3
LIGHTINGUNITS
350
10220
  3
MSLTSCALE
350
1021E
  0
XRECORD
  5
10218
102
{ACAD_REACTORS
330
10217
102
}
330
10217
100
AcDbXrecord
280
     1
290
     1
  0
SORTENTSTABLE
  5
1005C
102
{ACAD_REACTORS
330
1005B
102
}
330
1005B
100
AcDbSortentsTable
330
1F
331
141
  5
101EA
331
143
  5
101EB
331
146
  5
101EC
331
149
  5
101ED
331
150
  5
101EE
331
151
  5
101EF
331
152
  5
101F0
331
153
  5
101F1
331
157
  5
101F2
331
159
  5
101F3
331
160
  5
101F4
331
1005D
  5
141
331
1005E
  5
143
331
1005F
  5
146
331
10060
  5
149
331
10061
  5
150
331
10062
  5
151
331
10063
  5
152
331
10064
  5
153
331
10065
  5
157
331
10066
  5
159
331
10067
  5
160
331
10068
  5
1005D
331
10069
  5
1005E
331
1006A
  5
1005F
331
1006B
  5
10060
331
1006C
  5
10061
331
1006D
  5
10062
331
1006E
  5
10063
331
1006F
  5
10064
331
10070
  5
10065
331
10071
  5
10066
331
10072
  5
10067
331
10073
  5
10068
331
10074
  5
10069
331
10075
  5
1006A
331
10076
  5
1006B
331
10077
  5
1006C
331
10078
  5
1006D
331
10079
  5
1006E
331
1007A
  5
1006F
331
1007B
  5
10070
331
1007C
  5
10071
331
1007D
  5
10072
331
1007E
  5
10073
331
1007F
  5
10074
331
10080
  5
10075
331
10081
  5
10076
331
10082
  5
10077
331
10083
  5
10078
331
10084
  5
10079
331
10085
  5
1007A
331
10086
  5
1007B
331
10087
  5
1007C
331
10088
  5
1007D
331
10089
  5
1007E
331
1008A
  5
1007F
331
1008B
  5
10080
331
1008C
  5
10081
331
1008D
  5
10082
331
1008E
  5
10083
331
1008F
  5
10084
331
10090
  5
10085
331
10091
  5
10086
331
10092
  5
10087
331
10093
  5
10088
331
10094
  5
10089
331
10095
  5
1008A
331
10096
  5
1008B
331
10097
  5
1008C
331
10098
  5
1008D
331
10099
  5
1008E
331
1009A
  5
1008F
331
1009B
  5
10090
331
1009C
  5
10091
331
1009D
  5
10092
331
1009E
  5
10093
331
1009F
  5
10094
331
100A0
  5
10095
331
100A1
  5
10096
331
100A2
  5
10097
331
100A3
  5
10098
331
100A4
  5
10099
331
100A5
  5
1009A
331
100A6
  5
1009B
331
100A7
  5
1009C
331
100A8
  5
1009D
331
100A9
  5
1009E
331
100AA
  5
1009F
331
100AB
  5
100A0
331
100AC
  5
100A1
331
100AD
  5
100A2
331
100AE
  5
100A3
331
100AF
  5
100A4
331
100B0
  5
100A5
331
100B1
  5
100A6
331
100B2
  5
100A7
331
100B3
  5
100A8
331
100B4
  5
100A9
331
100B5
  5
100AA
331
100B6
  5
100AB
331
100B7
  5
100AC
331
100B8
  5
100AD
331
100B9
  5
100AE
331
100BA
  5
100AF
331
100BB
  5
100B0
331
100BC
  5
100B1
331
100BD
  5
100B2
331
100BE
  5
100B3
331
100BF
  5
100B4
331
100C0
  5
100B5
331
100C1
  5
100B6
331
100C2
  5
100B7
331
100C3
  5
100B8
331
100C4
  5
100B9
331
100C5
  5
100BA
331
100C6
  5
100BB
331
100C7
  5
100BC
331
100C8
  5
100BD
331
100C9
  5
100BE
331
100CA
  5
100BF
331
100CB
  5
100C0
331
100CC
  5
100C1
331
100CD
  5
100C2
331
100CE
  5
100C3
331
100CF
  5
100C4
331
100D0
  5
100C5
331
100D1
  5
100C6
331
100D2
  5
100C7
331
100D3
  5
100C8
331
100D4
  5
100C9
331
100D5
  5
100CA
331
100D6
  5
100CB
331
100D7
  5
100CC
331
100D8
  5
100CD
331
100D9
  5
100CE
331
100DA
  5
100CF
331
100DB
  5
100D0
331
100DC
  5
100D1
331
100DD
  5
100D2
331
100DE
  5
100D3
331
100DF
  5
100D4
331
100E0
  5
100D5
331
100E1
  5
100D6
331
100E2
  5
100D7
331
100E3
  5
100D8
331
100E4
  5
100D9
331
100E5
  5
100DA
331
100E6
  5
100DB
331
100E7
  5
100DC
331
100E8
  5
100DD
331
100E9
  5
100DE
331
100EA
  5
100DF
331
100EB
  5
100E0
331
100EC
  5
100E1
331
100ED
  5
100E2
331
100EE
  5
100E3
331
100EF
  5
100E4
331
100F0
  5
100E5
331
100F1
  5
100E6
331
100F2
  5
100E7
331
100F3
  5
100E8
331
100F4
  5
100E9
331
100F5
  5
100EA
331
100F6
  5
100EB
331
100F7
  5
100EC
331
100F8
  5
100ED
331
100F9
  5
100EE
331
100FA
  5
100EF
331
100FB
  5
100F0
331
100FC
  5
100F1
331
100FD
  5
100F2
331
100FE
  5
100F3
331
100FF
  5
100F4
331
10100
  5
100F5
331
10101
  5
100F6
331
10102
  5
100F7
331
10103
  5
100F8
331
10104
  5
100F9
331
10105
  5
100FA
331
10106
  5
100FB
331
10107
  5
100FC
331
10108
  5
100FD
331
10109
  5
100FE
331
1010A
  5
100FF
331
1010B
  5
10100
331
1010C
  5
10101
331
1010D
  5
10102
331
1010E
  5
10103
331
1010F
  5
10104
331
10110
  5
10105
331
10111
  5
10106
331
10112
  5
10107
331
10113
  5
10108
331
10114
  5
10109
331
10115
  5
1010A
331
10116
  5
1010B
331
10117
  5
1010C
331
10118
  5
1010D
331
10119
  5
1010E
331
1011A
  5
1010F
331
1011B
  5
10110
331
1011C
  5
10111
331
1011D
  5
10112
331
1011E
  5
10113
331
1011F
  5
10114
331
10120
  5
10115
331
10121
  5
10116
331
10122
  5
10117
331
10123
  5
10118
331
10124
  5
10119
331
10125
  5
1011A
331
10126
  5
1011B
331
10127
  5
1011C
331
10128
  5
1011D
331
10129
  5
1011E
331
1012A
  5
1011F
331
1012B
  5
10120
331
1012C
  5
10121
331
1012D
  5
10122
331
1012E
  5
10123
331
1012F
  5
10124
331
10130
  5
10125
331
10131
  5
10126
331
10132
  5
10127
331
10133
  5
10128
331
10134
  5
10129
331
10135
  5
1012A
331
10136
  5
1012B
331
10137
  5
1012C
331
10138
  5
1012D
331
10139
  5
1012E
331
1013A
  5
1012F
331
1013B
  5
10130
331
1013C
  5
10131
331
1013D
  5
10132
331
1013E
  5
10133
331
1013F
  5
10134
331
10140
  5
10135
331
10141
  5
10136
331
10142
  5
10137
331
10143
  5
10138
331
10144
  5
10139
331
10145
  5
1013A
331
10146
  5
1013B
331
10147
  5
1013C
331
10148
  5
1013D
331
10149
  5
1013E
331
1014A
  5
1013F
331
1014B
  5
10140
331
1014C
  5
10141
331
1014D
  5
10142
331
1014E
  5
10143
331
1014F
  5
10144
331
10150
  5
10145
331
10151
  5
10146
331
10152
  5
10147
331
10153
  5
10148
331
10154
  5
10149
331
10155
  5
1014A
331
10156
  5
1014B
331
10157
  5
1014C
331
10158
  5
1014D
331
10159
  5
1014E
331
1015A
  5
1014F
331
1015B
  5
10150
331
1015C
  5
10151
331
1015D
  5
10152
331
1015E
  5
10153
331
1015F
  5
10154
331
10160
  5
10155
331
10161
  5
10156
331
10162
  5
10157
331
10163
  5
10158
331
10164
  5
10159
331
10165
  5
1015A
331
10166
  5
1015B
331
10167
  5
1015C
331
10168
  5
1015D
331
10169
  5
1015E
331
1016A
  5
1015F
331
1016B
  5
10160
331
1016C
  5
10161
331
1016D
  5
10162
331
1016E
  5
10163
331
1016F
  5
10164
331
10170
  5
10165
331
10171
  5
10166
331
10172
  5
10167
331
10173
  5
10168
331
10174
  5
10169
331
10175
  5
1016A
331
10176
  5
1016B
331
10177
  5
1016C
331
10178
  5
1016D
331
10179
  5
1016E
331
1017A
  5
1016F
331
1017B
  5
10170
331
1017C
  5
10171
331
1017D
  5
10172
331
1017E
  5
10173
331
1017F
  5
10174
331
10180
  5
10175
331
10181
  5
10176
331
10182
  5
10177
331
10183
  5
10178
331
10184
  5
10179
331
10185
  5
1017A
331
10186
  5
1017B
331
10187
  5
1017C
331
10188
  5
1017D
331
10189
  5
1017E
331
1018A
  5
1017F
331
1018B
  5
10180
331
1018C
  5
10181
331
1018D
  5
10182
331
1018E
  5
10183
331
1018F
  5
10184
331
10190
  5
10185
331
10191
  5
10186
331
10192
  5
10187
331
10193
  5
10188
331
10194
  5
10189
331
10195
  5
1018A
331
10196
  5
1018B
331
10197
  5
1018C
331
10198
  5
1018D
331
10199
  5
1018E
331
1019A
  5
1018F
331
1019B
  5
10190
331
1019C
  5
10191
331
1019D
  5
10192
331
1019E
  5
10193
331
1019F
  5
10194
331
101A0
  5
10195
331
101A1
  5
10196
331
101A2
  5
10197
331
101A3
  5
10198
331
101A4
  5
10199
331
101A5
  5
1019A
331
101A6
  5
1019B
331
101A7
  5
1019C
331
101A8
  5
1019D
331
101A9
  5
1019E
331
101AA
  5
1019F
331
101AB
  5
101A0
331
101AC
  5
101A1
331
101AD
  5
101A2
331
101AE
  5
101A3
331
101AF
  5
101A4
331
101B0
  5
101A5
331
101B1
  5
101A6
331
101B2
  5
101A7
331
101B3
  5
101A8
331
101B4
  5
101A9
331
101B5
  5
101AA
331
101B6
  5
101AB
331
101B7
  5
101AC
331
101B8
  5
101AD
331
101B9
  5
101AE
331
101BA
  5
101AF
331
101BB
  5
101B0
331
101BC
  5
101B1
331
101BD
  5
101B2
331
101BE
  5
101B3
331
101BF
  5
101B4
331
101C0
  5
101B5
331
101C1
  5
101B6
331
101C2
  5
101B7
331
101C3
  5
101B8
331
101C4
  5
101B9
331
101C5
  5
101BA
331
101C6
  5
101BB
331
101C7
  5
101BC
331
101C8
  5
101BD
331
101C9
  5
101BE
331
101CA
  5
101BF
331
101CB
  5
101C0
331
101CC
  5
101C1
331
101CD
  5
101C2
331
101CE
  5
101C3
331
101CF
  5
101C4
331
101D0
  5
101C5
331
101D1
  5
101C6
331
101D2
  5
101C7
331
101D3
  5
101C8
331
101D4
  5
101C9
331
101D5
  5
101CA
331
101D6
  5
101CB
331
101D7
  5
101CC
331
101D8
  5
101CD
331
101D9
  5
101CE
331
101DA
  5
101CF
331
101DB
  5
101D0
331
101DC
  5
101D1
331
101DD
  5
101D2
331
101DE
  5
101D3
331
101DF
  5
101D4
331
101E0
  5
101D5
331
101E1
  5
101D6
331
101E2
  5
101D7
331
101E3
  5
101D8
331
101E4
  5
101D9
331
101E5
  5
101DA
331
101E6
  5
101DB
331
101E7
  5
101DC
331
101E8
  5
101DD
331
101E9
  5
101DE
331
101EA
  5
101DF
331
101EB
  5
101E0
331
101EC
  5
101E1
331
101ED
  5
101E2
331
101EE
  5
101E3
331
101EF
  5
101E4
331
101F0
  5
101E5
331
101F1
  5
101E6
331
101F2
  5
101E7
331
101F3
  5
101E8
331
101F4
  5
101E9
  0
ACDBDETAILVIEWSTYLE
  5
10052
102
{ACAD_XDICTIONARY
360
10228
102
}
102
{ACAD_REACTORS
330
10051
102
}
330
10051
100
AcDbModelDocViewStyle
 70
     0
  3
Imperial24
290
     0
100
AcDbDetailViewStyle
 70
     0
 71
     0
 90
        3
 71
     1
340
11
 62
   256
 40
0.24
340
0
 62
   256
 40
0.24
300

 40
0.36
280
     3
 71
     2
340
0
 90
       25
 62
   256
 71
     3
340
11
 62
   256
 40
0.24
 90
        1
 40
0.75
 90
        1
300
%<\AcVar ViewType \f "%tc1">% %<\AcVar ViewDetailId>%\PSCALE %<\AcVar ViewScale \f "%sn">%
 71
     4
340
0
 90
       25
 62
   256
340
0
 90
       25
 62
   256
280
     0
  0
LAYOUT
  5
10056
102
{ACAD_REACTORS
330
10037
102
}
330
10037
100
AcDbPlotSettings
  1

  2
Microsoft Print to PDF
  4

  6

 40
0.0
 41
0.0
 42
0.0
 43
0.0
 44
0.0
 45
0.0
 46
0.0
 47
0.0
 48
0.0
 49
0.0
140
0.0
141
0.0
142
1.0
143
1.0
 70
   688
 72
     0
 73
     0
 74
     5
  7

 75
    16
147
1.0
 76
     0
 77
     2
 78
   300
148
0.0
149
0.0
100
AcDbLayout
  1
Layout1
 70
     1
 71
     1
 10
0.0
 20
0.0
 11
12.0
 21
9.0
 12
0.0
 22
0.0
 32
0.0
 14
1.000000000000000E+20
 24
1.000000000000000E+20
 34
1.000000000000000E+20
 15
-1.000000000000000E+20
 25
-1.000000000000000E+20
 35
-1.000000000000000E+20
146
0.0
 13
0.0
 23
0.0
 33
0.0
 16
1.0
 26
0.0
 36
0.0
 17
0.0
 27
1.0
 37
0.0
 76
     0
330
1B
  0
LAYOUT
  5
10055
102
{ACAD_REACTORS
330
10037
102
}
330
10037
100
AcDbPlotSettings
  1

  2
Microsoft Print to PDF
  4

  6

 40
0.0
 41
0.0
 42
0.0
 43
0.0
 44
0.0
 45
0.0
 46
0.0
 47
0.0
 48
0.0
 49
0.0
140
0.0
141
0.0
142
1.0
143
1.0
 70
  1712
 72
     0
 73
     0
 74
     0
  7

 75
     0
147
1.0
 76
     0
 77
     2
 78
   300
148
0.0
149
0.0
100
AcDbLayout
  1
Model
 70
     1
 71
     0
 10
0.0
 20
0.0
 11
12.0
 21
9.0
 12
0.0
 22
0.0
 32
0.0
 14
0.0
 24
0.0
 34
0.0
 15
0.0
 25
0.0
 35
0.0
146
0.0
 13
0.0
 23
0.0
 33
0.0
 16
1.0
 26
0.0
 36
0.0
 17
0.0
 27
1.0
 37
0.0
 76
     0
330
1F
331
10059
  0
MATERIAL
  5
1000D
102
{ACAD_XDICTIONARY
360
1000E
102
}
102
{ACAD_REACTORS
330
10004
102
}
330
10004
100
AcDbMaterial
  1
ByBlock
 72
     0
 43
0.0008202099737533
 43
0.0
 43
0.0
 43
0.0
 43
0.0
 43
0.0008202099737533
 43
0.0
 43
0.0
 43
0.0
 43
0.0
 43
1.0
 43
0.0
 43
0.0
 43
0.0
 43
0.0
 43
1.0
 77
     0
 47
0.0008202099737533
 47
0.0
 47
0.0
 47
0.0
 47
0.0
 47
0.0008202099737533
 47
0.0
 47
0.0
 47
0.0
 47
0.0
 47
1.0
 47
0.0
 47
0.0
 47
0.0
 47
0.0
 47
1.0
171
     0
 49
0.0008202099737533
 49
0.0
 49
0.0
 49
0.0
 49
0.0
 49
0.0008202099737533
 49
0.0
 49
0.0
 49
0.0
 49
0.0
 49
1.0
 49
0.0
 49
0.0
 49
0.0
 49
0.0
 49
1.0
175
     0
142
0.0008202099737533
142
0.0
142
0.0
142
0.0
142
0.0
142
0.0008202099737533
142
0.0
142
0.0
142
0.0
142
0.0
142
1.0
142
0.0
142
0.0
142
0.0
142
0.0
142
1.0
179
     0
144
0.0008202099737533
144
0.0
144
0.0
144
0.0
144
0.0
144
0.0008202099737533
144
0.0
144
0.0
144
0.0
144
0.0
144
1.0
144
0.0
144
0.0
144
0.0
144
0.0
144
1.0
147
0.0008202099737533
147
0.0
147
0.0
147
0.0
147
0.0
147
0.0008202099737533
147
0.0
147
0.0
147
0.0
147
0.0
147
1.0
147
0.0
147
0.0
147
0.0
147
0.0
147
1.0
  0
MATERIAL
  5
10005
102
{ACAD_XDICTIONARY
360
10006
102
}
102
{ACAD_REACTORS
330
10004
102
}
330
10004
100
AcDbMaterial
  1
ByLayer
 72
     0
 43
0.0008202099737533
 43
0.0
 43
0.0
 43
0.0
 43
0.0
 43
0.0008202099737533
 43
0.0
 43
0.0
 43
0.0
 43
0.0
 43
1.0
 43
0.0
 43
0.0
 43
0.0
 43
0.0
 43
1.0
 77
     0
 47
0.0008202099737533
 47
0.0
 47
0.0
 47
0.0
 47
0.0
 47
0.0008202099737533
 47
0.0
 47
0.0
 47
0.0
 47
0.0
 47
1.0
 47
0.0
 47
0.0
 47
0.0
 47
0.0
 47
1.0
171
     0
 49
0.0008202099737533
 49
0.0
 49
0.0
 49
0.0
 49
0.0
 49
0.0008202099737533
 49
0.0
 49
0.0
 49
0.0
 49
0.0
 49
1.0
 49
0.0
 49
0.0
 49
0.0
 49
0.0
 49
1.0
175
     0
142
0.0008202099737533
142
0.0
142
0.0
142
0.0
142
0.0
142
0.0008202099737533
142
0.0
142
0.0
142
0.0
142
0.0
142
1.0
142
0.0
142
0.0
142
0.0
142
0.0
142
1.0
179
     0
144
0.0008202099737533
144
0.0
144
0.0
144
0.0
144
0.0
144
0.0008202099737533
144
0.0
144
0.0
144
0.0
144
0.0
144
1.0
144
0.0
144
0.0
144
0.0
144
0.0
144
1.0
147
0.0008202099737533
147
0.0
147
0.0
147
0.0
147
0.0
147
0.0008202099737533
147
0.0
147
0.0
147
0.0
147
0.0
147
1.0
147
0.0
147
0.0
147
0.0
147
0.0
147
1.0
  0
MATERIAL
  5
10015
102
{ACAD_XDICTIONARY
360
10016
102
}
102
{ACAD_REACTORS
330
10004
102
}
330
10004
100
AcDbMaterial
  1
Global
 72
     0
 43
0.0008202099737533
 43
0.0
 43
0.0
 43
0.0
 43
0.0
 43
0.0008202099737533
 43
0.0
 43
0.0
 43
0.0
 43
0.0
 43
1.0
 43
0.0
 43
0.0
 43
0.0
 43
0.0
 43
1.0
 77
     0
 47
0.0008202099737533
 47
0.0
 47
0.0
 47
0.0
 47
0.0
 47
0.0008202099737533
 47
0.0
 47
0.0
 47
0.0
 47
0.0
 47
1.0
 47
0.0
 47
0.0
 47
0.0
 47
0.0
 47
1.0
171
     0
 49
0.0008202099737533
 49
0.0
 49
0.0
 49
0.0
 49
0.0
 49
0.0008202099737533
 49
0.0
 49
0.0
 49
0.0
 49
0.0
 49
1.0
 49
0.0
 49
0.0
 49
0.0
 49
0.0
 49
1.0
175
     0
142
0.0008202099737533
142
0.0
142
0.0
142
0.0
142
0.0
142
0.0008202099737533
142
0.0
142
0.0
142
0.0
142
0.0
142
1.0
142
0.0
142
0.0
142
0.0
142
0.0
142
1.0
179
     0
144
0.0008202099737533
144
0.0
144
0.0
144
0.0
144
0.0
144
0.0008202099737533
144
0.0
144
0.0
144
0.0
144
0.0
144
1.0
144
0.0
144
0.0
144
0.0
144
0.0
144
1.0
147
0.0008202099737533
147
0.0
147
0.0
147
0.0
147
0.0
147
0.0008202099737533
147
0.0
147
0.0
147
0.0
147
0.0
147
1.0
147
0.0
147
0.0
147
0.0
147
0.0
147
1.0
  0
MLEADERSTYLE
  5
1004E
102
{ACAD_REACTORS
330
1004D
102
}
330
1004D
100
AcDbMLeaderStyle
179
     2
170
     2
171
     1
172
     0
 90
        2
 40
0.0
 41
0.0
173
     1
 91
-1056964608
340
14
 92
       -2
290
     1
 42
0.09
291
     1
 43
0.36
  3
Standard
 44
0.18
300

342
11
174
     1
178
     6
175
     1
176
     0
 93
-1056964608
 45
0.18
292
     0
297
     0
 46
0.18
 94
-1056964608
 47
1.0
 49
1.0
140
1.0
293
     1
141
0.0
294
     1
177
     0
142
1.0
295
     0
296
     0
143
0.125
271
     0
272
     9
273
     9
298
     0
  0
MLINESTYLE
  5
1003A
102
{ACAD_REACTORS
330
17
102
}
330
17
100
AcDbMlineStyle
  2
STANDARD
 70
     0
  3

 62
   256
 51
90.0
 52
90.0
 71
     2
 49
0.5
 62
   256
  6
BYLAYER
 49
-0.5
 62
   256
  6
BYLAYER
  0
ACDBPLACEHOLDER
  5
10003
102
{ACAD_REACTORS
330
10002
102
}
330
10002
  0
SCALE
  5
1003C
102
{ACAD_REACTORS
330
1003B
102
}
330
1003B
100
AcDbScale
 70
     0
300
1:1
140
1.0
141
1.0
290
     1
  0
SCALE
  5
1003D
102
{ACAD_REACTORS
330
1003B
102
}
330
1003B
100
AcDbScale
 70
     0
300
1/128" = 1'-0"
140
0.0078125
141
12.0
290
     0
  0
SCALE
  5
1003E
102
{ACAD_REACTORS
330
1003B
102
}
330
1003B
100
AcDbScale
 70
     0
300
1/64" = 1'-0"
140
0.015625
141
12.0
290
     0
  0
SCALE
  5
1003F
102
{ACAD_REACTORS
330
1003B
102
}
330
1003B
100
AcDbScale
 70
     0
300
1/32" = 1'-0"
140
0.03125
141
12.0
290
     0
  0
SCALE
  5
10040
102
{ACAD_REACTORS
330
1003B
102
}
330
1003B
100
AcDbScale
 70
     0
300
1/16" = 1'-0"
140
0.0625
141
12.0
290
     0
  0
SCALE
  5
10041
102
{ACAD_REACTORS
330
1003B
102
}
330
1003B
100
AcDbScale
 70
     0
300
3/32" = 1'-0"
140
0.09375
141
12.0
290
     0
  0
SCALE
  5
10042
102
{ACAD_REACTORS
330
1003B
102
}
330
1003B
100
AcDbScale
 70
     0
300
1/8" = 1'-0"
140
0.125
141
12.0
290
     0
  0
SCALE
  5
10043
102
{ACAD_REACTORS
330
1003B
102
}
330
1003B
100
AcDbScale
 70
     0
300
3/16" = 1'-0"
140
0.1875
141
12.0
290
     0
  0
SCALE
  5
10044
102
{ACAD_REACTORS
330
1003B
102
}
330
1003B
100
AcDbScale
 70
     0
300
1/4" = 1'-0"
140
0.25
141
12.0
290
     0
  0
SCALE
  5
10045
102
{ACAD_REACTORS
330
1003B
102
}
330
1003B
100
AcDbScale
 70
     0
300
3/8" = 1'-0"
140
0.375
141
12.0
290
     0
  0
SCALE
  5
10046
102
{ACAD_REACTORS
330
1003B
102
}
330
1003B
100
AcDbScale
 70
     0
300
1/2" = 1'-0"
140
0.5
141
12.0
290
     0
  0
SCALE
  5
10047
102
{ACAD_REACTORS
330
1003B
102
}
330
1003B
100
AcDbScale
 70
     0
300
3/4" = 1'-0"
140
0.75
141
12.0
290
     0
  0
SCALE
  5
10048
102
{ACAD_REACTORS
330
1003B
102
}
330
1003B
100
AcDbScale
 70
     0
300
1" = 1'-0"
140
1.0
141
12.0
290
     0
  0
SCALE
  5
10049
102
{ACAD_REACTORS
330
1003B
102
}
330
1003B
100
AcDbScale
 70
     0
300
1-1/2" = 1'-0"
140
1.5
141
12.0
290
     0
  0
SCALE
  5
1004A
102
{ACAD_REACTORS
330
1003B
102
}
330
1003B
100
AcDbScale
 70
     0
300
3" = 1'-0"
140
3.0
141
12.0
290
     0
  0
SCALE
  5
1004B
102
{ACAD_REACTORS
330
1003B
102
}
330
1003B
100
AcDbScale
 70
     0
300
6" = 1'-0"
140
6.0
141
12.0
290
     0
  0
SCALE
  5
1004C
102
{ACAD_REACTORS
330
1003B
102
}
330
1003B
100
AcDbScale
 70
     0
300
1'-0" = 1'-0"
140
12.0
141
12.0
290
     0
  0
ACDBSECTIONVIEWSTYLE
  5
10050
102
{ACAD_XDICTIONARY
360
10226
102
}
102
{ACAD_REACTORS
330
1004F
102
}
330
1004F
100
AcDbModelDocViewStyle
 70
     0
  3
Imperial24
290
     0
100
AcDbSectionViewStyle
 70
     0
 71
     0
 90
       78
 71
     1
340
11
 62
   256
 40
0.24
340
0
340
0
 62
   256
 40
0.24
300
I, O, Q, S, X, Z
 40
0.48
 90
        3
 40
0.18
 90
        1
 71
     2
340
0
 90
       25
 62
   256
340
0
 90
       50
 62
   256
 40
0.24
 40
0.0
 40
0.24
 71
     3
340
11
 62
   256
 40
0.24
 90
        1
 40
0.75
 90
        1
300
%<\AcVar ViewType \f "%tc1">% %<\AcVar ViewSectionStartId>%-%<\AcVar ViewSectionEndId>%\PSCALE %<\AcVar ViewScale \f "%sn">%
 71
     4
 62
   256
 62
   257
300
ANSI31
 40
1.0
 90
        0
290
     0
290
     0
 90
        6
 40
0.0
 40
1.570796326794896
 40
0.2617993877991494
 40
1.308996938995747
 40
-0.2617993877991494
 40
1.832595714594046
  0
TABLESTYLE
  5
10039
102
{ACAD_XDICTIONARY
360
10223
102
}
102
{ACAD_REACTORS
330
10038
102
}
330
10038
100
AcDbTableStyle
280
     0
  3
Standard
 70
     0
 71
     0
 40
0.06
 41
0.06
280
     0
281
     0
  7
STANDARD
140
0.18
170
     2
 62
     0
 63
     7
283
     0
 90
      512
 91
        0
  1

274
    -2
284
     1
 64
     0
275
    -2
285
     1
 65
     0
276
    -2
286
     1
 66
     0
277
    -2
287
     1
 67
     0
278
    -2
288
     1
 68
     0
279
    -2
289
     1
 69
     0
  7
STANDARD
140
0.25
170
     5
 62
     0
 63
     7
283
     0
 90
      512
 91
        0
  1

274
    -2
284
     1
 64
     0
275
    -2
285
     1
 65
     0
276
    -2
286
     1
 66
     0
277
    -2
287
     1
 67
     0
278
    -2
288
     1
 68
     0
279
    -2
289
     1
 69
     0
  7
STANDARD
140
0.18
170
     5
 62
     0
 63
     7
283
     0
 90
      512
 91
        0
  1

274
    -2
284
     1
 64
     0
275
    -2
285
     1
 65
     0
276
    -2
286
     1
 66
     0
277
    -2
287
     1
 67
     0
278
    -2
288
     1
 68
     0
279
    -2
289
     1
 69
     0
  0
VISUALSTYLE
  5
10023
102
{ACAD_REACTORS
330
1001D
102
}
330
1001D
100
AcDbVisualStyle
  2
2dWireframe
 70
     4
177
     3
291
     0
 70
    58
 90
        0
176
     1
 90
        2
176
     1
 90
        0
176
     1
 90
        0
176
     1
 40
0.6
176
     1
 40
30.0
176
     1
 62
     7
420
 16777215
176
     1
 90
        1
176
     1
 90
        4
176
     1
 62
     7
176
     1
 62
   257
176
     1
 90
        1
176
     1
 90
        1
176
     1
 40
1.0
176
     1
 90
        0
176
     1
 62
   257
176
     1
 40
1.0
176
     1
 90
        1
176
     1
 90
        6
176
     1
 90
        2
176
     1
 62
     7
176
     1
 90
        5
176
     1
 90
        0
176
     1
 90
        0
176
     1
290
     0
176
     1
 90
        1
176
     1
 40
0.0
176
     1
 90
        0
176
     1
290
     1
176
     1
290
     1
176
     1
290
     0
176
     1
290
     0
176
     1
290
     0
176
     1
290
     0
176
     1
290
     0
176
     1
290
     0
176
     1
290
     0
176
     1
 90
       50
176
     1
 40
0.0
176
     1
 40
1.0
176
     1
 90
        0
176
     1
 62
    18
420
        0
176
     1
 90
       50
176
     1
 90
        3
176
     1
 62
     5
420
      255
176
     1
290
     0
176
     1
 90
       50
176
     1
 90
       50
176
     1
 90
       50
176
     1
290
     0
176
     1
 90
       50
176
     1
 62
   256
176
     0
 40
1.0
176
     0
 90
        2
176
     1
  1
strokes_ogs.tif
176
     1
290
     0
176
     1
 40
1.0
176
     1
 40
1.0
176
     1
1001
ACAD
1000
AcDbSavedByObjectVersion
1070
     0
  0
VISUALSTYLE
  5
10022
102
{ACAD_REACTORS
330
1001D
102
}
330
1001D
100
AcDbVisualStyle
  2
Basic
 70
     7
177
     3
291
     1
 70
    58
 90
        1
176
     1
 90
        0
176
     1
 90
        1
176
     1
 90
        0
176
     1
 40
0.6
176
     1
 40
30.0
176
     1
 62
     7
420
 16777215
176
     1
 90
        0
176
     1
 90
        4
176
     1
 62
     7
176
     1
 62
   257
176
     1
 90
        1
176
     1
 90
        1
176
     1
 40
1.0
176
     1
 90
        8
176
     1
 62
     7
176
     1
 40
1.0
176
     1
 90
        1
176
     1
 90
        6
176
     1
 90
        2
176
     1
 62
     7
176
     1
 90
        5
176
     1
 90
        0
176
     1
 90
        0
176
     1
290
     0
176
     1
 90
        1
176
     1
 40
0.0
176
     1
 90
        0
176
     1
290
     0
176
     1
290
     1
176
     1
290
     1
176
     1
290
     0
176
     1
290
     0
176
     1
290
     0
176
     1
290
     0
176
     1
290
     0
176
     1
290
     0
176
     1
 90
       50
176
     1
 40
0.0
176
     1
 40
1.0
176
     1
 90
        0
176
     1
 62
    18
420
        0
176
     1
 90
       50
176
     1
 90
        3
176
     1
 62
     5
420
      255
176
     1
290
     0
176
     1
 90
       50
176
     1
 90
       50
176
     1
 90
       50
176
     1
290
     0
176
     1
 90
       50
176
     1
 62
   256
176
     0
 40
1.0
176
     0
 90
        2
176
     1
  1
strokes_ogs.tif
176
     1
290
     0
176
     1
 40
1.0
176
     1
 40
1.0
176
     1
1001
ACAD
1000
AcDbSavedByObjectVersion
1070
     0
  0
VISUALSTYLE
  5
10029
102
{ACAD_REACTORS
330
1001D
102
}
330
1001D
100
AcDbVisualStyle
  2
Brighten
 70
    12
177
     3
291
     1
 70
    58
 90
        2
176
     1
 90
        2
176
     1
 90
        0
176
     1
 90
        0
176
     1
 40
0.6
176
     1
 40
30.0
176
     1
 62
     7
420
 16777215
176
     1
 90
        1
176
     1
 90
        4
176
     1
 62
     7
176
     1
 62
   257
176
     1
 90
        1
176
     1
 90
        1
176
     1
 40
1.0
176
     1
 90
        8
176
     1
 62
     7
176
     1
 40
1.0
176
     1
 90
        1
176
     1
 90
        6
176
     1
 90
        2
176
     1
 62
     7
176
     1
 90
        5
176
     1
 90
        0
176
     1
 90
        0
176
     1
290
     0
176
     1
 90
        1
176
     1
 40
50.0
176
     1
 90
        0
176
     1
290
     0
176
     1
290
     1
176
     1
290
     1
176
     1
290
     0
176
     1
290
     0
176
     1
290
     0
176
     1
290
     0
176
     1
290
     0
176
     1
290
     0
176
     1
 90
       50
176
     1
 40
0.0
176
     1
 40
1.0
176
     1
 90
        0
176
     1
 62
    18
420
        0
176
     1
 90
       50
176
     1
 90
        3
176
     1
 62
     5
420
      255
176
     1
290
     0
176
     1
 90
       50
176
     1
 90
       50
176
     1
 90
       50
176
     1
290
     0
176
     1
 90
       50
176
     1
 62
   256
176
     0
 40
1.0
176
     0
 90
        2
176
     1
  1
strokes_ogs.tif
176
     1
290
     0
176
     1
 40
1.0
176
     1
 40
1.0
176
     1
1001
ACAD
1000
AcDbSavedByObjectVersion
1070
     0
  0
VISUALSTYLE
  5
1002D
102
{ACAD_REACTORS
330
1001D
102
}
330
1001D
100
AcDbVisualStyle
  2
ColorChange
 70
    16
177
     3
291
     1
 70
    58
 90
        2
176
     1
 90
        2
176
     1
 90
        3
176
     1
 90
        0
176
     1
 40
0.6
176
     1
 40
30.0
176
     1
 62
     8
420
  8421504
176
     1
 90
        1
176
     1
 90
        4
176
     1
 62
     7
176
     1
 62
   257
176
     1
 90
        1
176
     1
 90
        1
176
     1
 40
1.0
176
     1
 90
        8
176
     1
 62
     8
420
  8421504
176
     1
 40
1.0
176
     1
 90
        1
176
     1
 90
        6
176
     1
 90
        2
176
     1
 62
     7
176
     1
 90
        5
176
     1
 90
        0
176
     1
 90
        0
176
     1
290
     0
176
     1
 90
        1
176
     1
 40
0.0
176
     1
 90
        0
176
     1
290
     0
176
     1
290
     1
176
     1
290
     1
176
     1
290
     0
176
     1
290
     0
176
     1
290
     0
176
     1
290
     0
176
     1
290
     0
176
     1
290
     0
176
     1
 90
       50
176
     1
 40
0.0
176
     1
 40
1.0
176
     1
 90
        0
176
     1
 62
    18
420
        0
176
     1
 90
       50
176
     1
 90
        3
176
     1
 62
     5
420
      255
176
     1
290
     0
176
     1
 90
       50
176
     1
 90
       50
176
     1
 90
       50
176
     1
290
     0
176
     1
 90
       50
176
     1
 62
   256
176
     0
 40
1.0
176
     0
 90
        2
176
     1
  1
strokes_ogs.tif
176
     1
290
     0
176
     1
 40
1.0
176
     1
 40
1.0
176
     1
1001
ACAD
1000
AcDbSavedByObjectVersion
1070
     0
  0
VISUALSTYLE
  5
10026
102
{ACAD_REACTORS
330
1001D
102
}
330
1001D
100
AcDbVisualStyle
  2
Conceptual
 70
     9
177
     3
291
     0
 70
    58
 90
        3
176
     1
 90
        2
176
     1
 90
        0
176
     1
 90
        0
176
     1
 40
0.6
176
     1
 40
30.0
176
     1
 62
     7
420
 16777215
176
     1
 90
        2
176
     1
 90
        2
176
     1
 62
     7
176
     1
 62
   257
176
     1
 90
        1
176
     1
 90
        1
176
     1
 40
179.0
176
     1
 90
        8
176
     1
 62
     7
176
     1
 40
1.0
176
     1
 90
        1
176
     1
 90
        6
176
     1
 90
        2
176
     1
 62
     7
176
     1
 90
        3
176
     1
 90
        0
176
     1
 90
        0
176
     1
290
     0
176
     1
 90
        1
176
     1
 40
0.0
176
     1
 90
        0
176
     1
290
     0
176
     1
290
     1
176
     1
290
     1
176
     1
290
     0
176
     1
290
     0
176
     1
290
     0
176
     1
290
     0
176
     1
290
     0
176
     1
290
     0
176
     1
 90
       50
176
     1
 40
0.0
176
     1
 40
1.0
176
     1
 90
        0
176
     1
 62
    18
420
        0
176
     1
 90
       50
176
     1
 90
        3
176
     1
 62
     5
420
      255
176
     1
290
     0
176
     1
 90
       50
176
     1
 90
       50
176
     1
 90
       50
176
     1
290
     0
176
     1
 90
       50
176
     1
 62
   256
176
     0
 40
1.0
176
     0
 90
        2
176
     1
  1
strokes_ogs.tif
176
     1
290
     0
176
     1
 40
1.0
176
     1
 40
1.0
176
     1
1001
ACAD
1000
AcDbSavedByObjectVersion
1070
     0
  0
VISUALSTYLE
  5
10028
102
{ACAD_REACTORS
330
1001D
102
}
330
1001D
100
AcDbVisualStyle
  2
Dim
 70
    11
177
     3
291
     1
 70
    58
 90
        2
176
     1
 90
        2
176
     1
 90
        0
176
     1
 90
        0
176
     1
 40
0.6
176
     1
 40
30.0
176
     1
 62
     7
420
 16777215
176
     1
 90
        1
176
     1
 90
        4
176
     1
 62
     7
176
     1
 62
   257
176
     1
 90
        1
176
     1
 90
        1
176
     1
 40
1.0
176
     1
 90
        8
176
     1
 62
     7
176
     1
 40
1.0
176
     1
 90
        1
176
     1
 90
        6
176
     1
 90
        2
176
     1
 62
     7
176
     1
 90
        5
176
     1
 90
        0
176
     1
 90
        0
176
     1
290
     0
176
     1
 90
        1
176
     1
 40
-50.0
176
     1
 90
        0
176
     1
290
     0
176
     1
290
     1
176
     1
290
     1
176
     1
290
     0
176
     1
290
     0
176
     1
290
     0
176
     1
290
     0
176
     1
290
     0
176
     1
290
     0
176
     1
 90
       50
176
     1
 40
0.0
176
     1
 40
1.0
176
     1
 90
        0
176
     1
 62
    18
420
        0
176
     1
 90
       50
176
     1
 90
        3
176
     1
 62
     5
420
      255
176
     1
290
     0
176
     1
 90
       50
176
     1
 90
       50
176
     1
 90
       50
176
     1
290
     0
176
     1
 90
       50
176
     1
 62
   256
176
     0
 40
1.0
176
     0
 90
        2
176
     1
  1
strokes_ogs.tif
176
     1
290
     0
176
     1
 40
1.0
176
     1
 40
1.0
176
     1
1001
ACAD
1000
AcDbSavedByObjectVersion
1070
     0
  0
VISUALSTYLE
  5
10035
102
{ACAD_REACTORS
330
1001D
102
}
330
1001D
100
AcDbVisualStyle
  2
EdgeColorOff
 70
    22
177
     3
291
     1
 70
    58
 90
        2
176
     0
 90
        2
176
     0
 90
        0
176
     0
 90
        0
176
     0
 40
0.6
176
     0
 40
30.0
176
     0
 62
     7
420
 16777215
176
     0
 90
        1
176
     0
 90
        4
176
     0
 62
     7
176
     0
 62
   257
176
     0
 90
        1
176
     0
 90
        1
176
     0
 40
1.0
176
     0
 90
        8
176
     2
 62
     7
176
     0
 40
1.0
176
     0
 90
        1
176
     0
 90
        6
176
     0
 90
        2
176
     0
 62
     7
176
     0
 90
        5
176
     0
 90
        0
176
     0
 90
        0
176
     0
290
     0
176
     0
 90
        1
176
     0
 40
0.0
176
     0
 90
        0
176
     0
290
     0
176
     1
290
     1
176
     1
290
     1
176
     1
290
     0
176
     1
290
     0
176
     1
290
     0
176
     1
290
     0
176
     1
290
     0
176
     1
290
     0
176
     1
 90
       50
176
     0
 40
0.0
176
     0
 40
1.0
176
     0
 90
        0
176
     0
 62
    18
420
        0
176
     0
 90
       50
176
     0
 90
        3
176
     0
 62
     5
420
      255
176
     0
290
     0
176
     1
 90
       50
176
     0
 90
       50
176
     0
 90
       50
176
     0
290
     0
176
     1
 90
       50
176
     0
 62
   256
176
     0
 40
1.0
176
     0
 90
        2
176
     0
  1
strokes_ogs.tif
176
     0
290
     0
176
     1
 40
1.0
176
     0
 40
1.0
176
     0
1001
ACAD
1000
AcDbSavedByObjectVersion
1070
     0
  0
VISUALSTYLE
  5
1002C
102
{ACAD_REACTORS
330
1001D
102
}
330
1001D
100
AcDbVisualStyle
  2
Facepattern
 70
    15
177
     3
291
     1
 70
    58
 90
        2
176
     1
 90
        2
176
     1
 90
        0
176
     1
 90
        0
176
     1
 40
0.6
176
     1
 40
30.0
176
     1
 62
     7
420
 16777215
176
     1
 90
        1
176
     1
 90
        4
176
     1
 62
     7
176
     1
 62
   257
176
     1
 90
        1
176
     1
 90
        1
176
     1
 40
1.0
176
     1
 90
        8
176
     1
 62
     7
176
     1
 40
1.0
176
     1
 90
        1
176
     1
 90
        6
176
     1
 90
        2
176
     1
 62
     7
176
     1
 90
        5
176
     1
 90
        0
176
     1
 90
        0
176
     1
290
     0
176
     1
 90
        1
176
     1
 40
0.0
176
     1
 90
        0
176
     1
290
     0
176
     1
290
     1
176
     1
290
     1
176
     1
290
     0
176
     1
290
     0
176
     1
290
     0
176
     1
290
     0
176
     1
290
     0
176
     1
290
     0
176
     1
 90
       50
176
     1
 40
0.0
176
     1
 40
1.0
176
     1
 90
        0
176
     1
 62
    18
420
        0
176
     1
 90
       50
176
     1
 90
        3
176
     1
 62
     5
420
      255
176
     1
290
     0
176
     1
 90
       50
176
     1
 90
       50
176
     1
 90
       50
176
     1
290
     0
176
     1
 90
       50
176
     1
 62
   256
176
     0
 40
1.0
176
     0
 90
        2
176
     1
  1
strokes_ogs.tif
176
     1
290
     0
176
     1
 40
1.0
176
     1
 40
1.0
176
     1
1001
ACAD
1000
AcDbSavedByObjectVersion
1070
     0
  0
VISUALSTYLE
  5
1001E
102
{ACAD_REACTORS
330
1001D
102
}
330
1001D
100
AcDbVisualStyle
  2
Flat
 70
     0
177
     3
291
     1
 70
    58
 90
        2
176
     1
 90
        1
176
     1
 90
        1
176
     1
 90
        2
176
     1
 40
0.6
176
     1
 40
30.0
176
     1
 62
     7
420
 16777215
176
     1
 90
        0
176
     1
 90
        0
176
     1
 62
     7
176
     1
 62
   257
176
     1
 90
        1
176
     1
 90
        1
176
     1
 40
1.0
176
     1
 90
        8
176
     1
 62
     7
176
     1
 40
1.0
176
     1
 90
        1
176
     1
 90
        6
176
     1
 90
        2
176
     1
 62
     7
176
     1
 90
        5
176
     1
 90
        0
176
     1
 90
        0
176
     1
290
     0
176
     1
 90
       13
176
     1
 40
0.0
176
     1
 90
        0
176
     1
290
     0
176
     1
290
     1
176
     1
290
     1
176
     1
290
     0
176
     1
290
     0
176
     1
290
     0
176
     1
290
     0
176
     1
290
     0
176
     1
290
     0
176
     1
 90
       50
176
     1
 40
0.0
176
     1
 40
1.0
176
     1
 90
        0
176
     1
 62
    18
420
        0
176
     1
 90
       50
176
     1
 90
        3
176
     1
 62
     5
420
      255
176
     1
290
     0
176
     1
 90
       50
176
     1
 90
       50
176
     1
 90
       50
176
     1
290
     0
176
     1
 90
       50
176
     1
 62
   256
176
     0
 40
1.0
176
     0
 90
        2
176
     1
  1
strokes_ogs.tif
176
     1
290
     0
176
     1
 40
1.0
176
     1
 40
1.0
176
     1
1001
ACAD
1000
AcDbSavedByObjectVersion
1070
     0
  0
VISUALSTYLE
  5
1001F
102
{ACAD_REACTORS
330
1001D
102
}
330
1001D
100
AcDbVisualStyle
  2
FlatWithEdges
 70
     1
177
     3
291
     1
 70
    58
 90
        2
176
     1
 90
        1
176
     1
 90
        1
176
     1
 90
        2
176
     1
 40
0.6
176
     1
 40
30.0
176
     1
 62
     7
420
 16777215
176
     1
 90
        1
176
     1
 90
        0
176
     1
 62
     7
176
     1
 62
   257
176
     1
 90
        1
176
     1
 90
        1
176
     1
 40
1.0
176
     1
 90
        0
176
     1
 62
   257
176
     1
 40
1.0
176
     1
 90
        1
176
     1
 90
        6
176
     1
 90
        2
176
     1
 62
     7
176
     1
 90
        5
176
     1
 90
        0
176
     1
 90
        0
176
     1
290
     0
176
     1
 90
       13
176
     1
 40
0.0
176
     1
 90
        0
176
     1
290
     0
176
     1
290
     1
176
     1
290
     1
176
     1
290
     0
176
     1
290
     0
176
     1
290
     0
176
     1
290
     0
176
     1
290
     0
176
     1
290
     0
176
     1
 90
       50
176
     1
 40
0.0
176
     1
 40
1.0
176
     1
 90
        0
176
     1
 62
    18
420
        0
176
     1
 90
       50
176
     1
 90
        3
176
     1
 62
     5
420
      255
176
     1
290
     0
176
     1
 90
       50
176
     1
 90
       50
176
     1
 90
       50
176
     1
290
     0
176
     1
 90
       50
176
     1
 62
   256
176
     0
 40
1.0
176
     0
 90
        2
176
     1
  1
strokes_ogs.tif
176
     1
290
     0
176
     1
 40
1.0
176
     1
 40
1.0
176
     1
1001
ACAD
1000
AcDbSavedByObjectVersion
1070
     0
  0
VISUALSTYLE
  5
10020
102
{ACAD_REACTORS
330
1001D
102
}
330
1001D
100
AcDbVisualStyle
  2
Gouraud
 70
     2
177
     3
291
     1
 70
    58
 90
        2
176
     1
 90
        2
176
     1
 90
        1
176
     1
 90
        2
176
     1
 40
0.6
176
     1
 40
30.0
176
     1
 62
     7
420
 16777215
176
     1
 90
        0
176
     1
 90
        0
176
     1
 62
     7
176
     1
 62
   257
176
     1
 90
        1
176
     1
 90
        1
176
     1
 40
1.0
176
     1
 90
        0
176
     1
 62
     7
176
     1
 40
1.0
176
     1
 90
        1
176
     1
 90
        6
176
     1
 90
        2
176
     1
 62
     7
176
     1
 90
        5
176
     1
 90
        0
176
     1
 90
        0
176
     1
290
     0
176
     1
 90
       13
176
     1
 40
0.0
176
     1
 90
        0
176
     1
290
     0
176
     1
290
     1
176
     1
290
     1
176
     1
290
     0
176
     1
290
     0
176
     1
290
     0
176
     1
290
     0
176
     1
290
     0
176
     1
290
     0
176
     1
 90
       50
176
     1
 40
0.0
176
     1
 40
1.0
176
     1
 90
        0
176
     1
 62
    18
420
        0
176
     1
 90
       50
176
     1
 90
        3
176
     1
 62
     5
420
      255
176
     1
290
     0
176
     1
 90
       50
176
     1
 90
       50
176
     1
 90
       50
176
     1
290
     0
176
     1
 90
       50
176
     1
 62
   256
176
     0
 40
1.0
176
     0
 90
        2
176
     1
  1
strokes_ogs.tif
176
     1
290
     0
176
     1
 40
1.0
176
     1
 40
1.0
176
     1
1001
ACAD
1000
AcDbSavedByObjectVersion
1070
     0
  0
VISUALSTYLE
  5
10021
102
{ACAD_REACTORS
330
1001D
102
}
330
1001D
100
AcDbVisualStyle
  2
GouraudWithEdges
 70
     3
177
     3
291
     1
 70
    58
 90
        2
176
     1
 90
        2
176
     1
 90
        1
176
     1
 90
        2
176
     1
 40
0.6
176
     1
 40
30.0
176
     1
 62
     7
420
 16777215
176
     1
 90
        1
176
     1
 90
        0
176
     1
 62
     7
176
     1
 62
   257
176
     1
 90
        1
176
     1
 90
        1
176
     1
 40
1.0
176
     1
 90
        0
176
     1
 62
   257
176
     1
 40
1.0
176
     1
 90
        1
176
     1
 90
        6
176
     1
 90
        2
176
     1
 62
     7
176
     1
 90
        5
176
     1
 90
        0
176
     1
 90
        0
176
     1
290
     0
176
     1
 90
       13
176
     1
 40
0.0
176
     1
 90
        0
176
     1
290
     0
176
     1
290
     1
176
     1
290
     1
176
     1
290
     0
176
     1
290
     0
176
     1
290
     0
176
     1
290
     0
176
     1
290
     0
176
     1
290
     0
176
     1
 90
       50
176
     1
 40
0.0
176
     1
 40
1.0
176
     1
 90
        0
176
     1
 62
    18
420
        0
176
     1
 90
       50
176
     1
 90
        3
176
     1
 62
     5
420
      255
176
     1
290
     0
176
     1
 90
       50
176
     1
 90
       50
176
     1
 90
       50
176
     1
290
     0
176
     1
 90
       50
176
     1
 62
   256
176
     0
 40
1.0
176
     0
 90
        2
176
     1
  1
strokes_ogs.tif
176
     1
290
     0
176
     1
 40
1.0
176
     1
 40
1.0
176
     1
1001
ACAD
1000
AcDbSavedByObjectVersion
1070
     0
  0
VISUALSTYLE
  5
10025
102
{ACAD_REACTORS
330
1001D
102
}
330
1001D
100
AcDbVisualStyle
  2
Hidden
 70
     6
177
     3
291
     0
 70
    58
 90
        1
176
     1
 90
        2
176
     1
 90
        2
176
     1
 90
        0
176
     1
 40
0.6
176
     1
 40
30.0
176
     1
 62
     7
420
 16777215
176
     1
 90
        2
176
     1
 90
        2
176
     1
 62
     7
176
     1
 62
   257
176
     1
 90
        2
176
     1
 90
        1
176
     1
 40
40.0
176
     1
 90
        0
176
     1
 62
   257
176
     1
 40
1.0
176
     1
 90
        1
176
     1
 90
        6
176
     1
 90
        2
176
     1
 62
     7
176
     1
 90
        3
176
     1
 90
        0
176
     1
 90
        0
176
     1
290
     0
176
     1
 90
        1
176
     1
 40
0.0
176
     1
 90
        0
176
     1
290
     0
176
     1
290
     1
176
     1
290
     1
176
     1
290
     0
176
     1
290
     0
176
     1
290
     0
176
     1
290
     0
176
     1
290
     0
176
     1
290
     0
176
     1
 90
       50
176
     1
 40
0.0
176
     1
 40
1.0
176
     1
 90
        0
176
     1
 62
    18
420
        0
176
     1
 90
       50
176
     1
 90
        3
176
     1
 62
     5
420
      255
176
     1
290
     0
176
     1
 90
       50
176
     1
 90
       50
176
     1
 90
       50
176
     1
290
     0
176
     1
 90
       50
176
     1
 62
   256
176
     0
 40
1.0
176
     0
 90
        2
176
     1
  1
strokes_ogs.tif
176
     1
290
     0
176
     1
 40
1.0
176
     1
 40
1.0
176
     1
1001
ACAD
1000
AcDbSavedByObjectVersion
1070
     0
  0
VISUALSTYLE
  5
10033
102
{ACAD_REACTORS
330
1001D
102
}
330
1001D
100
AcDbVisualStyle
  2
JitterOff
 70
    20
177
     3
291
     1
 70
    58
 90
        2
176
     0
 90
        2
176
     0
 90
        0
176
     0
 90
        0
176
     0
 40
0.6
176
     0
 40
30.0
176
     0
 62
     7
420
 16777215
176
     0
 90
        1
176
     0
 90
        4
176
     0
 62
     7
176
     0
 62
   257
176
     0
 90
        1
176
     0
 90
        1
176
     0
 40
1.0
176
     0
 90
       10
176
     2
 62
     7
176
     0
 40
1.0
176
     0
 90
        1
176
     0
 90
        6
176
     0
 90
        2
176
     0
 62
     7
176
     0
 90
        5
176
     0
 90
        0
176
     0
 90
        0
176
     0
290
     0
176
     0
 90
        1
176
     0
 40
0.0
176
     0
 90
        0
176
     0
290
     0
176
     1
290
     1
176
     1
290
     1
176
     1
290
     0
176
     1
290
     0
176
     1
290
     0
176
     1
290
     0
176
     1
290
     0
176
     1
290
     0
176
     1
 90
       50
176
     0
 40
0.0
176
     0
 40
1.0
176
     0
 90
        0
176
     0
 62
    18
420
        0
176
     0
 90
       50
176
     0
 90
        3
176
     0
 62
     5
420
      255
176
     0
290
     0
176
     1
 90
       50
176
     0
 90
       50
176
     0
 90
       50
176
     0
290
     0
176
     1
 90
       50
176
     0
 62
   256
176
     0
 40
1.0
176
     0
 90
        2
176
     0
  1
strokes_ogs.tif
176
     0
290
     0
176
     1
 40
1.0
176
     0
 40
1.0
176
     0
1001
ACAD
1000
AcDbSavedByObjectVersion
1070
     0
  0
VISUALSTYLE
  5
1002B
102
{ACAD_REACTORS
330
1001D
102
}
330
1001D
100
AcDbVisualStyle
  2
Linepattern
 70
    14
177
     3
291
     1
 70
    58
 90
        2
176
     1
 90
        2
176
     1
 90
        0
176
     1
 90
        0
176
     1
 40
0.6
176
     1
 40
30.0
176
     1
 62
     7
420
 16777215
176
     1
 90
        1
176
     1
 90
        4
176
     1
 62
     7
176
     1
 62
   257
176
     1
 90
        7
176
     1
 90
        7
176
     1
 40
1.0
176
     1
 90
        8
176
     1
 62
     7
176
     1
 40
1.0
176
     1
 90
        1
176
     1
 90
        6
176
     1
 90
        2
176
     1
 62
     7
176
     1
 90
        5
176
     1
 90
        0
176
     1
 90
        0
176
     1
290
     0
176
     1
 90
        1
176
     1
 40
0.0
176
     1
 90
        0
176
     1
290
     0
176
     1
290
     1
176
     1
290
     1
176
     1
290
     0
176
     1
290
     0
176
     1
290
     0
176
     1
290
     0
176
     1
290
     0
176
     1
290
     0
176
     1
 90
       50
176
     1
 40
0.0
176
     1
 40
1.0
176
     1
 90
        0
176
     1
 62
    18
420
        0
176
     1
 90
       50
176
     1
 90
        3
176
     1
 62
     5
420
      255
176
     1
290
     0
176
     1
 90
       50
176
     1
 90
       50
176
     1
 90
       50
176
     1
290
     0
176
     1
 90
       50
176
     1
 62
   256
176
     0
 40
1.0
176
     0
 90
        2
176
     1
  1
strokes_ogs.tif
176
     1
290
     0
176
     1
 40
1.0
176
     1
 40
1.0
176
     1
1001
ACAD
1000
AcDbSavedByObjectVersion
1070
     0
  0
VISUALSTYLE
  5
10034
102
{ACAD_REACTORS
330
1001D
102
}
330
1001D
100
AcDbVisualStyle
  2
OverhangOff
 70
    21
177
     3
291
     1
 70
    58
 90
        2
176
     0
 90
        2
176
     0
 90
        0
176
     0
 90
        0
176
     0
 40
0.6
176
     0
 40
30.0
176
     0
 62
     7
420
 16777215
176
     0
 90
        1
176
     0
 90
        4
176
     0
 62
     7
176
     0
 62
   257
176
     0
 90
        1
176
     0
 90
        1
176
     0
 40
1.0
176
     0
 90
        9
176
     2
 62
     7
176
     0
 40
1.0
176
     0
 90
        1
176
     0
 90
        6
176
     0
 90
        2
176
     0
 62
     7
176
     0
 90
        5
176
     0
 90
        0
176
     0
 90
        0
176
     0
290
     0
176
     0
 90
        1
176
     0
 40
0.0
176
     0
 90
        0
176
     0
290
     0
176
     1
290
     1
176
     1
290
     1
176
     1
290
     0
176
     1
290
     0
176
     1
290
     0
176
     1
290
     0
176
     1
290
     0
176
     1
290
     0
176
     1
 90
       50
176
     0
 40
0.0
176
     0
 40
1.0
176
     0
 90
        0
176
     0
 62
    18
420
        0
176
     0
 90
       50
176
     0
 90
        3
176
     0
 62
     5
420
      255
176
     0
290
     0
176
     1
 90
       50
176
     0
 90
       50
176
     0
 90
       50
176
     0
290
     0
176
     1
 90
       50
176
     0
 62
   256
176
     0
 40
1.0
176
     0
 90
        2
176
     0
  1
strokes_ogs.tif
176
     0
290
     0
176
     1
 40
1.0
176
     0
 40
1.0
176
     0
1001
ACAD
1000
AcDbSavedByObjectVersion
1070
     0
  0
VISUALSTYLE
  5
10027
102
{ACAD_REACTORS
330
1001D
102
}
330
1001D
100
AcDbVisualStyle
  2
Realistic
 70
     8
177
     3
291
     0
 70
    58
 90
        2
176
     1
 90
        3
176
     1
 90
        0
176
     1
 90
        2
176
     1
 40
0.6
176
     1
 40
30.0
176
     1
 62
     7
420
 16777215
176
     1
 90
        0
176
     1
 90
        0
176
     1
 62
     7
176
     1
 62
   257
176
     1
 90
        1
176
     1
 90
        1
176
     1
 40
1.0
176
     1
 90
        8
176
     1
 62
   257
176
     1
 40
1.0
176
     1
 90
        1
176
     1
 90
        6
176
     1
 90
        2
176
     1
 62
     7
176
     1
 90
        3
176
     1
 90
        0
176
     1
 90
        0
176
     1
290
     0
176
     1
 90
       13
176
     1
 40
0.0
176
     1
 90
        0
176
     1
290
     0
176
     1
290
     1
176
     1
290
     1
176
     1
290
     0
176
     1
290
     0
176
     1
290
     0
176
     1
290
     0
176
     1
290
     0
176
     1
290
     0
176
     1
 90
       50
176
     1
 40
0.0
176
     1
 40
1.0
176
     1
 90
        0
176
     1
 62
    18
420
        0
176
     1
 90
       50
176
     1
 90
        3
176
     1
 62
     5
420
      255
176
     1
290
     0
176
     1
 90
       50
176
     1
 90
       50
176
     1
 90
       50
176
     1
290
     0
176
     1
 90
       50
176
     1
 62
   256
176
     0
 40
1.0
176
     0
 90
        2
176
     1
  1
strokes_ogs.tif
176
     1
290
     0
176
     1
 40
1.0
176
     1
 40
1.0
176
     1
1001
ACAD
1000
AcDbSavedByObjectVersion
1070
     0
  0
VISUALSTYLE
  5
10032
102
{ACAD_REACTORS
330
1001D
102
}
330
1001D
100
AcDbVisualStyle
  2
Shaded
 70
    27
177
     3
291
     0
 70
    58
 90
        2
176
     1
 90
        2
176
     1
 90
        1
176
     1
 90
        2
176
     1
 40
0.6
176
     1
 40
30.0
176
     1
 62
     7
420
 16777215
176
     1
 90
        0
176
     1
 90
        4
176
     1
 62
     7
176
     1
 62
   257
176
     1
 90
        1
176
     1
 90
        1
176
     1
 40
1.0
176
     1
 90
        8
176
     1
 62
   257
176
     1
 40
1.0
176
     1
 90
        1
176
     1
 90
        6
176
     1
 90
        2
176
     1
 62
     8
420
  7895160
176
     1
 90
        3
176
     1
 90
        0
176
     1
 90
        0
176
     1
290
     0
176
     1
 90
        5
176
     1
 40
0.0
176
     1
 90
        0
176
     1
290
     0
176
     1
290
     1
176
     1
290
     1
176
     1
290
     0
176
     1
290
     0
176
     1
290
     0
176
     1
290
     0
176
     1
290
     0
176
     1
290
     0
176
     1
 90
       50
176
     1
 40
0.0
176
     1
 40
1.0
176
     1
 90
        0
176
     1
 62
    18
420
        0
176
     1
 90
       50
176
     1
 90
        3
176
     1
 62
     5
420
      255
176
     1
290
     0
176
     1
 90
       50
176
     1
 90
       50
176
     1
 90
       50
176
     1
290
     0
176
     1
 90
       50
176
     1
 62
   256
176
     0
 40
1.0
176
     0
 90
        2
176
     1
  1
strokes_ogs.tif
176
     1
290
     0
176
     1
 40
1.0
176
     1
 40
1.0
176
     1
1001
ACAD
1000
AcDbSavedByObjectVersion
1070
     0
  0
VISUALSTYLE
  5
10031
102
{ACAD_REACTORS
330
1001D
102
}
330
1001D
100
AcDbVisualStyle
  2
Shaded with edges
 70
    26
177
     3
291
     0
 70
    58
 90
        2
176
     1
 90
        2
176
     1
 90
        1
176
     1
 90
        2
176
     1
 40
0.6
176
     1
 40
30.0
176
     1
 62
     7
420
 16777215
176
     1
 90
        1
176
     1
 90
        2
176
     1
 62
     7
176
     1
 62
   257
176
     1
 90
        2
176
     1
 90
        1
176
     1
 40
1.0
176
     1
 90
        8
176
     1
 62
   257
176
     1
 40
1.0
176
     1
 90
        1
176
     1
 90
        6
176
     1
 90
        2
176
     1
 62
     7
176
     1
 90
        3
176
     1
 90
        0
176
     1
 90
        0
176
     1
290
     0
176
     1
 90
        5
176
     1
 40
0.0
176
     1
 90
        0
176
     1
290
     0
176
     1
290
     1
176
     1
290
     1
176
     1
290
     0
176
     1
290
     0
176
     1
290
     0
176
     1
290
     0
176
     1
290
     0
176
     1
290
     0
176
     1
 90
       50
176
     1
 40
0.0
176
     1
 40
1.0
176
     1
 90
        0
176
     1
 62
    18
420
        0
176
     1
 90
       50
176
     1
 90
        3
176
     1
 62
     5
420
      255
176
     1
290
     0
176
     1
 90
       50
176
     1
 90
       50
176
     1
 90
       50
176
     1
290
     0
176
     1
 90
       50
176
     1
 62
   256
176
     0
 40
1.0
176
     0
 90
        2
176
     1
  1
strokes_ogs.tif
176
     1
290
     0
176
     1
 40
1.0
176
     1
 40
1.0
176
     1
1001
ACAD
1000
AcDbSavedByObjectVersion
1070
     0
  0
VISUALSTYLE
  5
1002E
102
{ACAD_REACTORS
330
1001D
102
}
330
1001D
100
AcDbVisualStyle
  2
Shades of Gray
 70
    23
177
     3
291
     0
 70
    58
 90
        2
176
     1
 90
        2
176
     1
 90
        3
176
     1
 90
        0
176
     1
 40
0.6
176
     1
 40
30.0
176
     1
 62
     7
420
 16777215
176
     1
 90
        2
176
     1
 90
        2
176
     1
 62
     7
176
     1
 62
     7
176
     1
 90
        1
176
     1
 90
        1
176
     1
 40
40.0
176
     1
 90
        8
176
     1
 62
     7
176
     1
 40
1.0
176
     1
 90
        1
176
     1
 90
        6
176
     1
 90
        2
176
     1
 62
     7
176
     1
 90
        3
176
     1
 90
        0
176
     1
 90
        0
176
     1
290
     0
176
     1
 90
        1
176
     1
 40
0.0
176
     1
 90
        0
176
     1
290
     0
176
     1
290
     1
176
     1
290
     1
176
     1
290
     0
176
     1
290
     0
176
     1
290
     0
176
     1
290
     0
176
     1
290
     0
176
     1
290
     0
176
     1
 90
       50
176
     1
 40
0.0
176
     1
 40
1.0
176
     1
 90
        0
176
     1
 62
    18
420
        0
176
     1
 90
       50
176
     1
 90
        3
176
     1
 62
     5
420
      255
176
     1
290
     0
176
     1
 90
       50
176
     1
 90
       50
176
     1
 90
       50
176
     1
290
     0
176
     1
 90
       50
176
     1
 62
   256
176
     0
 40
1.0
176
     0
 90
        2
176
     1
  1
strokes_ogs.tif
176
     1
290
     0
176
     1
 40
1.0
176
     1
 40
1.0
176
     1
1001
ACAD
1000
AcDbSavedByObjectVersion
1070
     0
  0
VISUALSTYLE
  5
1002F
102
{ACAD_REACTORS
330
1001D
102
}
330
1001D
100
AcDbVisualStyle
  2
Sketchy
 70
    24
177
     3
291
     0
 70
    58
 90
        1
176
     1
 90
        2
176
     1
 90
        2
176
     1
 90
        0
176
     1
 40
0.6
176
     1
 40
30.0
176
     1
 62
     7
420
 16777215
176
     1
 90
        2
176
     1
 90
        2
176
     1
 62
     7
176
     1
 62
     7
176
     1
 90
        1
176
     1
 90
        1
176
     1
 40
40.0
176
     1
 90
       11
176
     1
 62
     7
176
     1
 40
1.0
176
     1
 90
        1
176
     1
 90
        6
176
     1
 90
        2
176
     1
 62
     7
176
     1
 90
        6
176
     1
 90
        0
176
     1
 90
        0
176
     1
290
     0
176
     1
 90
        1
176
     1
 40
0.0
176
     1
 90
        0
176
     1
290
     0
176
     1
290
     1
176
     1
290
     1
176
     1
290
     0
176
     1
290
     0
176
     1
290
     0
176
     1
290
     0
176
     1
290
     0
176
     1
290
     0
176
     1
 90
       50
176
     1
 40
0.0
176
     1
 40
1.0
176
     1
 90
        0
176
     1
 62
    18
420
        0
176
     1
 90
       50
176
     1
 90
        3
176
     1
 62
     5
420
      255
176
     1
290
     0
176
     1
 90
       50
176
     1
 90
       50
176
     1
 90
       50
176
     1
290
     0
176
     1
 90
       50
176
     1
 62
   256
176
     0
 40
1.0
176
     0
 90
        2
176
     1
  1
strokes_ogs.tif
176
     1
290
     0
176
     1
 40
1.0
176
     1
 40
1.0
176
     1
1001
ACAD
1000
AcDbSavedByObjectVersion
1070
     0
  0
VISUALSTYLE
  5
1002A
102
{ACAD_REACTORS
330
1001D
102
}
330
1001D
100
AcDbVisualStyle
  2
Thicken
 70
    13
177
     3
291
     1
 70
    58
 90
        2
176
     1
 90
        2
176
     1
 90
        0
176
     1
 90
        0
176
     1
 40
0.6
176
     1
 40
30.0
176
     1
 62
     7
420
 16777215
176
     1
 90
        1
176
     1
 90
        4
176
     1
 62
     7
176
     1
 62
   257
176
     1
 90
        1
176
     1
 90
        1
176
     1
 40
1.0
176
     1
 90
       12
176
     1
 62
     7
176
     1
 40
1.0
176
     1
 90
        1
176
     1
 90
        6
176
     1
 90
        2
176
     1
 62
     7
176
     1
 90
        5
176
     1
 90
        0
176
     1
 90
        0
176
     1
290
     0
176
     1
 90
        1
176
     1
 40
0.0
176
     1
 90
        0
176
     1
290
     0
176
     1
290
     1
176
     1
290
     1
176
     1
290
     0
176
     1
290
     0
176
     1
290
     0
176
     1
290
     0
176
     1
290
     0
176
     1
290
     0
176
     1
 90
       50
176
     1
 40
0.0
176
     1
 40
1.0
176
     1
 90
        0
176
     1
 62
    18
420
        0
176
     1
 90
       50
176
     1
 90
        3
176
     1
 62
     5
420
      255
176
     1
290
     0
176
     1
 90
       50
176
     1
 90
       50
176
     1
 90
       50
176
     1
290
     0
176
     1
 90
       50
176
     1
 62
   256
176
     0
 40
1.0
176
     0
 90
        2
176
     1
  1
strokes_ogs.tif
176
     1
290
     0
176
     1
 40
1.0
176
     1
 40
1.0
176
     1
1001
ACAD
1000
AcDbSavedByObjectVersion
1070
     0
  0
VISUALSTYLE
  5
10024
102
{ACAD_REACTORS
330
1001D
102
}
330
1001D
100
AcDbVisualStyle
  2
Wireframe
 70
     5
177
     3
291
     0
 70
    58
 90
        0
176
     1
 90
        2
176
     1
 90
        0
176
     1
 90
        0
176
     1
 40
0.6
176
     1
 40
30.0
176
     1
 62
     7
420
 16777215
176
     1
 90
        1
176
     1
 90
        4
176
     1
 62
     7
176
     1
 62
   257
176
     1
 90
        1
176
     1
 90
        1
176
     1
 40
1.0
176
     1
 90
        0
176
     1
 62
   257
176
     1
 40
1.0
176
     1
 90
        1
176
     1
 90
        6
176
     1
 90
        2
176
     1
 62
     7
176
     1
 90
        3
176
     1
 90
        0
176
     1
 90
        0
176
     1
290
     0
176
     1
 90
        1
176
     1
 40
0.0
176
     1
 90
        0
176
     1
290
     0
176
     1
290
     1
176
     1
290
     1
176
     1
290
     0
176
     1
290
     0
176
     1
290
     0
176
     1
290
     0
176
     1
290
     0
176
     1
290
     0
176
     1
 90
       50
176
     1
 40
0.0
176
     1
 40
1.0
176
     1
 90
        0
176
     1
 62
    18
420
        0
176
     1
 90
       50
176
     1
 90
        3
176
     1
 62
     5
420
      255
176
     1
290
     0
176
     1
 90
       50
176
     1
 90
       50
176
     1
 90
       50
176
     1
290
     0
176
     1
 90
       50
176
     1
 62
   256
176
     0
 40
1.0
176
     0
 90
        2
176
     1
  1
strokes_ogs.tif
176
     1
290
     0
176
     1
 40
1.0
176
     1
 40
1.0
176
     1
1001
ACAD
1000
AcDbSavedByObjectVersion
1070
     0
  0
VISUALSTYLE
  5
10030
102
{ACAD_REACTORS
330
1001D
102
}
330
1001D
100
AcDbVisualStyle
  2
X-Ray
 70
    25
177
     3
291
     0
 70
    58
 90
        2
176
     1
 90
        2
176
     1
 90
        1
176
     1
 90
        1
176
     1
 40
0.5
176
     1
 40
30.0
176
     1
 62
     7
420
 16777215
176
     1
 90
        1
176
     1
 90
        0
176
     1
 62
     7
176
     1
 62
   257
176
     1
 90
        1
176
     1
 90
        1
176
     1
 40
1.0
176
     1
 90
        8
176
     1
 62
     7
176
     1
 40
1.0
176
     1
 90
        1
176
     1
 90
        6
176
     1
 90
        2
176
     1
 62
     7
176
     1
 90
        3
176
     1
 90
        0
176
     1
 90
        0
176
     1
290
     0
176
     1
 90
       13
176
     1
 40
0.0
176
     1
 90
        0
176
     1
290
     0
176
     1
290
     1
176
     1
290
     1
176
     1
290
     0
176
     1
290
     0
176
     1
290
     0
176
     1
290
     0
176
     1
290
     0
176
     1
290
     0
176
     1
 90
       50
176
     1
 40
0.0
176
     1
 40
1.0
176
     1
 90
        0
176
     1
 62
    18
420
        0
176
     1
 90
       50
176
     1
 90
        3
176
     1
 62
     5
420
      255
176
     1
290
     0
176
     1
 90
       50
176
     1
 90
       50
176
     1
 90
       50
176
     1
290
     0
176
     1
 90
       50
176
     1
 62
   256
176
     0
 40
1.0
176
     0
 90
        2
176
     1
  1
strokes_ogs.tif
176
     1
290
     0
176
     1
 40
1.0
176
     1
 40
1.0
176
     1
1001
ACAD
1000
AcDbSavedByObjectVersion
1070
     0
  0
DICTIONARYVAR
  5
1021F
102
{ACAD_REACTORS
330
10219
102
}
330
10219
100
DictionaryVariables
280
     0
  1
1:1
  0
DICTIONARYVAR
  5
1021B
102
{ACAD_REACTORS
330
10219
102
}
330
10219
100
DictionaryVariables
280
     0
  1
STANDARD
  0
DICTIONARYVAR
  5
1021A
102
{ACAD_REACTORS
330
10219
102
}
330
10219
100
DictionaryVariables
280
     0
  1
STANDARD
  0
DICTIONARYVAR
  5
1021C
102
{ACAD_REACTORS
330
10219
102
}
330
10219
100
DictionaryVariables
280
     0
  1
Imperial24
  0
DICTIONARYVAR
  5
1021D
102
{ACAD_REACTORS
330
10219
102
}
330
10219
100
DictionaryVariables
280
     0
  1
Imperial24
  0
DICTIONARYVAR
  5
10221
102
{ACAD_REACTORS
330
10219
102
}
330
10219
100
DictionaryVariables
280
     0
  1
1
  0
DICTIONARYVAR
  5
10222
102
{ACAD_REACTORS
330
10219
102
}
330
10219
100
DictionaryVariables
280
     0
  1
15
  0
DICTIONARYVAR
  5
10220
102
{ACAD_REACTORS
330
10219
102
}
330
10219
100
DictionaryVariables
280
     0
  1
0
  0
DICTIONARYVAR
  5
1021E
102
{ACAD_REACTORS
330
10219
102
}
330
10219
100
DictionaryVariables
280
     0
  1
0
  0
DICTIONARY
  5
10228
330
10052
100
AcDbDictionary
280
     1
281
     1
  3
ACAD_XREC_ROUNDTRIP
360
10229
  0
DICTIONARY
  5
1000E
330
1000D
100
AcDbDictionary
280
     1
281
     1
  3
BUMPTILE
360
10010
  3
DIFFUSETILE
360
1000F
  3
OPACITYTILE
360
10013
  3
REFLECTIONTILE
360
10012
  3
REFRACTIONTILE
360
10014
  3
SPECULARTILE
360
10011
  0
DICTIONARY
  5
10006
330
10005
100
AcDbDictionary
280
     1
281
     1
  3
BUMPTILE
360
10008
  3
DIFFUSETILE
360
10007
  3
OPACITYTILE
360
1000B
  3
REFLECTIONTILE
360
1000A
  3
REFRACTIONTILE
360
1000C
  3
SPECULARTILE
360
10009
  0
DICTIONARY
  5
10016
330
10015
100
AcDbDictionary
280
     1
281
     1
  3
BUMPTILE
360
10018
  3
DIFFUSETILE
360
10017
  3
OPACITYTILE
360
1001B
  3
REFLECTIONTILE
360
1001A
  3
REFRACTIONTILE
360
1001C
  3
SPECULARTILE
360
10019
  0
DICTIONARY
  5
10226
330
10050
100
AcDbDictionary
280
     1
281
     1
  3
ACAD_XREC_ROUNDTRIP
360
10227
  0
DICTIONARY
  5
10223
330
10039
100
AcDbDictionary
280
     1
281
     1
  3
ACAD_ROUNDTRIP_2008_TABLESTYLE_CELLSTYLEMAP
360
10224
  0
XRECORD
  5
10229
102
{ACAD_REACTORS
330
10228
102
}
330
10228
100
AcDbXrecord
280
     1
102
DISPLAYNAME
  1
Imperial24
102
FLAGS
 90
        0
  0
XRECORD
  5
10010
102
{ACAD_REACTORS
330
1000E
102
}
330
1000E
100
AcDbXrecord
280
     1
270
     1
271
     1
  0
XRECORD
  5
1000F
102
{ACAD_REACTORS
330
1000E
102
}
330
1000E
100
AcDbXrecord
280
     1
270
     1
271
     1
  0
XRECORD
  5
10013
102
{ACAD_REACTORS
330
1000E
102
}
330
1000E
100
AcDbXrecord
280
     1
270
     1
271
     1
  0
XRECORD
  5
10012
102
{ACAD_REACTORS
330
1000E
102
}
330
1000E
100
AcDbXrecord
280
     1
270
     1
271
     1
  0
XRECORD
  5
10014
102
{ACAD_REACTORS
330
1000E
102
}
330
1000E
100
AcDbXrecord
280
     1
270
     1
271
     1
  0
XRECORD
  5
10011
102
{ACAD_REACTORS
330
1000E
102
}
330
1000E
100
AcDbXrecord
280
     1
270
     1
271
     1
  0
XRECORD
  5
10008
102
{ACAD_REACTORS
330
10006
102
}
330
10006
100
AcDbXrecord
280
     1
270
     1
271
     1
  0
XRECORD
  5
10007
102
{ACAD_REACTORS
330
10006
102
}
330
10006
100
AcDbXrecord
280
     1
270
     1
271
     1
  0
XRECORD
  5
1000B
102
{ACAD_REACTORS
330
10006
102
}
330
10006
100
AcDbXrecord
280
     1
270
     1
271
     1
  0
XRECORD
  5
1000A
102
{ACAD_REACTORS
330
10006
102
}
330
10006
100
AcDbXrecord
280
     1
270
     1
271
     1
  0
XRECORD
  5
1000C
102
{ACAD_REACTORS
330
10006
102
}
330
10006
100
AcDbXrecord
280
     1
270
     1
271
     1
  0
XRECORD
  5
10009
102
{ACAD_REACTORS
330
10006
102
}
330
10006
100
AcDbXrecord
280
     1
270
     1
271
     1
  0
XRECORD
  5
10018
102
{ACAD_REACTORS
330
10016
102
}
330
10016
100
AcDbXrecord
280
     1
270
     1
271
     1
  0
XRECORD
  5
10017
102
{ACAD_REACTORS
330
10016
102
}
330
10016
100
AcDbXrecord
280
     1
270
     1
271
     1
  0
XRECORD
  5
1001B
102
{ACAD_REACTORS
330
10016
102
}
330
10016
100
AcDbXrecord
280
     1
270
     1
271
     1
  0
XRECORD
  5
1001A
102
{ACAD_REACTORS
330
10016
102
}
330
10016
100
AcDbXrecord
280
     1
270
     1
271
     1
  0
XRECORD
  5
1001C
102
{ACAD_REACTORS
330
10016
102
}
330
10016
100
AcDbXrecord
280
     1
270
     1
271
     1
  0
XRECORD
  5
10019
102
{ACAD_REACTORS
330
10016
102
}
330
10016
100
AcDbXrecord
280
     1
270
     1
271
     1
  0
XRECORD
  5
10227
102
{ACAD_REACTORS
330
10226
102
}
330
10226
100
AcDbXrecord
280
     1
102
DISPLAYNAME
  1
Imperial24
102
FLAGS
 90
        0
  0
CELLSTYLEMAP
  5
10224
102
{ACAD_REACTORS
330
10223
102
}
330
10223
100
AcDbCellStyleMap
 90
        3
300
CELLSTYLE
  1
TABLEFORMAT_BEGIN
 90
        5
170
     1
 91
        0
 92
    32768
 62
   257
 93
        1
300
CONTENTFORMAT
  1
CONTENTFORMAT_BEGIN
 90
        0
 91
        0
 92
      512
 93
        0
300

 40
0.0
140
1.0
 94
        5
 62
     0
340
11
144
0.25
309
CONTENTFORMAT_END
171
     0
 94
        0
309
TABLEFORMAT_END
  1
CELLSTYLE_BEGIN
 90
        1
 91
        1
300
_TITLE
309
CELLSTYLE_END
300
CELLSTYLE
  1
TABLEFORMAT_BEGIN
 90
        5
170
     1
 91
        0
 92
        0
 62
   257
 93
        1
300
CONTENTFORMAT
  1
CONTENTFORMAT_BEGIN
 90
        0
 91
        0
 92
      512
 93
        0
300

 40
0.0
140
1.0
 94
        5
 62
     0
340
11
144
0.18
309
CONTENTFORMAT_END
171
     0
 94
        0
309
TABLEFORMAT_END
  1
CELLSTYLE_BEGIN
 90
        2
 91
        1
300
_HEADER
309
CELLSTYLE_END
300
CELLSTYLE
  1
TABLEFORMAT_BEGIN
 90
        5
170
     1
 91
        0
 92
        0
 62
   257
 93
        1
300
CONTENTFORMAT
  1
CONTENTFORMAT_BEGIN
 90
        0
 91
        0
 92
      512
 93
        0
300

 40
0.0
140
1.0
 94
        2
 62
     0
340
11
144
0.18
309
CONTENTFORMAT_END
171
     0
 94
        0
309
TABLEFORMAT_END
  1
CELLSTYLE_BEGIN
 90
        3
 91
        2
300
_DATA
309
CELLSTYLE_END
  0
ENDSEC
  0
EOF
